<?xml version="1.0" encoding="utf-8" standalone="no"?>
<!DOCTYPE svg PUBLIC "-//W3C//DTD SVG 1.1//EN"
  "http://www.w3.org/Graphics/SVG/1.1/DTD/svg11.dtd">
<!-- Created with matplotlib (https://matplotlib.org/) -->
<svg height="345.6pt" version="1.1" viewBox="0 0 460.8 345.6" width="460.8pt" xmlns="http://www.w3.org/2000/svg" xmlns:xlink="http://www.w3.org/1999/xlink">
 <metadata>
  <rdf:RDF xmlns:cc="http://creativecommons.org/ns#" xmlns:dc="http://purl.org/dc/elements/1.1/" xmlns:rdf="http://www.w3.org/1999/02/22-rdf-syntax-ns#">
   <cc:Work>
    <dc:type rdf:resource="http://purl.org/dc/dcmitype/StillImage"/>
    <dc:date>2022-06-21T04:00:21.008263</dc:date>
    <dc:format>image/svg+xml</dc:format>
    <dc:creator>
     <cc:Agent>
      <dc:title>Matplotlib v3.3.4, https://matplotlib.org/</dc:title>
     </cc:Agent>
    </dc:creator>
   </cc:Work>
  </rdf:RDF>
 </metadata>
 <defs>
  <style type="text/css">*{stroke-linecap:butt;stroke-linejoin:round;}</style>
 </defs>
 <g id="figure_1">
  <g id="patch_1">
   <path d="M 0 345.6 
L 460.8 345.6 
L 460.8 0 
L 0 0 
z
" style="fill:none;"/>
  </g>
  <g id="axes_1">
   <g id="patch_2">
    <path d="M 57.6 307.584 
L 414.72 307.584 
L 414.72 41.472 
L 57.6 41.472 
z
" style="fill:none;"/>
   </g>
   <g id="matplotlib.axis_1">
    <g id="xtick_1">
     <g id="line2d_1">
      <defs>
       <path d="M 0 0 
L 0 3.5 
" id="m4e17fafd80" style="stroke:#000000;stroke-width:0.8;"/>
      </defs>
      <g>
       <use style="stroke:#000000;stroke-width:0.8;" x="73.831104" xlink:href="#m4e17fafd80" y="307.584"/>
      </g>
     </g>
     <g id="text_1">
      <!-- 0.0 -->
      <g transform="translate(61.108604 326.7415)scale(0.16 -0.16)">
       <defs>
        <path d="M 31.78125 66.40625 
Q 24.171875 66.40625 20.328125 58.90625 
Q 16.5 51.421875 16.5 36.375 
Q 16.5 21.390625 20.328125 13.890625 
Q 24.171875 6.390625 31.78125 6.390625 
Q 39.453125 6.390625 43.28125 13.890625 
Q 47.125 21.390625 47.125 36.375 
Q 47.125 51.421875 43.28125 58.90625 
Q 39.453125 66.40625 31.78125 66.40625 
z
M 31.78125 74.21875 
Q 44.046875 74.21875 50.515625 64.515625 
Q 56.984375 54.828125 56.984375 36.375 
Q 56.984375 17.96875 50.515625 8.265625 
Q 44.046875 -1.421875 31.78125 -1.421875 
Q 19.53125 -1.421875 13.0625 8.265625 
Q 6.59375 17.96875 6.59375 36.375 
Q 6.59375 54.828125 13.0625 64.515625 
Q 19.53125 74.21875 31.78125 74.21875 
z
" id="DejaVuSans-48"/>
        <path d="M 10.6875 12.40625 
L 21 12.40625 
L 21 0 
L 10.6875 0 
z
" id="DejaVuSans-46"/>
       </defs>
       <use xlink:href="#DejaVuSans-48"/>
       <use x="63.623047" xlink:href="#DejaVuSans-46"/>
       <use x="95.410156" xlink:href="#DejaVuSans-48"/>
      </g>
     </g>
    </g>
    <g id="xtick_2">
     <g id="line2d_2">
      <g>
       <use style="stroke:#000000;stroke-width:0.8;" x="154.995552" xlink:href="#m4e17fafd80" y="307.584"/>
      </g>
     </g>
     <g id="text_2">
      <!-- 0.5 -->
      <g transform="translate(142.273052 326.7415)scale(0.16 -0.16)">
       <defs>
        <path d="M 10.796875 72.90625 
L 49.515625 72.90625 
L 49.515625 64.59375 
L 19.828125 64.59375 
L 19.828125 46.734375 
Q 21.96875 47.46875 24.109375 47.828125 
Q 26.265625 48.1875 28.421875 48.1875 
Q 40.625 48.1875 47.75 41.5 
Q 54.890625 34.8125 54.890625 23.390625 
Q 54.890625 11.625 47.5625 5.09375 
Q 40.234375 -1.421875 26.90625 -1.421875 
Q 22.3125 -1.421875 17.546875 -0.640625 
Q 12.796875 0.140625 7.71875 1.703125 
L 7.71875 11.625 
Q 12.109375 9.234375 16.796875 8.0625 
Q 21.484375 6.890625 26.703125 6.890625 
Q 35.15625 6.890625 40.078125 11.328125 
Q 45.015625 15.765625 45.015625 23.390625 
Q 45.015625 31 40.078125 35.4375 
Q 35.15625 39.890625 26.703125 39.890625 
Q 22.75 39.890625 18.8125 39.015625 
Q 14.890625 38.140625 10.796875 36.28125 
z
" id="DejaVuSans-53"/>
       </defs>
       <use xlink:href="#DejaVuSans-48"/>
       <use x="63.623047" xlink:href="#DejaVuSans-46"/>
       <use x="95.410156" xlink:href="#DejaVuSans-53"/>
      </g>
     </g>
    </g>
    <g id="xtick_3">
     <g id="line2d_3">
      <g>
       <use style="stroke:#000000;stroke-width:0.8;" x="236.16" xlink:href="#m4e17fafd80" y="307.584"/>
      </g>
     </g>
     <g id="text_3">
      <!-- 1.0 -->
      <g transform="translate(223.4375 326.7415)scale(0.16 -0.16)">
       <defs>
        <path d="M 12.40625 8.296875 
L 28.515625 8.296875 
L 28.515625 63.921875 
L 10.984375 60.40625 
L 10.984375 69.390625 
L 28.421875 72.90625 
L 38.28125 72.90625 
L 38.28125 8.296875 
L 54.390625 8.296875 
L 54.390625 0 
L 12.40625 0 
z
" id="DejaVuSans-49"/>
       </defs>
       <use xlink:href="#DejaVuSans-49"/>
       <use x="63.623047" xlink:href="#DejaVuSans-46"/>
       <use x="95.410156" xlink:href="#DejaVuSans-48"/>
      </g>
     </g>
    </g>
    <g id="xtick_4">
     <g id="line2d_4">
      <g>
       <use style="stroke:#000000;stroke-width:0.8;" x="317.324448" xlink:href="#m4e17fafd80" y="307.584"/>
      </g>
     </g>
     <g id="text_4">
      <!-- 1.5 -->
      <g transform="translate(304.601948 326.7415)scale(0.16 -0.16)">
       <use xlink:href="#DejaVuSans-49"/>
       <use x="63.623047" xlink:href="#DejaVuSans-46"/>
       <use x="95.410156" xlink:href="#DejaVuSans-53"/>
      </g>
     </g>
    </g>
    <g id="xtick_5">
     <g id="line2d_5">
      <g>
       <use style="stroke:#000000;stroke-width:0.8;" x="398.488896" xlink:href="#m4e17fafd80" y="307.584"/>
      </g>
     </g>
     <g id="text_5">
      <!-- 2.0 -->
      <g transform="translate(385.766396 326.7415)scale(0.16 -0.16)">
       <defs>
        <path d="M 19.1875 8.296875 
L 53.609375 8.296875 
L 53.609375 0 
L 7.328125 0 
L 7.328125 8.296875 
Q 12.9375 14.109375 22.625 23.890625 
Q 32.328125 33.6875 34.8125 36.53125 
Q 39.546875 41.84375 41.421875 45.53125 
Q 43.3125 49.21875 43.3125 52.78125 
Q 43.3125 58.59375 39.234375 62.25 
Q 35.15625 65.921875 28.609375 65.921875 
Q 23.96875 65.921875 18.8125 64.3125 
Q 13.671875 62.703125 7.8125 59.421875 
L 7.8125 69.390625 
Q 13.765625 71.78125 18.9375 73 
Q 24.125 74.21875 28.421875 74.21875 
Q 39.75 74.21875 46.484375 68.546875 
Q 53.21875 62.890625 53.21875 53.421875 
Q 53.21875 48.921875 51.53125 44.890625 
Q 49.859375 40.875 45.40625 35.40625 
Q 44.1875 33.984375 37.640625 27.21875 
Q 31.109375 20.453125 19.1875 8.296875 
z
" id="DejaVuSans-50"/>
       </defs>
       <use xlink:href="#DejaVuSans-50"/>
       <use x="63.623047" xlink:href="#DejaVuSans-46"/>
       <use x="95.410156" xlink:href="#DejaVuSans-48"/>
      </g>
     </g>
    </g>
    <g id="text_6">
     <!-- a -->
     <g transform="translate(229.419062 350.785562)scale(0.22 -0.22)">
      <defs>
       <path d="M 34.28125 27.484375 
Q 23.390625 27.484375 19.1875 25 
Q 14.984375 22.515625 14.984375 16.5 
Q 14.984375 11.71875 18.140625 8.90625 
Q 21.296875 6.109375 26.703125 6.109375 
Q 34.1875 6.109375 38.703125 11.40625 
Q 43.21875 16.703125 43.21875 25.484375 
L 43.21875 27.484375 
z
M 52.203125 31.203125 
L 52.203125 0 
L 43.21875 0 
L 43.21875 8.296875 
Q 40.140625 3.328125 35.546875 0.953125 
Q 30.953125 -1.421875 24.3125 -1.421875 
Q 15.921875 -1.421875 10.953125 3.296875 
Q 6 8.015625 6 15.921875 
Q 6 25.140625 12.171875 29.828125 
Q 18.359375 34.515625 30.609375 34.515625 
L 43.21875 34.515625 
L 43.21875 35.40625 
Q 43.21875 41.609375 39.140625 45 
Q 35.0625 48.390625 27.6875 48.390625 
Q 23 48.390625 18.546875 47.265625 
Q 14.109375 46.140625 10.015625 43.890625 
L 10.015625 52.203125 
Q 14.9375 54.109375 19.578125 55.046875 
Q 24.21875 56 28.609375 56 
Q 40.484375 56 46.34375 49.84375 
Q 52.203125 43.703125 52.203125 31.203125 
z
" id="DejaVuSans-97"/>
      </defs>
      <use xlink:href="#DejaVuSans-97"/>
     </g>
    </g>
    <g id="text_7">
     <!-- 1e−7 -->
     <g transform="translate(371.1075 345.2265)scale(0.16 -0.16)">
      <defs>
       <path d="M 56.203125 29.59375 
L 56.203125 25.203125 
L 14.890625 25.203125 
Q 15.484375 15.921875 20.484375 11.0625 
Q 25.484375 6.203125 34.421875 6.203125 
Q 39.59375 6.203125 44.453125 7.46875 
Q 49.3125 8.734375 54.109375 11.28125 
L 54.109375 2.78125 
Q 49.265625 0.734375 44.1875 -0.34375 
Q 39.109375 -1.421875 33.890625 -1.421875 
Q 20.796875 -1.421875 13.15625 6.1875 
Q 5.515625 13.8125 5.515625 26.8125 
Q 5.515625 40.234375 12.765625 48.109375 
Q 20.015625 56 32.328125 56 
Q 43.359375 56 49.78125 48.890625 
Q 56.203125 41.796875 56.203125 29.59375 
z
M 47.21875 32.234375 
Q 47.125 39.59375 43.09375 43.984375 
Q 39.0625 48.390625 32.421875 48.390625 
Q 24.90625 48.390625 20.390625 44.140625 
Q 15.875 39.890625 15.1875 32.171875 
z
" id="DejaVuSans-101"/>
       <path d="M 10.59375 35.5 
L 73.1875 35.5 
L 73.1875 27.203125 
L 10.59375 27.203125 
z
" id="DejaVuSans-8722"/>
       <path d="M 8.203125 72.90625 
L 55.078125 72.90625 
L 55.078125 68.703125 
L 28.609375 0 
L 18.3125 0 
L 43.21875 64.59375 
L 8.203125 64.59375 
z
" id="DejaVuSans-55"/>
      </defs>
      <use xlink:href="#DejaVuSans-49"/>
      <use x="63.623047" xlink:href="#DejaVuSans-101"/>
      <use x="125.146484" xlink:href="#DejaVuSans-8722"/>
      <use x="208.935547" xlink:href="#DejaVuSans-55"/>
     </g>
    </g>
   </g>
   <g id="matplotlib.axis_2">
    <g id="ytick_1">
     <g id="line2d_6">
      <defs>
       <path d="M 0 0 
L -3.5 0 
" id="m4707a62952" style="stroke:#000000;stroke-width:0.8;"/>
      </defs>
      <g>
       <use style="stroke:#000000;stroke-width:0.8;" x="57.6" xlink:href="#m4707a62952" y="275.328"/>
      </g>
     </g>
     <g id="text_8">
      <!-- −2.0 -->
      <g transform="translate(11.7475 281.40675)scale(0.16 -0.16)">
       <use xlink:href="#DejaVuSans-8722"/>
       <use x="83.789062" xlink:href="#DejaVuSans-50"/>
       <use x="147.412109" xlink:href="#DejaVuSans-46"/>
       <use x="179.199219" xlink:href="#DejaVuSans-48"/>
      </g>
     </g>
    </g>
    <g id="ytick_2">
     <g id="line2d_7">
      <g>
       <use style="stroke:#000000;stroke-width:0.8;" x="57.6" xlink:href="#m4707a62952" y="235.008"/>
      </g>
     </g>
     <g id="text_9">
      <!-- −1.5 -->
      <g transform="translate(11.7475 241.08675)scale(0.16 -0.16)">
       <use xlink:href="#DejaVuSans-8722"/>
       <use x="83.789062" xlink:href="#DejaVuSans-49"/>
       <use x="147.412109" xlink:href="#DejaVuSans-46"/>
       <use x="179.199219" xlink:href="#DejaVuSans-53"/>
      </g>
     </g>
    </g>
    <g id="ytick_3">
     <g id="line2d_8">
      <g>
       <use style="stroke:#000000;stroke-width:0.8;" x="57.6" xlink:href="#m4707a62952" y="194.688"/>
      </g>
     </g>
     <g id="text_10">
      <!-- −1.0 -->
      <g transform="translate(11.7475 200.76675)scale(0.16 -0.16)">
       <use xlink:href="#DejaVuSans-8722"/>
       <use x="83.789062" xlink:href="#DejaVuSans-49"/>
       <use x="147.412109" xlink:href="#DejaVuSans-46"/>
       <use x="179.199219" xlink:href="#DejaVuSans-48"/>
      </g>
     </g>
    </g>
    <g id="ytick_4">
     <g id="line2d_9">
      <g>
       <use style="stroke:#000000;stroke-width:0.8;" x="57.6" xlink:href="#m4707a62952" y="154.368"/>
      </g>
     </g>
     <g id="text_11">
      <!-- −0.5 -->
      <g transform="translate(11.7475 160.44675)scale(0.16 -0.16)">
       <use xlink:href="#DejaVuSans-8722"/>
       <use x="83.789062" xlink:href="#DejaVuSans-48"/>
       <use x="147.412109" xlink:href="#DejaVuSans-46"/>
       <use x="179.199219" xlink:href="#DejaVuSans-53"/>
      </g>
     </g>
    </g>
    <g id="ytick_5">
     <g id="line2d_10">
      <g>
       <use style="stroke:#000000;stroke-width:0.8;" x="57.6" xlink:href="#m4707a62952" y="114.048"/>
      </g>
     </g>
     <g id="text_12">
      <!-- 0.0 -->
      <g transform="translate(25.155 120.12675)scale(0.16 -0.16)">
       <use xlink:href="#DejaVuSans-48"/>
       <use x="63.623047" xlink:href="#DejaVuSans-46"/>
       <use x="95.410156" xlink:href="#DejaVuSans-48"/>
      </g>
     </g>
    </g>
    <g id="ytick_6">
     <g id="line2d_11">
      <g>
       <use style="stroke:#000000;stroke-width:0.8;" x="57.6" xlink:href="#m4707a62952" y="73.728"/>
      </g>
     </g>
     <g id="text_13">
      <!-- 0.5 -->
      <g transform="translate(25.155 79.80675)scale(0.16 -0.16)">
       <use xlink:href="#DejaVuSans-48"/>
       <use x="63.623047" xlink:href="#DejaVuSans-46"/>
       <use x="95.410156" xlink:href="#DejaVuSans-53"/>
      </g>
     </g>
    </g>
    <g id="text_14">
     <!-- b -->
     <g transform="translate(3.172188 181.511281)rotate(-90)scale(0.22 -0.22)">
      <defs>
       <path d="M 48.6875 27.296875 
Q 48.6875 37.203125 44.609375 42.84375 
Q 40.53125 48.484375 33.40625 48.484375 
Q 26.265625 48.484375 22.1875 42.84375 
Q 18.109375 37.203125 18.109375 27.296875 
Q 18.109375 17.390625 22.1875 11.75 
Q 26.265625 6.109375 33.40625 6.109375 
Q 40.53125 6.109375 44.609375 11.75 
Q 48.6875 17.390625 48.6875 27.296875 
z
M 18.109375 46.390625 
Q 20.953125 51.265625 25.265625 53.625 
Q 29.59375 56 35.59375 56 
Q 45.5625 56 51.78125 48.09375 
Q 58.015625 40.1875 58.015625 27.296875 
Q 58.015625 14.40625 51.78125 6.484375 
Q 45.5625 -1.421875 35.59375 -1.421875 
Q 29.59375 -1.421875 25.265625 0.953125 
Q 20.953125 3.328125 18.109375 8.203125 
L 18.109375 0 
L 9.078125 0 
L 9.078125 75.984375 
L 18.109375 75.984375 
z
" id="DejaVuSans-98"/>
      </defs>
      <use xlink:href="#DejaVuSans-98"/>
     </g>
    </g>
    <g id="text_15">
     <!-- 1e−6 -->
     <g transform="translate(57.6 38.472)scale(0.16 -0.16)">
      <defs>
       <path d="M 33.015625 40.375 
Q 26.375 40.375 22.484375 35.828125 
Q 18.609375 31.296875 18.609375 23.390625 
Q 18.609375 15.53125 22.484375 10.953125 
Q 26.375 6.390625 33.015625 6.390625 
Q 39.65625 6.390625 43.53125 10.953125 
Q 47.40625 15.53125 47.40625 23.390625 
Q 47.40625 31.296875 43.53125 35.828125 
Q 39.65625 40.375 33.015625 40.375 
z
M 52.59375 71.296875 
L 52.59375 62.3125 
Q 48.875 64.0625 45.09375 64.984375 
Q 41.3125 65.921875 37.59375 65.921875 
Q 27.828125 65.921875 22.671875 59.328125 
Q 17.53125 52.734375 16.796875 39.40625 
Q 19.671875 43.65625 24.015625 45.921875 
Q 28.375 48.1875 33.59375 48.1875 
Q 44.578125 48.1875 50.953125 41.515625 
Q 57.328125 34.859375 57.328125 23.390625 
Q 57.328125 12.15625 50.6875 5.359375 
Q 44.046875 -1.421875 33.015625 -1.421875 
Q 20.359375 -1.421875 13.671875 8.265625 
Q 6.984375 17.96875 6.984375 36.375 
Q 6.984375 53.65625 15.1875 63.9375 
Q 23.390625 74.21875 37.203125 74.21875 
Q 40.921875 74.21875 44.703125 73.484375 
Q 48.484375 72.75 52.59375 71.296875 
z
" id="DejaVuSans-54"/>
      </defs>
      <use xlink:href="#DejaVuSans-49"/>
      <use x="63.623047" xlink:href="#DejaVuSans-101"/>
      <use x="125.146484" xlink:href="#DejaVuSans-8722"/>
      <use x="208.935547" xlink:href="#DejaVuSans-54"/>
     </g>
    </g>
   </g>
   <g id="line2d_12">
    <path clip-path="url(#p3857056e12)" d="M 73.832727 114.048 
L 73.835974 114.048 
L 73.837597 53.568 
L 73.946357 114.048 
L 75.389461 114.048 
L 75.501468 93.888 
L 76.309866 93.888 
L 76.421873 53.568 
L 76.941326 53.568 
L 77.053333 73.728 
L 78.49319 73.728 
L 78.605197 53.568 
L 78.782135 53.568 
L 78.894142 93.888 
L 80.045054 93.888 
L 80.157061 114.048 
L 81.254404 114.048 
L 81.366411 73.728 
L 81.596918 73.728 
L 81.708925 53.568 
L 83.148783 53.568 
L 83.26079 73.728 
L 83.726673 73.728 
L 83.83868 114.048 
L 84.700647 114.048 
L 84.812654 93.888 
L 86.198943 93.888 
L 86.252511 53.568 
L 86.309326 73.728 
L 87.804375 73.728 
L 87.916382 53.568 
L 88.671212 53.568 
L 88.783219 93.888 
L 89.35624 93.888 
L 89.468247 114.048 
L 90.908104 114.048 
L 91.020111 93.888 
L 91.143481 93.888 
L 91.255488 53.568 
L 92.459968 53.568 
L 92.571975 73.728 
L 93.61575 73.728 
L 93.727757 114.048 
L 94.011832 114.048 
L 94.123839 93.888 
L 95.563697 93.888 
L 95.675704 114.048 
L 96.088019 114.048 
L 96.200026 73.728 
L 97.115561 73.728 
L 97.227568 53.568 
L 98.560288 53.568 
L 98.672295 114.048 
L 100.219289 114.048 
L 100.331296 93.888 
L 101.032557 93.888 
L 101.144564 53.568 
L 101.771154 53.568 
L 101.883161 73.728 
L 103.323018 73.728 
L 103.435025 53.568 
L 103.504826 53.568 
L 103.616833 93.888 
L 104.874882 93.888 
L 104.986889 114.048 
L 105.977095 114.048 
L 106.089102 73.728 
L 106.426746 73.728 
L 106.538753 53.568 
L 107.978611 53.568 
L 108.090617 73.728 
L 108.449364 73.728 
L 108.561371 114.048 
L 109.530475 114.048 
L 109.642482 93.888 
L 110.921633 93.888 
L 111.03364 53.568 
L 111.082339 53.568 
L 111.194346 73.728 
L 112.634203 73.728 
L 112.74621 53.568 
L 113.393903 53.568 
L 113.505909 93.888 
L 114.186068 93.888 
L 114.298074 114.048 
L 115.737932 114.048 
L 115.849939 93.888 
L 115.866172 93.888 
L 115.978179 53.568 
L 117.289796 53.568 
L 117.401803 73.728 
L 118.338441 73.728 
L 118.450448 114.048 
L 118.84166 114.048 
L 118.953667 93.888 
L 120.393525 93.888 
L 120.505531 114.048 
L 120.81071 114.048 
L 120.922717 73.728 
L 121.945389 73.728 
L 122.057396 53.568 
L 123.282979 53.568 
L 123.394986 93.888 
L 123.497253 93.888 
L 123.60926 114.048 
L 125.049117 114.048 
L 125.161124 93.888 
L 125.755248 93.888 
L 125.867255 53.568 
L 126.600982 53.568 
L 126.712988 73.728 
L 128.152846 73.728 
L 128.227517 53.568 
L 128.22914 93.888 
L 128.261606 93.888 
L 129.70471 93.888 
L 129.816717 114.048 
L 130.699786 114.048 
L 130.811793 73.728 
L 131.256574 73.728 
L 131.368581 53.568 
L 132.808438 53.568 
L 132.920445 73.728 
L 133.172055 73.728 
L 133.284062 114.048 
L 134.360303 114.048 
L 134.47231 93.888 
L 135.644324 93.888 
L 135.756331 53.568 
L 135.912167 53.568 
L 136.024174 73.728 
L 137.464031 73.728 
L 137.576038 53.568 
L 138.116593 53.568 
L 138.2286 93.888 
L 139.015895 93.888 
L 139.127902 114.048 
L 140.56776 114.048 
L 140.683013 53.568 
L 142.119624 53.568 
L 142.231631 73.728 
L 143.061132 73.728 
L 143.173138 114.048 
L 143.671488 114.048 
L 143.783495 93.888 
L 145.223352 93.888 
L 145.335359 114.048 
L 145.533401 114.048 
L 145.645408 73.728 
L 146.775217 73.728 
L 146.887224 53.568 
L 148.00567 53.568 
L 148.117677 93.888 
L 148.327081 93.888 
L 148.439088 114.048 
L 149.878945 114.048 
L 149.990952 93.888 
L 150.477939 93.888 
L 150.589946 53.568 
L 151.430809 53.568 
L 151.542816 73.728 
L 152.950208 73.728 
L 152.982674 114.048 
L 153.060592 93.888 
L 154.534538 93.888 
L 154.646545 114.048 
L 155.422477 114.048 
L 155.534484 73.728 
L 156.086402 73.728 
L 156.198409 53.568 
L 157.638266 53.568 
L 157.750273 73.728 
L 157.894746 73.728 
L 158.006753 114.048 
L 159.190131 114.048 
L 159.302138 93.888 
L 160.367015 93.888 
L 160.479022 53.568 
L 160.741995 53.568 
L 160.854002 73.728 
L 162.293859 73.728 
L 162.405866 53.568 
L 162.839284 53.568 
L 162.951291 93.888 
L 163.845723 93.888 
L 163.95773 114.048 
L 165.311553 114.048 
L 165.42356 53.568 
L 166.949452 53.568 
L 167.061459 73.728 
L 167.783822 73.728 
L 167.895829 114.048 
L 168.501316 114.048 
L 168.613323 93.888 
L 170.05318 93.888 
L 170.165187 114.048 
L 170.256092 114.048 
L 170.368098 73.728 
L 171.605045 73.728 
L 171.717052 53.568 
L 172.728361 53.568 
L 172.840368 93.888 
L 173.156909 93.888 
L 173.268916 114.048 
L 174.708773 114.048 
L 174.82078 93.888 
L 175.20063 93.888 
L 175.312637 53.568 
L 176.260637 53.568 
L 176.372644 73.728 
L 177.672899 73.728 
L 177.784906 114.048 
L 177.812502 114.048 
L 177.924509 93.888 
L 179.364366 93.888 
L 179.476373 114.048 
L 180.145168 114.048 
L 180.257175 73.728 
L 180.91623 73.728 
L 181.028237 53.568 
L 182.468094 53.568 
L 182.580101 73.728 
L 182.617437 73.728 
L 182.729444 114.048 
L 184.019959 114.048 
L 184.131966 93.888 
L 185.089706 93.888 
L 185.201713 53.568 
L 185.571823 53.568 
L 185.68383 73.728 
L 187.123687 73.728 
L 187.235694 53.568 
L 187.561975 53.568 
L 187.673982 93.888 
L 188.675551 93.888 
L 188.787558 114.048 
L 190.034244 114.048 
L 190.146251 73.728 
L 190.227416 73.728 
L 190.339423 53.568 
L 191.77928 53.568 
L 191.891287 73.728 
L 192.506513 73.728 
L 192.61852 114.048 
L 193.331144 114.048 
L 193.443151 93.888 
L 194.883008 93.888 
L 194.978782 114.048 
L 194.980406 73.728 
L 194.991769 73.728 
L 196.434873 73.728 
L 196.54688 53.568 
L 197.451051 53.568 
L 197.563058 93.888 
L 197.986737 93.888 
L 198.098744 114.048 
L 199.538601 114.048 
L 199.650608 93.888 
L 199.923321 93.888 
L 200.035327 53.568 
L 201.090465 53.568 
L 201.202472 73.728 
L 202.39559 73.728 
L 202.507597 114.048 
L 202.64233 114.048 
L 202.754336 93.888 
L 204.194194 93.888 
L 204.306201 114.048 
L 204.867859 114.048 
L 204.979866 73.728 
L 205.746058 73.728 
L 205.858065 53.568 
L 207.297922 53.568 
L 207.413176 114.048 
L 208.849787 114.048 
L 208.961793 93.888 
L 209.812397 93.888 
L 209.924404 53.568 
L 210.401651 53.568 
L 210.513658 73.728 
L 211.953515 73.728 
L 212.065522 53.568 
L 212.284666 53.568 
L 212.396673 93.888 
L 213.505379 93.888 
L 213.617386 114.048 
L 214.756935 114.048 
L 214.868942 73.728 
L 215.057244 73.728 
L 215.16925 53.568 
L 216.609108 53.568 
L 216.721115 73.728 
L 217.229204 73.728 
L 217.341211 114.048 
L 218.160972 114.048 
L 218.272979 93.888 
L 219.701473 93.888 
L 219.712836 53.568 
L 219.811857 73.728 
L 221.264701 73.728 
L 221.376707 53.568 
L 222.173742 53.568 
L 222.285749 93.888 
L 222.816565 93.888 
L 222.928572 114.048 
L 224.368429 114.048 
L 224.480436 93.888 
L 224.646011 93.888 
L 224.758018 53.568 
L 225.920293 53.568 
L 226.0323 73.728 
L 227.11828 73.728 
L 227.230287 114.048 
L 227.472157 114.048 
L 227.584164 93.888 
L 229.024022 93.888 
L 229.136029 114.048 
L 229.59055 114.048 
L 229.702557 73.728 
L 230.575886 73.728 
L 230.687893 53.568 
L 232.062819 53.568 
L 232.174826 114.048 
L 233.679614 114.048 
L 233.791621 93.888 
L 234.535088 93.888 
L 234.647095 53.568 
L 235.231479 53.568 
L 235.343486 73.728 
L 236.783343 73.728 
L 236.89535 53.568 
L 237.007357 53.568 
L 237.119364 93.888 
L 238.335207 93.888 
L 238.447214 114.048 
L 239.479626 114.048 
L 239.591633 73.728 
L 239.887071 73.728 
L 239.999078 53.568 
L 241.438936 53.568 
L 241.550943 73.728 
L 241.951895 73.728 
L 242.063902 114.048 
L 242.9908 114.048 
L 243.102807 93.888 
L 244.424164 93.888 
L 244.536171 53.568 
L 244.542664 53.568 
L 244.654671 73.728 
L 246.094528 73.728 
L 246.206535 53.568 
L 246.896433 53.568 
L 247.00844 93.888 
L 247.646393 93.888 
L 247.7584 114.048 
L 249.198257 114.048 
L 249.310264 93.888 
L 249.368702 93.888 
L 249.480709 53.568 
L 250.750121 53.568 
L 250.862128 73.728 
L 251.840971 73.728 
L 251.952978 114.048 
L 252.301985 114.048 
L 252.413992 93.888 
L 253.85385 93.888 
L 253.965857 114.048 
L 254.31324 114.048 
L 254.425247 73.728 
L 255.405714 73.728 
L 255.517721 53.568 
L 256.78551 53.568 
L 256.897516 93.888 
L 256.957578 93.888 
L 257.069585 114.048 
L 258.509442 114.048 
L 258.621449 93.888 
L 259.257779 93.888 
L 259.369786 53.568 
L 260.061307 53.568 
L 260.173314 73.728 
L 261.613171 73.728 
L 261.725178 53.568 
L 261.730048 53.568 
L 261.842055 93.888 
L 263.165035 93.888 
L 263.277042 114.048 
L 264.202317 114.048 
L 264.314324 73.728 
L 264.716899 73.728 
L 264.828906 53.568 
L 266.268764 53.568 
L 266.380771 73.728 
L 266.674586 73.728 
L 266.786593 114.048 
L 267.820628 114.048 
L 267.932635 93.888 
L 269.146855 93.888 
L 269.258862 53.568 
L 269.372492 53.568 
L 269.484499 73.728 
L 270.924356 73.728 
L 271.036363 53.568 
L 271.619124 53.568 
L 271.731131 93.888 
L 272.476221 93.888 
L 272.588228 114.048 
L 274.028085 114.048 
L 274.143338 53.568 
L 275.579949 53.568 
L 275.691956 73.728 
L 276.563662 73.728 
L 276.675669 114.048 
L 277.131813 114.048 
L 277.24382 93.888 
L 278.683678 93.888 
L 278.795685 114.048 
L 279.035931 114.048 
L 279.147938 73.728 
L 280.235542 73.728 
L 280.347549 53.568 
L 281.5082 53.568 
L 281.620207 93.888 
L 281.787406 93.888 
L 281.899413 114.048 
L 283.33927 114.048 
L 283.451277 93.888 
L 283.980469 93.888 
L 284.092476 53.568 
L 284.891135 53.568 
L 285.003142 73.728 
L 286.442999 73.728 
L 286.452739 53.568 
L 286.454362 93.888 
L 286.551759 93.888 
L 287.994863 93.888 
L 288.10687 114.048 
L 288.925008 114.048 
L 289.037015 73.728 
L 289.546727 73.728 
L 289.658734 53.568 
L 291.098592 53.568 
L 291.210599 73.728 
L 291.397277 73.728 
L 291.509284 114.048 
L 292.650456 114.048 
L 292.762463 93.888 
L 293.869546 93.888 
L 293.981553 53.568 
L 294.20232 53.568 
L 294.314327 73.728 
L 295.754184 73.728 
L 295.866191 53.568 
L 296.341815 53.568 
L 296.453822 93.888 
L 297.306049 93.888 
L 297.418055 114.048 
L 298.814084 114.048 
L 298.926091 53.568 
L 300.409777 53.568 
L 300.521784 73.728 
L 301.286353 73.728 
L 301.39836 114.048 
L 301.961641 114.048 
L 302.073648 93.888 
L 303.513506 93.888 
L 303.625512 114.048 
L 303.758622 114.048 
L 303.870629 73.728 
L 305.06537 73.728 
L 305.177377 53.568 
L 306.230891 53.568 
L 306.342898 93.888 
L 306.617234 93.888 
L 306.729241 114.048 
L 308.169098 114.048 
L 308.281105 93.888 
L 308.70316 93.888 
L 308.815167 53.568 
L 309.720963 53.568 
L 309.832969 73.728 
L 311.175429 73.728 
L 311.272827 114.048 
L 311.285813 93.888 
L 312.824691 93.888 
L 312.936698 114.048 
L 313.647699 114.048 
L 313.759705 73.728 
L 314.376555 73.728 
L 314.488562 53.568 
L 315.92842 53.568 
L 316.040426 73.728 
L 316.119968 73.728 
L 316.231975 114.048 
L 317.480284 114.048 
L 317.592291 93.888 
L 318.592237 93.888 
L 318.704244 53.568 
L 319.032148 53.568 
L 319.144155 73.728 
L 320.584012 73.728 
L 320.696019 53.568 
L 321.064506 53.568 
L 321.176513 93.888 
L 322.135876 93.888 
L 322.247883 114.048 
L 323.536775 114.048 
L 323.648782 73.728 
L 323.687741 73.728 
L 323.799748 53.568 
L 325.239605 53.568 
L 325.351612 73.728 
L 326.009044 73.728 
L 326.121051 114.048 
L 326.791469 114.048 
L 326.903476 93.888 
L 328.343333 93.888 
L 328.45534 114.048 
L 328.481313 114.048 
L 328.59332 73.728 
L 329.895198 73.728 
L 330.007205 53.568 
L 330.953582 53.568 
L 331.065589 93.888 
L 331.447062 93.888 
L 331.559069 114.048 
L 332.998926 114.048 
L 333.110933 93.888 
L 333.425851 93.888 
L 333.537858 53.568 
L 334.55079 53.568 
L 334.662797 73.728 
L 335.89812 73.728 
L 336.010127 114.048 
L 336.102655 114.048 
L 336.214662 93.888 
L 337.654519 93.888 
L 337.766526 114.048 
L 338.370389 114.048 
L 338.482396 73.728 
L 339.206383 73.728 
L 339.31839 53.568 
L 340.758247 53.568 
L 340.873501 114.048 
L 342.310112 114.048 
L 342.422119 93.888 
L 343.314928 93.888 
L 343.426934 53.568 
L 343.861976 53.568 
L 343.973983 73.728 
L 345.41384 73.728 
L 345.525847 53.568 
L 345.787197 53.568 
L 345.899204 93.888 
L 346.965704 93.888 
L 347.077711 114.048 
L 348.259466 114.048 
L 348.371473 73.728 
L 348.517569 73.728 
L 348.629576 53.568 
L 350.069433 53.568 
L 350.18144 73.728 
L 350.731735 73.728 
L 350.843742 114.048 
L 351.621297 114.048 
L 351.733304 93.888 
L 353.173161 93.888 
L 353.204004 114.048 
L 353.205627 73.728 
L 353.281922 73.728 
L 354.725026 73.728 
L 354.837033 53.568 
L 355.676273 53.568 
L 355.78828 93.888 
L 356.27689 93.888 
L 356.388897 114.048 
L 357.828754 114.048 
L 357.940761 93.888 
L 358.148542 93.888 
L 358.260549 53.568 
L 359.380618 53.568 
L 359.492625 73.728 
L 360.620811 73.728 
L 360.732818 114.048 
L 360.932483 114.048 
L 361.04449 93.888 
L 362.484347 93.888 
L 362.596354 114.048 
L 363.09308 114.048 
L 363.205087 73.728 
L 364.036211 73.728 
L 364.148218 53.568 
L 365.565349 53.568 
L 365.677356 114.048 
L 367.13994 114.048 
L 367.251947 93.888 
L 368.037618 93.888 
L 368.149625 53.568 
L 368.691804 53.568 
L 368.803811 73.728 
L 370.243668 73.728 
L 370.355675 53.568 
L 370.509887 53.568 
L 370.621894 93.888 
L 371.795532 93.888 
L 371.907539 114.048 
L 372.982157 114.048 
L 373.094164 73.728 
L 373.347397 73.728 
L 373.459404 53.568 
L 374.899261 53.568 
L 375.011268 73.728 
L 375.454426 73.728 
L 375.566433 114.048 
L 376.451125 114.048 
L 376.563132 93.888 
L 377.926695 93.888 
L 378.002989 53.568 
L 378.037078 73.728 
L 379.554854 73.728 
L 379.666861 53.568 
L 380.398964 53.568 
L 380.510971 93.888 
L 381.106718 93.888 
L 381.218725 114.048 
L 382.658582 114.048 
L 382.770589 93.888 
L 382.871233 93.888 
L 382.98324 53.568 
L 384.210446 53.568 
L 384.322453 73.728 
L 385.343502 73.728 
L 385.455509 114.048 
L 385.762311 114.048 
L 385.874318 93.888 
L 387.314175 93.888 
L 387.426182 114.048 
L 387.815771 114.048 
L 387.927778 73.728 
L 388.866039 73.728 
L 388.978046 53.568 
L 390.28804 53.568 
L 390.400047 93.888 
L 390.417903 93.888 
L 390.52991 114.048 
L 391.969768 114.048 
L 392.081774 93.888 
L 392.760309 93.888 
L 392.872316 53.568 
L 393.521632 53.568 
L 393.633639 73.728 
L 395.073496 73.728 
L 395.185503 53.568 
L 395.232578 53.568 
L 395.344585 93.888 
L 396.62536 93.888 
L 396.737367 114.048 
L 397.704847 114.048 
L 397.816854 73.728 
L 398.177225 73.728 
L 398.289231 53.568 
L 398.487273 53.568 
L 398.487273 53.568 
" style="fill:none;stroke:#17e610;stroke-linecap:square;stroke-width:2;"/>
   </g>
   <g id="line2d_13">
    <path clip-path="url(#p3857056e12)" d="M 73.832727 114.048 
L 73.834351 295.488 
L 73.943111 114.048 
L 75.386215 114.048 
L 75.498222 174.528 
L 76.30662 174.528 
L 76.418627 295.488 
L 76.938079 295.488 
L 77.050086 235.008 
L 78.489943 235.008 
L 78.60195 295.488 
L 78.778889 295.488 
L 78.890896 174.528 
L 80.041808 174.528 
L 80.153814 114.048 
L 81.251158 114.048 
L 81.363165 235.008 
L 81.593672 235.008 
L 81.705679 295.488 
L 83.145536 295.488 
L 83.257543 235.008 
L 83.723427 235.008 
L 83.835434 114.048 
L 84.6974 114.048 
L 84.809407 174.528 
L 86.195696 174.528 
L 86.249265 295.488 
L 86.30608 235.008 
L 87.801129 235.008 
L 87.913136 295.488 
L 88.667965 295.488 
L 88.779972 174.528 
L 89.352993 174.528 
L 89.465 114.048 
L 90.904857 114.048 
L 91.016864 174.528 
L 91.140234 174.528 
L 91.252241 295.488 
L 92.456722 295.488 
L 92.568728 235.008 
L 93.612503 235.008 
L 93.72451 114.048 
L 94.008586 114.048 
L 94.120593 174.528 
L 95.56045 174.528 
L 95.672457 114.048 
L 96.084772 114.048 
L 96.196779 235.008 
L 97.112314 235.008 
L 97.224321 295.488 
L 98.557041 295.488 
L 98.669048 114.048 
L 100.216043 114.048 
L 100.32805 174.528 
L 101.029311 174.528 
L 101.141317 295.488 
L 101.767907 295.488 
L 101.879914 235.008 
L 103.319771 235.008 
L 103.431778 295.488 
L 103.50158 295.488 
L 103.613587 174.528 
L 104.871635 174.528 
L 104.983642 114.048 
L 105.973849 114.048 
L 106.085856 235.008 
L 106.4235 235.008 
L 106.535507 295.488 
L 107.975364 295.488 
L 108.087371 235.008 
L 108.446118 235.008 
L 108.558125 114.048 
L 109.527228 114.048 
L 109.639235 174.528 
L 110.918387 174.528 
L 111.030394 295.488 
L 111.079092 295.488 
L 111.191099 235.008 
L 112.630957 235.008 
L 112.742964 295.488 
L 113.390656 295.488 
L 113.502663 174.528 
L 114.182821 174.528 
L 114.294828 114.048 
L 115.734685 114.048 
L 115.846692 174.528 
L 115.862925 174.528 
L 115.974932 295.488 
L 117.286549 295.488 
L 117.398556 235.008 
L 118.335194 235.008 
L 118.447201 114.048 
L 118.838414 114.048 
L 118.950421 174.528 
L 120.390278 174.528 
L 120.502285 114.048 
L 120.807463 114.048 
L 120.91947 235.008 
L 121.942142 235.008 
L 122.054149 295.488 
L 123.279732 295.488 
L 123.391739 174.528 
L 123.494006 174.528 
L 123.606013 114.048 
L 125.045871 114.048 
L 125.157878 174.528 
L 125.752001 174.528 
L 125.864008 295.488 
L 126.597735 295.488 
L 126.709742 235.008 
L 128.149599 235.008 
L 128.22427 295.488 
L 128.225894 174.528 
L 128.25836 174.528 
L 129.701463 174.528 
L 129.81347 114.048 
L 130.69654 114.048 
L 130.808546 235.008 
L 131.253328 235.008 
L 131.365335 295.488 
L 132.805192 295.488 
L 132.917199 235.008 
L 133.168809 235.008 
L 133.280816 114.048 
L 134.357056 114.048 
L 134.469063 174.528 
L 135.641078 174.528 
L 135.753085 295.488 
L 135.90892 295.488 
L 136.020927 235.008 
L 137.460785 235.008 
L 137.572792 295.488 
L 138.113347 295.488 
L 138.225354 174.528 
L 139.012649 174.528 
L 139.124656 114.048 
L 140.564513 114.048 
L 140.679767 295.488 
L 142.116377 295.488 
L 142.228384 235.008 
L 143.057885 235.008 
L 143.169892 114.048 
L 143.668242 114.048 
L 143.780249 174.528 
L 145.220106 174.528 
L 145.332113 114.048 
L 145.530154 114.048 
L 145.642161 235.008 
L 146.77197 235.008 
L 146.883977 295.488 
L 148.002423 295.488 
L 148.11443 174.528 
L 148.323834 174.528 
L 148.435841 114.048 
L 149.875699 114.048 
L 149.987706 174.528 
L 150.474692 174.528 
L 150.586699 295.488 
L 151.427563 295.488 
L 151.53957 235.008 
L 152.946961 235.008 
L 152.979427 114.048 
L 153.057345 174.528 
L 154.531291 174.528 
L 154.643298 114.048 
L 155.41923 114.048 
L 155.531237 235.008 
L 156.083156 235.008 
L 156.195163 295.488 
L 157.63502 295.488 
L 157.747027 235.008 
L 157.891499 235.008 
L 158.003506 114.048 
L 159.186884 114.048 
L 159.298891 174.528 
L 160.363769 174.528 
L 160.475776 295.488 
L 160.738748 295.488 
L 160.850755 235.008 
L 162.290613 235.008 
L 162.40262 295.488 
L 162.836038 295.488 
L 162.948045 174.528 
L 163.842477 174.528 
L 163.954484 114.048 
L 165.308307 114.048 
L 165.420314 295.488 
L 166.946205 295.488 
L 167.058212 235.008 
L 167.780576 235.008 
L 167.892583 114.048 
L 168.49807 114.048 
L 168.610077 174.528 
L 170.049934 174.528 
L 170.161941 114.048 
L 170.252845 114.048 
L 170.364852 235.008 
L 171.601798 235.008 
L 171.713805 295.488 
L 172.725114 295.488 
L 172.837121 174.528 
L 173.153662 174.528 
L 173.265669 114.048 
L 174.705527 114.048 
L 174.817533 174.528 
L 175.197383 174.528 
L 175.30939 295.488 
L 176.257391 295.488 
L 176.369398 235.008 
L 177.669652 235.008 
L 177.781659 114.048 
L 177.809255 114.048 
L 177.921262 174.528 
L 179.361119 174.528 
L 179.473126 114.048 
L 180.141921 114.048 
L 180.253928 235.008 
L 180.912984 235.008 
L 181.02499 295.488 
L 182.464848 295.488 
L 182.576855 235.008 
L 182.61419 235.008 
L 182.726197 114.048 
L 184.016712 114.048 
L 184.128719 174.528 
L 185.086459 174.528 
L 185.198466 295.488 
L 185.568576 295.488 
L 185.680583 235.008 
L 187.120441 235.008 
L 187.232447 295.488 
L 187.558729 295.488 
L 187.670735 174.528 
L 188.672305 174.528 
L 188.784312 114.048 
L 190.030998 114.048 
L 190.143005 235.008 
L 190.224169 235.008 
L 190.336176 295.488 
L 191.776033 295.488 
L 191.88804 235.008 
L 192.503267 235.008 
L 192.615274 114.048 
L 193.327897 114.048 
L 193.439904 174.528 
L 194.879762 174.528 
L 194.975536 114.048 
L 194.977159 235.008 
L 194.988522 235.008 
L 196.431626 235.008 
L 196.543633 295.488 
L 197.447805 295.488 
L 197.559812 174.528 
L 197.98349 174.528 
L 198.095497 114.048 
L 199.535354 114.048 
L 199.647361 174.528 
L 199.920074 174.528 
L 200.032081 295.488 
L 201.087219 295.488 
L 201.199226 235.008 
L 202.392343 235.008 
L 202.501103 114.048 
L 202.50435 114.048 
L 202.639083 114.048 
L 202.75109 174.528 
L 204.190947 174.528 
L 204.302954 114.048 
L 204.864612 114.048 
L 204.976619 235.008 
L 205.742811 235.008 
L 205.854818 295.488 
L 207.294676 295.488 
L 207.409929 114.048 
L 208.84654 114.048 
L 208.958547 174.528 
L 209.80915 174.528 
L 209.921157 295.488 
L 210.398404 295.488 
L 210.510411 235.008 
L 211.950268 235.008 
L 212.062275 295.488 
L 212.281419 295.488 
L 212.393426 174.528 
L 213.502133 174.528 
L 213.61414 114.048 
L 214.753688 114.048 
L 214.865695 235.008 
L 215.053997 235.008 
L 215.166004 295.488 
L 216.605861 295.488 
L 216.717868 235.008 
L 217.225958 235.008 
L 217.337965 114.048 
L 218.157725 114.048 
L 218.269732 174.528 
L 219.698227 174.528 
L 219.70959 295.488 
L 219.80861 235.008 
L 221.261454 235.008 
L 221.373461 295.488 
L 222.170496 295.488 
L 222.282503 174.528 
L 222.813318 174.528 
L 222.925325 114.048 
L 224.365182 114.048 
L 224.477189 174.528 
L 224.642765 174.528 
L 224.754772 295.488 
L 225.917047 295.488 
L 226.029054 235.008 
L 227.115034 235.008 
L 227.227041 114.048 
L 227.468911 114.048 
L 227.580918 174.528 
L 229.020775 174.528 
L 229.132782 114.048 
L 229.587303 114.048 
L 229.69931 235.008 
L 230.572639 235.008 
L 230.684646 295.488 
L 232.059572 295.488 
L 232.171579 114.048 
L 233.676368 114.048 
L 233.788375 174.528 
L 234.531841 174.528 
L 234.643848 295.488 
L 235.228232 295.488 
L 235.340239 235.008 
L 236.780096 235.008 
L 236.892103 295.488 
L 237.00411 295.488 
L 237.116117 174.528 
L 238.331961 174.528 
L 238.443968 114.048 
L 239.476379 114.048 
L 239.588386 235.008 
L 239.883825 235.008 
L 239.995832 295.488 
L 241.435689 295.488 
L 241.547696 235.008 
L 241.948648 235.008 
L 242.060655 114.048 
L 242.987553 114.048 
L 243.09956 174.528 
L 244.420918 174.528 
L 244.532924 295.488 
L 244.539418 295.488 
L 244.651425 235.008 
L 246.091282 235.008 
L 246.203289 295.488 
L 246.893187 295.488 
L 247.005194 174.528 
L 247.643146 174.528 
L 247.755153 114.048 
L 249.19501 114.048 
L 249.307017 174.528 
L 249.365456 174.528 
L 249.477463 295.488 
L 250.746875 295.488 
L 250.858882 235.008 
L 251.837725 235.008 
L 251.949732 114.048 
L 252.298739 114.048 
L 252.410746 174.528 
L 253.850603 174.528 
L 253.96261 114.048 
L 254.309994 114.048 
L 254.422001 235.008 
L 255.402467 235.008 
L 255.514474 295.488 
L 256.782263 295.488 
L 256.89427 174.528 
L 256.954332 174.528 
L 257.066339 114.048 
L 258.506196 114.048 
L 258.618203 174.528 
L 259.254532 174.528 
L 259.366539 295.488 
L 260.05806 295.488 
L 260.170067 235.008 
L 261.609924 235.008 
L 261.721931 295.488 
L 261.726801 295.488 
L 261.838808 174.528 
L 263.161789 174.528 
L 263.273796 114.048 
L 264.19907 114.048 
L 264.311077 235.008 
L 264.713653 235.008 
L 264.82566 295.488 
L 266.265517 295.488 
L 266.377524 235.008 
L 266.671339 235.008 
L 266.783346 114.048 
L 267.817381 114.048 
L 267.929388 174.528 
L 269.143608 174.528 
L 269.255615 295.488 
L 269.369246 295.488 
L 269.481252 235.008 
L 270.92111 235.008 
L 271.033117 295.488 
L 271.615877 295.488 
L 271.727884 174.528 
L 272.472974 174.528 
L 272.584981 114.048 
L 274.024838 114.048 
L 274.140092 295.488 
L 275.576703 295.488 
L 275.688709 235.008 
L 276.560416 235.008 
L 276.672423 114.048 
L 277.128567 114.048 
L 277.240574 174.528 
L 278.680431 174.528 
L 278.792438 114.048 
L 279.032685 114.048 
L 279.144692 235.008 
L 280.232295 235.008 
L 280.344302 295.488 
L 281.504954 295.488 
L 281.616961 174.528 
L 281.78416 174.528 
L 281.896166 114.048 
L 283.336024 114.048 
L 283.448031 174.528 
L 283.977223 174.528 
L 284.08923 295.488 
L 284.887888 295.488 
L 284.999895 235.008 
L 286.439752 235.008 
L 286.449492 295.488 
L 286.451115 174.528 
L 286.548513 174.528 
L 287.991616 174.528 
L 288.103623 114.048 
L 288.921761 114.048 
L 289.033768 235.008 
L 289.543481 235.008 
L 289.655488 295.488 
L 291.095345 295.488 
L 291.207352 235.008 
L 291.39403 235.008 
L 291.506037 114.048 
L 292.647209 114.048 
L 292.759216 174.528 
L 293.866299 174.528 
L 293.978306 295.488 
L 294.199073 295.488 
L 294.31108 235.008 
L 295.750938 235.008 
L 295.862945 295.488 
L 296.338568 295.488 
L 296.450575 174.528 
L 297.302802 174.528 
L 297.414809 114.048 
L 298.810837 114.048 
L 298.922844 295.488 
L 300.40653 295.488 
L 300.518537 235.008 
L 301.283107 235.008 
L 301.395113 114.048 
L 301.958395 114.048 
L 302.070402 174.528 
L 303.510259 174.528 
L 303.622266 114.048 
L 303.755376 114.048 
L 303.867383 235.008 
L 305.062123 235.008 
L 305.17413 295.488 
L 306.227645 295.488 
L 306.339652 174.528 
L 306.613987 174.528 
L 306.725994 114.048 
L 308.165852 114.048 
L 308.277859 174.528 
L 308.699914 174.528 
L 308.811921 295.488 
L 309.717716 295.488 
L 309.829723 235.008 
L 311.172183 235.008 
L 311.26958 114.048 
L 311.282566 174.528 
L 312.821444 174.528 
L 312.933451 114.048 
L 313.644452 114.048 
L 313.756459 235.008 
L 314.373309 235.008 
L 314.485316 295.488 
L 315.925173 295.488 
L 316.03718 235.008 
L 316.116721 235.008 
L 316.228728 114.048 
L 317.477037 114.048 
L 317.589044 174.528 
L 318.58899 174.528 
L 318.700997 295.488 
L 319.028901 295.488 
L 319.140908 235.008 
L 320.580766 235.008 
L 320.692773 295.488 
L 321.061259 295.488 
L 321.173266 174.528 
L 322.13263 174.528 
L 322.244637 114.048 
L 323.533528 114.048 
L 323.645535 235.008 
L 323.684494 235.008 
L 323.796501 295.488 
L 325.236358 295.488 
L 325.348365 235.008 
L 326.005797 235.008 
L 326.117804 114.048 
L 326.788223 114.048 
L 326.90023 174.528 
L 328.340087 174.528 
L 328.452094 114.048 
L 328.478066 114.048 
L 328.590073 235.008 
L 329.891951 235.008 
L 330.003958 295.488 
L 330.950336 295.488 
L 331.062342 174.528 
L 331.443815 174.528 
L 331.554199 114.048 
L 331.555822 114.048 
L 332.99568 114.048 
L 333.107687 174.528 
L 333.422605 174.528 
L 333.534612 295.488 
L 334.547544 295.488 
L 334.659551 235.008 
L 335.894874 235.008 
L 336.005257 114.048 
L 336.006881 114.048 
L 336.099408 114.048 
L 336.211415 174.528 
L 337.651272 174.528 
L 337.763279 114.048 
L 338.367143 114.048 
L 338.47915 235.008 
L 339.203137 235.008 
L 339.315144 295.488 
L 340.755001 295.488 
L 340.870254 114.048 
L 342.306865 114.048 
L 342.418872 174.528 
L 343.311681 174.528 
L 343.423688 295.488 
L 343.858729 295.488 
L 343.970736 235.008 
L 345.410594 235.008 
L 345.522601 295.488 
L 345.78395 295.488 
L 345.895957 174.528 
L 346.962458 174.528 
L 347.074465 114.048 
L 348.256219 114.048 
L 348.368226 235.008 
L 348.514322 235.008 
L 348.626329 295.488 
L 350.066186 295.488 
L 350.178193 235.008 
L 350.728488 235.008 
L 350.840495 114.048 
L 351.618051 114.048 
L 351.730058 174.528 
L 353.169915 174.528 
L 353.200757 114.048 
L 353.202381 235.008 
L 353.278675 235.008 
L 354.721779 235.008 
L 354.833786 295.488 
L 355.673026 295.488 
L 355.785033 174.528 
L 356.273643 174.528 
L 356.38565 114.048 
L 357.825508 114.048 
L 357.937515 174.528 
L 358.145295 174.528 
L 358.257302 295.488 
L 359.377372 295.488 
L 359.489379 235.008 
L 360.617565 235.008 
L 360.729572 114.048 
L 360.929236 114.048 
L 361.041243 174.528 
L 362.4811 174.528 
L 362.591484 114.048 
L 362.593107 114.048 
L 363.089834 114.048 
L 363.201841 235.008 
L 364.032965 235.008 
L 364.144971 295.488 
L 365.562103 295.488 
L 365.67411 114.048 
L 367.136693 114.048 
L 367.2487 174.528 
L 368.034372 174.528 
L 368.146379 295.488 
L 368.688557 295.488 
L 368.800564 235.008 
L 370.240422 235.008 
L 370.352428 295.488 
L 370.506641 295.488 
L 370.618648 174.528 
L 371.792286 174.528 
L 371.904293 114.048 
L 372.97891 114.048 
L 373.090917 235.008 
L 373.34415 235.008 
L 373.456157 295.488 
L 374.896014 295.488 
L 375.008021 235.008 
L 375.451179 235.008 
L 375.563186 114.048 
L 376.447879 114.048 
L 376.559885 174.528 
L 377.923448 174.528 
L 377.999743 295.488 
L 378.033832 235.008 
L 379.551607 235.008 
L 379.663614 295.488 
L 380.395717 295.488 
L 380.507724 174.528 
L 381.103471 174.528 
L 381.215478 114.048 
L 382.655335 114.048 
L 382.767342 174.528 
L 382.867986 174.528 
L 382.979993 295.488 
L 384.2072 295.488 
L 384.319207 235.008 
L 385.340255 235.008 
L 385.452262 114.048 
L 385.759064 114.048 
L 385.871071 174.528 
L 387.310928 174.528 
L 387.422935 114.048 
L 387.812525 114.048 
L 387.924531 235.008 
L 388.862792 235.008 
L 388.974799 295.488 
L 390.284794 295.488 
L 390.396801 174.528 
L 390.414657 174.528 
L 390.526664 114.048 
L 391.966521 114.048 
L 392.078528 174.528 
L 392.757063 174.528 
L 392.86907 295.488 
L 393.518385 295.488 
L 393.630392 235.008 
L 395.070249 235.008 
L 395.182256 295.488 
L 395.229332 295.488 
L 395.341339 174.528 
L 396.622114 174.528 
L 396.734121 114.048 
L 397.701601 114.048 
L 397.813608 235.008 
L 398.173978 235.008 
L 398.285985 295.488 
L 398.487273 295.488 
L 398.487273 295.488 
" style="fill:none;stroke:#17e610;stroke-linecap:square;stroke-width:2;"/>
   </g>
   <g id="line2d_14">
    <path clip-path="url(#p3857056e12)" d="M 73.832727 114.048 
L 73.835974 114.048 
L 73.837597 53.568 
L 73.946357 114.048 
L 75.389461 114.048 
L 75.501468 93.888 
L 76.309866 93.888 
L 76.421873 53.568 
L 76.941326 53.568 
L 77.053333 73.728 
L 78.49319 73.728 
L 78.605197 53.568 
L 78.782135 53.568 
L 78.894142 93.888 
L 80.045054 93.888 
L 80.157061 114.048 
L 81.254404 114.048 
L 81.366411 73.728 
L 81.596918 73.728 
L 81.708925 53.568 
L 83.148783 53.568 
L 83.26079 73.728 
L 83.726673 73.728 
L 83.83868 114.048 
L 84.700647 114.048 
L 84.812654 93.888 
L 86.198943 93.888 
L 86.252511 53.568 
L 86.309326 73.728 
L 87.804375 73.728 
L 87.916382 53.568 
L 88.671212 53.568 
L 88.783219 93.888 
L 89.35624 93.888 
L 89.468247 114.048 
L 90.908104 114.048 
L 91.020111 93.888 
L 91.143481 93.888 
L 91.255488 53.568 
L 92.459968 53.568 
L 92.571975 73.728 
L 93.61575 73.728 
L 93.727757 114.048 
L 94.011832 114.048 
L 94.123839 93.888 
L 95.563697 93.888 
L 95.675704 114.048 
L 96.088019 114.048 
L 96.200026 73.728 
L 97.115561 73.728 
L 97.227568 53.568 
L 98.560288 53.568 
L 98.672295 114.048 
L 100.219289 114.048 
L 100.331296 93.888 
L 101.032557 93.888 
L 101.144564 53.568 
L 101.771154 53.568 
L 101.883161 73.728 
L 103.323018 73.728 
L 103.435025 53.568 
L 103.504826 53.568 
L 103.616833 93.888 
L 104.874882 93.888 
L 104.986889 114.048 
L 105.977095 114.048 
L 106.089102 73.728 
L 106.426746 73.728 
L 106.538753 53.568 
L 107.978611 53.568 
L 108.090617 73.728 
L 108.449364 73.728 
L 108.561371 114.048 
L 109.530475 114.048 
L 109.642482 93.888 
L 110.921633 93.888 
L 111.03364 53.568 
L 111.082339 53.568 
L 111.194346 73.728 
L 112.634203 73.728 
L 112.74621 53.568 
L 113.393903 53.568 
L 113.505909 93.888 
L 114.186068 93.888 
L 114.298074 114.048 
L 115.737932 114.048 
L 115.849939 93.888 
L 115.866172 93.888 
L 115.978179 53.568 
L 117.289796 53.568 
L 117.401803 73.728 
L 118.338441 73.728 
L 118.450448 114.048 
L 118.84166 114.048 
L 118.953667 93.888 
L 120.393525 93.888 
L 120.505531 114.048 
L 120.81071 114.048 
L 120.922717 73.728 
L 121.945389 73.728 
L 122.057396 53.568 
L 123.282979 53.568 
L 123.394986 93.888 
L 123.497253 93.888 
L 123.60926 114.048 
L 125.049117 114.048 
L 125.161124 93.888 
L 125.755248 93.888 
L 125.867255 53.568 
L 126.600982 53.568 
L 126.712988 73.728 
L 128.152846 73.728 
L 128.227517 53.568 
L 128.22914 93.888 
L 128.261606 93.888 
L 129.70471 93.888 
L 129.816717 114.048 
L 130.699786 114.048 
L 130.811793 73.728 
L 131.256574 73.728 
L 131.368581 53.568 
L 132.808438 53.568 
L 132.920445 73.728 
L 133.172055 73.728 
L 133.284062 114.048 
L 134.360303 114.048 
L 134.47231 93.888 
L 135.644324 93.888 
L 135.756331 53.568 
L 135.912167 53.568 
L 136.024174 73.728 
L 137.464031 73.728 
L 137.576038 53.568 
L 138.116593 53.568 
L 138.2286 93.888 
L 139.015895 93.888 
L 139.127902 114.048 
L 140.56776 114.048 
L 140.683013 53.568 
L 142.119624 53.568 
L 142.231631 73.728 
L 143.061132 73.728 
L 143.173138 114.048 
L 143.671488 114.048 
L 143.783495 93.888 
L 145.223352 93.888 
L 145.335359 114.048 
L 145.533401 114.048 
L 145.645408 73.728 
L 146.775217 73.728 
L 146.887224 53.568 
L 148.00567 53.568 
L 148.117677 93.888 
L 148.327081 93.888 
L 148.439088 114.048 
L 149.878945 114.048 
L 149.990952 93.888 
L 150.477939 93.888 
L 150.589946 53.568 
L 151.430809 53.568 
L 151.542816 73.728 
L 152.950208 73.728 
L 152.982674 114.048 
L 153.060592 93.888 
L 154.534538 93.888 
L 154.646545 114.048 
L 155.422477 114.048 
L 155.534484 73.728 
L 156.086402 73.728 
L 156.198409 53.568 
L 157.638266 53.568 
L 157.750273 73.728 
L 157.894746 73.728 
L 158.006753 114.048 
L 159.190131 114.048 
L 159.302138 93.888 
L 160.367015 93.888 
L 160.479022 53.568 
L 160.741995 53.568 
L 160.854002 73.728 
L 162.293859 73.728 
L 162.405866 53.568 
L 162.839284 53.568 
L 162.951291 93.888 
L 163.845723 93.888 
L 163.95773 114.048 
L 165.311553 114.048 
L 165.42356 53.568 
L 166.949452 53.568 
L 167.061459 73.728 
L 167.783822 73.728 
L 167.895829 114.048 
L 168.501316 114.048 
L 168.613323 93.888 
L 170.05318 93.888 
L 170.165187 114.048 
L 170.256092 114.048 
L 170.368098 73.728 
L 171.605045 73.728 
L 171.717052 53.568 
L 172.728361 53.568 
L 172.840368 93.888 
L 173.156909 93.888 
L 173.268916 114.048 
L 174.708773 114.048 
L 174.82078 93.888 
L 175.20063 93.888 
L 175.312637 53.568 
L 176.260637 53.568 
L 176.372644 73.728 
L 177.672899 73.728 
L 177.784906 114.048 
L 177.812502 114.048 
L 177.924509 93.888 
L 179.364366 93.888 
L 179.476373 114.048 
L 180.145168 114.048 
L 180.257175 73.728 
L 180.91623 73.728 
L 181.028237 53.568 
L 182.468094 53.568 
L 182.580101 73.728 
L 182.617437 73.728 
L 182.729444 114.048 
L 184.019959 114.048 
L 184.131966 93.888 
L 185.089706 93.888 
L 185.201713 53.568 
L 185.571823 53.568 
L 185.68383 73.728 
L 187.123687 73.728 
L 187.235694 53.568 
L 187.561975 53.568 
L 187.673982 93.888 
L 188.675551 93.888 
L 188.787558 114.048 
L 190.034244 114.048 
L 190.146251 73.728 
L 190.227416 73.728 
L 190.339423 53.568 
L 191.77928 53.568 
L 191.891287 73.728 
L 192.506513 73.728 
L 192.61852 114.048 
L 193.331144 114.048 
L 193.443151 93.888 
L 194.883008 93.888 
L 194.978782 114.048 
L 194.980406 73.728 
L 194.991769 73.728 
L 196.434873 73.728 
L 196.54688 53.568 
L 197.451051 53.568 
L 197.563058 93.888 
L 197.986737 93.888 
L 198.098744 114.048 
L 199.538601 114.048 
L 199.650608 93.888 
L 199.923321 93.888 
L 200.035327 53.568 
L 201.090465 53.568 
L 201.202472 73.728 
L 202.39559 73.728 
L 202.507597 114.048 
L 202.64233 114.048 
L 202.754336 93.888 
L 204.194194 93.888 
L 204.306201 114.048 
L 204.867859 114.048 
L 204.979866 73.728 
L 205.746058 73.728 
L 205.858065 53.568 
L 207.297922 53.568 
L 207.413176 114.048 
L 208.849787 114.048 
L 208.961793 93.888 
L 209.812397 93.888 
L 209.924404 53.568 
L 210.401651 53.568 
L 210.513658 73.728 
L 211.953515 73.728 
L 212.065522 53.568 
L 212.284666 53.568 
L 212.396673 93.888 
L 213.505379 93.888 
L 213.617386 114.048 
L 214.756935 114.048 
L 214.868942 73.728 
L 215.057244 73.728 
L 215.16925 53.568 
L 216.609108 53.568 
L 216.721115 73.728 
L 217.229204 73.728 
L 217.341211 114.048 
L 218.160972 114.048 
L 218.272979 93.888 
L 219.701473 93.888 
L 219.712836 53.568 
L 219.811857 73.728 
L 221.264701 73.728 
L 221.376707 53.568 
L 222.173742 53.568 
L 222.285749 93.888 
L 222.816565 93.888 
L 222.928572 114.048 
L 224.368429 114.048 
L 224.480436 93.888 
L 224.646011 93.888 
L 224.758018 53.568 
L 225.920293 53.568 
L 226.0323 73.728 
L 227.11828 73.728 
L 227.230287 114.048 
L 227.472157 114.048 
L 227.584164 93.888 
L 229.024022 93.888 
L 229.136029 114.048 
L 229.59055 114.048 
L 229.702557 73.728 
L 230.575886 73.728 
L 230.687893 53.568 
L 232.062819 53.568 
L 232.174826 114.048 
L 233.679614 114.048 
L 233.791621 93.888 
L 234.535088 93.888 
L 234.647095 53.568 
L 235.231479 53.568 
L 235.343486 73.728 
L 236.783343 73.728 
L 236.89535 53.568 
L 237.007357 53.568 
L 237.119364 93.888 
L 238.335207 93.888 
L 238.447214 114.048 
L 239.479626 114.048 
L 239.591633 73.728 
L 239.887071 73.728 
L 239.999078 53.568 
L 241.438936 53.568 
L 241.550943 73.728 
L 241.951895 73.728 
L 242.063902 114.048 
L 242.9908 114.048 
L 243.102807 93.888 
L 244.424164 93.888 
L 244.536171 53.568 
L 244.542664 53.568 
L 244.654671 73.728 
L 246.094528 73.728 
L 246.206535 53.568 
L 246.896433 53.568 
L 247.00844 93.888 
L 247.646393 93.888 
L 247.7584 114.048 
L 249.198257 114.048 
L 249.310264 93.888 
L 249.368702 93.888 
L 249.480709 53.568 
L 250.750121 53.568 
L 250.862128 73.728 
L 251.840971 73.728 
L 251.952978 114.048 
L 252.301985 114.048 
L 252.413992 93.888 
L 253.85385 93.888 
L 253.965857 114.048 
L 254.31324 114.048 
L 254.425247 73.728 
L 255.405714 73.728 
L 255.517721 53.568 
L 256.78551 53.568 
L 256.897516 93.888 
L 256.957578 93.888 
L 257.069585 114.048 
L 258.509442 114.048 
L 258.621449 93.888 
L 259.257779 93.888 
L 259.369786 53.568 
L 260.061307 53.568 
L 260.173314 73.728 
L 261.613171 73.728 
L 261.725178 53.568 
L 261.730048 53.568 
L 261.842055 93.888 
L 263.165035 93.888 
L 263.277042 114.048 
L 264.202317 114.048 
L 264.314324 73.728 
L 264.716899 73.728 
L 264.828906 53.568 
L 266.268764 53.568 
L 266.380771 73.728 
L 266.674586 73.728 
L 266.786593 114.048 
L 267.820628 114.048 
L 267.932635 93.888 
L 269.146855 93.888 
L 269.258862 53.568 
L 269.372492 53.568 
L 269.484499 73.728 
L 270.924356 73.728 
L 271.036363 53.568 
L 271.619124 53.568 
L 271.731131 93.888 
L 272.476221 93.888 
L 272.588228 114.048 
L 274.028085 114.048 
L 274.143338 53.568 
L 275.579949 53.568 
L 275.691956 73.728 
L 276.563662 73.728 
L 276.675669 114.048 
L 277.131813 114.048 
L 277.24382 93.888 
L 278.683678 93.888 
L 278.795685 114.048 
L 279.035931 114.048 
L 279.147938 73.728 
L 280.235542 73.728 
L 280.347549 53.568 
L 281.5082 53.568 
L 281.620207 93.888 
L 281.787406 93.888 
L 281.899413 114.048 
L 283.33927 114.048 
L 283.451277 93.888 
L 283.980469 93.888 
L 284.092476 53.568 
L 284.891135 53.568 
L 285.003142 73.728 
L 286.442999 73.728 
L 286.452739 53.568 
L 286.454362 93.888 
L 286.551759 93.888 
L 287.994863 93.888 
L 288.10687 114.048 
L 288.925008 114.048 
L 289.037015 73.728 
L 289.546727 73.728 
L 289.658734 53.568 
L 291.098592 53.568 
L 291.210599 73.728 
L 291.397277 73.728 
L 291.509284 114.048 
L 292.650456 114.048 
L 292.762463 93.888 
L 293.869546 93.888 
L 293.981553 53.568 
L 294.20232 53.568 
L 294.314327 73.728 
L 295.754184 73.728 
L 295.866191 53.568 
L 296.341815 53.568 
L 296.453822 93.888 
L 297.306049 93.888 
L 297.418055 114.048 
L 298.814084 114.048 
L 298.926091 53.568 
L 300.409777 53.568 
L 300.521784 73.728 
L 301.286353 73.728 
L 301.39836 114.048 
L 301.961641 114.048 
L 302.073648 93.888 
L 303.513506 93.888 
L 303.625512 114.048 
L 303.758622 114.048 
L 303.870629 73.728 
L 305.06537 73.728 
L 305.177377 53.568 
L 306.230891 53.568 
L 306.342898 93.888 
L 306.617234 93.888 
L 306.729241 114.048 
L 308.169098 114.048 
L 308.281105 93.888 
L 308.70316 93.888 
L 308.815167 53.568 
L 309.720963 53.568 
L 309.832969 73.728 
L 311.175429 73.728 
L 311.272827 114.048 
L 311.285813 93.888 
L 312.824691 93.888 
L 312.936698 114.048 
L 313.647699 114.048 
L 313.759705 73.728 
L 314.376555 73.728 
L 314.488562 53.568 
L 315.92842 53.568 
L 316.040426 73.728 
L 316.119968 73.728 
L 316.231975 114.048 
L 317.480284 114.048 
L 317.592291 93.888 
L 318.592237 93.888 
L 318.704244 53.568 
L 319.032148 53.568 
L 319.144155 73.728 
L 320.584012 73.728 
L 320.696019 53.568 
L 321.064506 53.568 
L 321.176513 93.888 
L 322.135876 93.888 
L 322.247883 114.048 
L 323.536775 114.048 
L 323.648782 73.728 
L 323.687741 73.728 
L 323.799748 53.568 
L 325.239605 53.568 
L 325.351612 73.728 
L 326.009044 73.728 
L 326.121051 114.048 
L 326.791469 114.048 
L 326.903476 93.888 
L 328.343333 93.888 
L 328.45534 114.048 
L 328.481313 114.048 
L 328.59332 73.728 
L 329.895198 73.728 
L 330.007205 53.568 
L 330.953582 53.568 
L 331.065589 93.888 
L 331.447062 93.888 
L 331.559069 114.048 
L 332.998926 114.048 
L 333.110933 93.888 
L 333.425851 93.888 
L 333.537858 53.568 
L 334.55079 53.568 
L 334.662797 73.728 
L 335.89812 73.728 
L 336.010127 114.048 
L 336.102655 114.048 
L 336.214662 93.888 
L 337.654519 93.888 
L 337.766526 114.048 
L 338.370389 114.048 
L 338.482396 73.728 
L 339.206383 73.728 
L 339.31839 53.568 
L 340.758247 53.568 
L 340.873501 114.048 
L 342.310112 114.048 
L 342.422119 93.888 
L 343.314928 93.888 
L 343.426934 53.568 
L 343.861976 53.568 
L 343.973983 73.728 
L 345.41384 73.728 
L 345.525847 53.568 
L 345.787197 53.568 
L 345.899204 93.888 
L 346.965704 93.888 
L 347.077711 114.048 
L 348.259466 114.048 
L 348.371473 73.728 
L 348.517569 73.728 
L 348.629576 53.568 
L 350.069433 53.568 
L 350.18144 73.728 
L 350.731735 73.728 
L 350.843742 114.048 
L 351.621297 114.048 
L 351.733304 93.888 
L 353.173161 93.888 
L 353.204004 114.048 
L 353.205627 73.728 
L 353.281922 73.728 
L 354.725026 73.728 
L 354.837033 53.568 
L 355.676273 53.568 
L 355.78828 93.888 
L 356.27689 93.888 
L 356.388897 114.048 
L 357.828754 114.048 
L 357.940761 93.888 
L 358.148542 93.888 
L 358.260549 53.568 
L 359.380618 53.568 
L 359.492625 73.728 
L 360.620811 73.728 
L 360.732818 114.048 
L 360.932483 114.048 
L 361.04449 93.888 
L 362.484347 93.888 
L 362.596354 114.048 
L 363.09308 114.048 
L 363.205087 73.728 
L 364.036211 73.728 
L 364.148218 53.568 
L 365.565349 53.568 
L 365.677356 114.048 
L 367.13994 114.048 
L 367.251947 93.888 
L 368.037618 93.888 
L 368.149625 53.568 
L 368.691804 53.568 
L 368.803811 73.728 
L 370.243668 73.728 
L 370.355675 53.568 
L 370.509887 53.568 
L 370.621894 93.888 
L 371.795532 93.888 
L 371.907539 114.048 
L 372.982157 114.048 
L 373.094164 73.728 
L 373.347397 73.728 
L 373.459404 53.568 
L 374.899261 53.568 
L 375.011268 73.728 
L 375.454426 73.728 
L 375.566433 114.048 
L 376.451125 114.048 
L 376.563132 93.888 
L 377.926695 93.888 
L 378.002989 53.568 
L 378.037078 73.728 
L 379.554854 73.728 
L 379.666861 53.568 
L 380.398964 53.568 
L 380.510971 93.888 
L 381.106718 93.888 
L 381.218725 114.048 
L 382.658582 114.048 
L 382.770589 93.888 
L 382.871233 93.888 
L 382.98324 53.568 
L 384.210446 53.568 
L 384.322453 73.728 
L 385.343502 73.728 
L 385.455509 114.048 
L 385.762311 114.048 
L 385.874318 93.888 
L 387.314175 93.888 
L 387.426182 114.048 
L 387.815771 114.048 
L 387.927778 73.728 
L 388.866039 73.728 
L 388.978046 53.568 
L 390.28804 53.568 
L 390.400047 93.888 
L 390.417903 93.888 
L 390.52991 114.048 
L 391.969768 114.048 
L 392.081774 93.888 
L 392.760309 93.888 
L 392.872316 53.568 
L 393.521632 53.568 
L 393.633639 73.728 
L 395.073496 73.728 
L 395.185503 53.568 
L 395.232578 53.568 
L 395.344585 93.888 
L 396.62536 93.888 
L 396.737367 114.048 
L 397.704847 114.048 
L 397.816854 73.728 
L 398.177225 73.728 
L 398.289231 53.568 
L 398.487273 53.568 
L 398.487273 53.568 
" style="fill:none;stroke:#17e610;stroke-linecap:square;stroke-width:2;"/>
   </g>
   <g id="patch_3">
    <path d="M 57.6 307.584 
L 57.6 41.472 
" style="fill:none;stroke:#000000;stroke-linecap:square;stroke-linejoin:miter;stroke-width:0.8;"/>
   </g>
   <g id="patch_4">
    <path d="M 414.72 307.584 
L 414.72 41.472 
" style="fill:none;stroke:#000000;stroke-linecap:square;stroke-linejoin:miter;stroke-width:0.8;"/>
   </g>
   <g id="patch_5">
    <path d="M 57.6 307.584 
L 414.72 307.584 
" style="fill:none;stroke:#000000;stroke-linecap:square;stroke-linejoin:miter;stroke-width:0.8;"/>
   </g>
   <g id="patch_6">
    <path d="M 57.6 41.472 
L 414.72 41.472 
" style="fill:none;stroke:#000000;stroke-linecap:square;stroke-linejoin:miter;stroke-width:0.8;"/>
   </g>
  </g>
 </g>
 <defs>
  <clipPath id="p3857056e12">
   <rect height="266.112" width="357.12" x="57.6" y="41.472"/>
  </clipPath>
 </defs>
</svg>
