<?xml version="1.0" encoding="utf-8" standalone="no"?>
<!DOCTYPE svg PUBLIC "-//W3C//DTD SVG 1.1//EN"
  "http://www.w3.org/Graphics/SVG/1.1/DTD/svg11.dtd">
<!-- Created with matplotlib (https://matplotlib.org/) -->
<svg height="345.6pt" version="1.1" viewBox="0 0 460.8 345.6" width="460.8pt" xmlns="http://www.w3.org/2000/svg" xmlns:xlink="http://www.w3.org/1999/xlink">
 <metadata>
  <rdf:RDF xmlns:cc="http://creativecommons.org/ns#" xmlns:dc="http://purl.org/dc/elements/1.1/" xmlns:rdf="http://www.w3.org/1999/02/22-rdf-syntax-ns#">
   <cc:Work>
    <dc:type rdf:resource="http://purl.org/dc/dcmitype/StillImage"/>
    <dc:date>2022-06-15T08:09:54.772723</dc:date>
    <dc:format>image/svg+xml</dc:format>
    <dc:creator>
     <cc:Agent>
      <dc:title>Matplotlib v3.3.4, https://matplotlib.org/</dc:title>
     </cc:Agent>
    </dc:creator>
   </cc:Work>
  </rdf:RDF>
 </metadata>
 <defs>
  <style type="text/css">*{stroke-linecap:butt;stroke-linejoin:round;}</style>
 </defs>
 <g id="figure_1">
  <g id="patch_1">
   <path d="M 0 345.6 
L 460.8 345.6 
L 460.8 0 
L 0 0 
z
" style="fill:none;"/>
  </g>
  <g id="axes_1">
   <g id="patch_2">
    <path d="M 57.6 136.512 
L 414.72 136.512 
L 414.72 41.472 
L 57.6 41.472 
z
" style="fill:none;"/>
   </g>
   <g id="matplotlib.axis_1">
    <g id="xtick_1">
     <g id="line2d_1">
      <defs>
       <path d="M 0 0 
L 0 3.5 
" id="m100fb5a4bf" style="stroke:#000000;stroke-width:0.8;"/>
      </defs>
      <g>
       <use style="stroke:#000000;stroke-width:0.8;" x="73.507422" xlink:href="#m100fb5a4bf" y="136.512"/>
      </g>
     </g>
     <g id="text_1">
      <!-- 0.0 -->
      <g transform="translate(60.784922 155.6695)scale(0.16 -0.16)">
       <defs>
        <path d="M 31.78125 66.40625 
Q 24.171875 66.40625 20.328125 58.90625 
Q 16.5 51.421875 16.5 36.375 
Q 16.5 21.390625 20.328125 13.890625 
Q 24.171875 6.390625 31.78125 6.390625 
Q 39.453125 6.390625 43.28125 13.890625 
Q 47.125 21.390625 47.125 36.375 
Q 47.125 51.421875 43.28125 58.90625 
Q 39.453125 66.40625 31.78125 66.40625 
z
M 31.78125 74.21875 
Q 44.046875 74.21875 50.515625 64.515625 
Q 56.984375 54.828125 56.984375 36.375 
Q 56.984375 17.96875 50.515625 8.265625 
Q 44.046875 -1.421875 31.78125 -1.421875 
Q 19.53125 -1.421875 13.0625 8.265625 
Q 6.59375 17.96875 6.59375 36.375 
Q 6.59375 54.828125 13.0625 64.515625 
Q 19.53125 74.21875 31.78125 74.21875 
z
" id="DejaVuSans-48"/>
        <path d="M 10.6875 12.40625 
L 21 12.40625 
L 21 0 
L 10.6875 0 
z
" id="DejaVuSans-46"/>
       </defs>
       <use xlink:href="#DejaVuSans-48"/>
       <use x="63.623047" xlink:href="#DejaVuSans-46"/>
       <use x="95.410156" xlink:href="#DejaVuSans-48"/>
      </g>
     </g>
    </g>
    <g id="xtick_2">
     <g id="line2d_2">
      <g>
       <use style="stroke:#000000;stroke-width:0.8;" x="138.568453" xlink:href="#m100fb5a4bf" y="136.512"/>
      </g>
     </g>
     <g id="text_2">
      <!-- 0.2 -->
      <g transform="translate(125.845953 155.6695)scale(0.16 -0.16)">
       <defs>
        <path d="M 19.1875 8.296875 
L 53.609375 8.296875 
L 53.609375 0 
L 7.328125 0 
L 7.328125 8.296875 
Q 12.9375 14.109375 22.625 23.890625 
Q 32.328125 33.6875 34.8125 36.53125 
Q 39.546875 41.84375 41.421875 45.53125 
Q 43.3125 49.21875 43.3125 52.78125 
Q 43.3125 58.59375 39.234375 62.25 
Q 35.15625 65.921875 28.609375 65.921875 
Q 23.96875 65.921875 18.8125 64.3125 
Q 13.671875 62.703125 7.8125 59.421875 
L 7.8125 69.390625 
Q 13.765625 71.78125 18.9375 73 
Q 24.125 74.21875 28.421875 74.21875 
Q 39.75 74.21875 46.484375 68.546875 
Q 53.21875 62.890625 53.21875 53.421875 
Q 53.21875 48.921875 51.53125 44.890625 
Q 49.859375 40.875 45.40625 35.40625 
Q 44.1875 33.984375 37.640625 27.21875 
Q 31.109375 20.453125 19.1875 8.296875 
z
" id="DejaVuSans-50"/>
       </defs>
       <use xlink:href="#DejaVuSans-48"/>
       <use x="63.623047" xlink:href="#DejaVuSans-46"/>
       <use x="95.410156" xlink:href="#DejaVuSans-50"/>
      </g>
     </g>
    </g>
    <g id="xtick_3">
     <g id="line2d_3">
      <g>
       <use style="stroke:#000000;stroke-width:0.8;" x="203.629484" xlink:href="#m100fb5a4bf" y="136.512"/>
      </g>
     </g>
     <g id="text_3">
      <!-- 0.4 -->
      <g transform="translate(190.906984 155.6695)scale(0.16 -0.16)">
       <defs>
        <path d="M 37.796875 64.3125 
L 12.890625 25.390625 
L 37.796875 25.390625 
z
M 35.203125 72.90625 
L 47.609375 72.90625 
L 47.609375 25.390625 
L 58.015625 25.390625 
L 58.015625 17.1875 
L 47.609375 17.1875 
L 47.609375 0 
L 37.796875 0 
L 37.796875 17.1875 
L 4.890625 17.1875 
L 4.890625 26.703125 
z
" id="DejaVuSans-52"/>
       </defs>
       <use xlink:href="#DejaVuSans-48"/>
       <use x="63.623047" xlink:href="#DejaVuSans-46"/>
       <use x="95.410156" xlink:href="#DejaVuSans-52"/>
      </g>
     </g>
    </g>
    <g id="xtick_4">
     <g id="line2d_4">
      <g>
       <use style="stroke:#000000;stroke-width:0.8;" x="268.690516" xlink:href="#m100fb5a4bf" y="136.512"/>
      </g>
     </g>
     <g id="text_4">
      <!-- 0.6 -->
      <g transform="translate(255.968016 155.6695)scale(0.16 -0.16)">
       <defs>
        <path d="M 33.015625 40.375 
Q 26.375 40.375 22.484375 35.828125 
Q 18.609375 31.296875 18.609375 23.390625 
Q 18.609375 15.53125 22.484375 10.953125 
Q 26.375 6.390625 33.015625 6.390625 
Q 39.65625 6.390625 43.53125 10.953125 
Q 47.40625 15.53125 47.40625 23.390625 
Q 47.40625 31.296875 43.53125 35.828125 
Q 39.65625 40.375 33.015625 40.375 
z
M 52.59375 71.296875 
L 52.59375 62.3125 
Q 48.875 64.0625 45.09375 64.984375 
Q 41.3125 65.921875 37.59375 65.921875 
Q 27.828125 65.921875 22.671875 59.328125 
Q 17.53125 52.734375 16.796875 39.40625 
Q 19.671875 43.65625 24.015625 45.921875 
Q 28.375 48.1875 33.59375 48.1875 
Q 44.578125 48.1875 50.953125 41.515625 
Q 57.328125 34.859375 57.328125 23.390625 
Q 57.328125 12.15625 50.6875 5.359375 
Q 44.046875 -1.421875 33.015625 -1.421875 
Q 20.359375 -1.421875 13.671875 8.265625 
Q 6.984375 17.96875 6.984375 36.375 
Q 6.984375 53.65625 15.1875 63.9375 
Q 23.390625 74.21875 37.203125 74.21875 
Q 40.921875 74.21875 44.703125 73.484375 
Q 48.484375 72.75 52.59375 71.296875 
z
" id="DejaVuSans-54"/>
       </defs>
       <use xlink:href="#DejaVuSans-48"/>
       <use x="63.623047" xlink:href="#DejaVuSans-46"/>
       <use x="95.410156" xlink:href="#DejaVuSans-54"/>
      </g>
     </g>
    </g>
    <g id="xtick_5">
     <g id="line2d_5">
      <g>
       <use style="stroke:#000000;stroke-width:0.8;" x="333.751547" xlink:href="#m100fb5a4bf" y="136.512"/>
      </g>
     </g>
     <g id="text_5">
      <!-- 0.8 -->
      <g transform="translate(321.029047 155.6695)scale(0.16 -0.16)">
       <defs>
        <path d="M 31.78125 34.625 
Q 24.75 34.625 20.71875 30.859375 
Q 16.703125 27.09375 16.703125 20.515625 
Q 16.703125 13.921875 20.71875 10.15625 
Q 24.75 6.390625 31.78125 6.390625 
Q 38.8125 6.390625 42.859375 10.171875 
Q 46.921875 13.96875 46.921875 20.515625 
Q 46.921875 27.09375 42.890625 30.859375 
Q 38.875 34.625 31.78125 34.625 
z
M 21.921875 38.8125 
Q 15.578125 40.375 12.03125 44.71875 
Q 8.5 49.078125 8.5 55.328125 
Q 8.5 64.0625 14.71875 69.140625 
Q 20.953125 74.21875 31.78125 74.21875 
Q 42.671875 74.21875 48.875 69.140625 
Q 55.078125 64.0625 55.078125 55.328125 
Q 55.078125 49.078125 51.53125 44.71875 
Q 48 40.375 41.703125 38.8125 
Q 48.828125 37.15625 52.796875 32.3125 
Q 56.78125 27.484375 56.78125 20.515625 
Q 56.78125 9.90625 50.3125 4.234375 
Q 43.84375 -1.421875 31.78125 -1.421875 
Q 19.734375 -1.421875 13.25 4.234375 
Q 6.78125 9.90625 6.78125 20.515625 
Q 6.78125 27.484375 10.78125 32.3125 
Q 14.796875 37.15625 21.921875 38.8125 
z
M 18.3125 54.390625 
Q 18.3125 48.734375 21.84375 45.5625 
Q 25.390625 42.390625 31.78125 42.390625 
Q 38.140625 42.390625 41.71875 45.5625 
Q 45.3125 48.734375 45.3125 54.390625 
Q 45.3125 60.0625 41.71875 63.234375 
Q 38.140625 66.40625 31.78125 66.40625 
Q 25.390625 66.40625 21.84375 63.234375 
Q 18.3125 60.0625 18.3125 54.390625 
z
" id="DejaVuSans-56"/>
       </defs>
       <use xlink:href="#DejaVuSans-48"/>
       <use x="63.623047" xlink:href="#DejaVuSans-46"/>
       <use x="95.410156" xlink:href="#DejaVuSans-56"/>
      </g>
     </g>
    </g>
    <g id="xtick_6">
     <g id="line2d_6">
      <g>
       <use style="stroke:#000000;stroke-width:0.8;" x="398.812578" xlink:href="#m100fb5a4bf" y="136.512"/>
      </g>
     </g>
     <g id="text_6">
      <!-- 1.0 -->
      <g transform="translate(386.090078 155.6695)scale(0.16 -0.16)">
       <defs>
        <path d="M 12.40625 8.296875 
L 28.515625 8.296875 
L 28.515625 63.921875 
L 10.984375 60.40625 
L 10.984375 69.390625 
L 28.421875 72.90625 
L 38.28125 72.90625 
L 38.28125 8.296875 
L 54.390625 8.296875 
L 54.390625 0 
L 12.40625 0 
z
" id="DejaVuSans-49"/>
       </defs>
       <use xlink:href="#DejaVuSans-49"/>
       <use x="63.623047" xlink:href="#DejaVuSans-46"/>
       <use x="95.410156" xlink:href="#DejaVuSans-48"/>
      </g>
     </g>
    </g>
    <g id="text_7">
     <!-- 1e−9 -->
     <g transform="translate(371.1075 174.1545)scale(0.16 -0.16)">
      <defs>
       <path d="M 56.203125 29.59375 
L 56.203125 25.203125 
L 14.890625 25.203125 
Q 15.484375 15.921875 20.484375 11.0625 
Q 25.484375 6.203125 34.421875 6.203125 
Q 39.59375 6.203125 44.453125 7.46875 
Q 49.3125 8.734375 54.109375 11.28125 
L 54.109375 2.78125 
Q 49.265625 0.734375 44.1875 -0.34375 
Q 39.109375 -1.421875 33.890625 -1.421875 
Q 20.796875 -1.421875 13.15625 6.1875 
Q 5.515625 13.8125 5.515625 26.8125 
Q 5.515625 40.234375 12.765625 48.109375 
Q 20.015625 56 32.328125 56 
Q 43.359375 56 49.78125 48.890625 
Q 56.203125 41.796875 56.203125 29.59375 
z
M 47.21875 32.234375 
Q 47.125 39.59375 43.09375 43.984375 
Q 39.0625 48.390625 32.421875 48.390625 
Q 24.90625 48.390625 20.390625 44.140625 
Q 15.875 39.890625 15.1875 32.171875 
z
" id="DejaVuSans-101"/>
       <path d="M 10.59375 35.5 
L 73.1875 35.5 
L 73.1875 27.203125 
L 10.59375 27.203125 
z
" id="DejaVuSans-8722"/>
       <path d="M 10.984375 1.515625 
L 10.984375 10.5 
Q 14.703125 8.734375 18.5 7.8125 
Q 22.3125 6.890625 25.984375 6.890625 
Q 35.75 6.890625 40.890625 13.453125 
Q 46.046875 20.015625 46.78125 33.40625 
Q 43.953125 29.203125 39.59375 26.953125 
Q 35.25 24.703125 29.984375 24.703125 
Q 19.046875 24.703125 12.671875 31.3125 
Q 6.296875 37.9375 6.296875 49.421875 
Q 6.296875 60.640625 12.9375 67.421875 
Q 19.578125 74.21875 30.609375 74.21875 
Q 43.265625 74.21875 49.921875 64.515625 
Q 56.59375 54.828125 56.59375 36.375 
Q 56.59375 19.140625 48.40625 8.859375 
Q 40.234375 -1.421875 26.421875 -1.421875 
Q 22.703125 -1.421875 18.890625 -0.6875 
Q 15.09375 0.046875 10.984375 1.515625 
z
M 30.609375 32.421875 
Q 37.25 32.421875 41.125 36.953125 
Q 45.015625 41.5 45.015625 49.421875 
Q 45.015625 57.28125 41.125 61.84375 
Q 37.25 66.40625 30.609375 66.40625 
Q 23.96875 66.40625 20.09375 61.84375 
Q 16.21875 57.28125 16.21875 49.421875 
Q 16.21875 41.5 20.09375 36.953125 
Q 23.96875 32.421875 30.609375 32.421875 
z
" id="DejaVuSans-57"/>
      </defs>
      <use xlink:href="#DejaVuSans-49"/>
      <use x="63.623047" xlink:href="#DejaVuSans-101"/>
      <use x="125.146484" xlink:href="#DejaVuSans-8722"/>
      <use x="208.935547" xlink:href="#DejaVuSans-57"/>
     </g>
    </g>
   </g>
   <g id="matplotlib.axis_2">
    <g id="ytick_1">
     <g id="line2d_7">
      <defs>
       <path d="M 0 0 
L -3.5 0 
" id="m2a377433d4" style="stroke:#000000;stroke-width:0.8;"/>
      </defs>
      <g>
       <use style="stroke:#000000;stroke-width:0.8;" x="57.6" xlink:href="#m2a377433d4" y="134.718161"/>
      </g>
     </g>
     <g id="text_8">
      <!-- −0.005 -->
      <g transform="translate(-8.6125 140.796911)scale(0.16 -0.16)">
       <defs>
        <path d="M 10.796875 72.90625 
L 49.515625 72.90625 
L 49.515625 64.59375 
L 19.828125 64.59375 
L 19.828125 46.734375 
Q 21.96875 47.46875 24.109375 47.828125 
Q 26.265625 48.1875 28.421875 48.1875 
Q 40.625 48.1875 47.75 41.5 
Q 54.890625 34.8125 54.890625 23.390625 
Q 54.890625 11.625 47.5625 5.09375 
Q 40.234375 -1.421875 26.90625 -1.421875 
Q 22.3125 -1.421875 17.546875 -0.640625 
Q 12.796875 0.140625 7.71875 1.703125 
L 7.71875 11.625 
Q 12.109375 9.234375 16.796875 8.0625 
Q 21.484375 6.890625 26.703125 6.890625 
Q 35.15625 6.890625 40.078125 11.328125 
Q 45.015625 15.765625 45.015625 23.390625 
Q 45.015625 31 40.078125 35.4375 
Q 35.15625 39.890625 26.703125 39.890625 
Q 22.75 39.890625 18.8125 39.015625 
Q 14.890625 38.140625 10.796875 36.28125 
z
" id="DejaVuSans-53"/>
       </defs>
       <use xlink:href="#DejaVuSans-8722"/>
       <use x="83.789062" xlink:href="#DejaVuSans-48"/>
       <use x="147.412109" xlink:href="#DejaVuSans-46"/>
       <use x="179.199219" xlink:href="#DejaVuSans-48"/>
       <use x="242.822266" xlink:href="#DejaVuSans-48"/>
       <use x="306.445312" xlink:href="#DejaVuSans-53"/>
      </g>
     </g>
    </g>
    <g id="ytick_2">
     <g id="line2d_8">
      <g>
       <use style="stroke:#000000;stroke-width:0.8;" x="57.6" xlink:href="#m2a377433d4" y="94.29752"/>
      </g>
     </g>
     <g id="text_9">
      <!-- 0.000 -->
      <g transform="translate(4.795 100.37627)scale(0.16 -0.16)">
       <use xlink:href="#DejaVuSans-48"/>
       <use x="63.623047" xlink:href="#DejaVuSans-46"/>
       <use x="95.410156" xlink:href="#DejaVuSans-48"/>
       <use x="159.033203" xlink:href="#DejaVuSans-48"/>
       <use x="222.65625" xlink:href="#DejaVuSans-48"/>
      </g>
     </g>
    </g>
    <g id="ytick_3">
     <g id="line2d_9">
      <g>
       <use style="stroke:#000000;stroke-width:0.8;" x="57.6" xlink:href="#m2a377433d4" y="53.87688"/>
      </g>
     </g>
     <g id="text_10">
      <!-- 0.005 -->
      <g transform="translate(4.795 59.95563)scale(0.16 -0.16)">
       <use xlink:href="#DejaVuSans-48"/>
       <use x="63.623047" xlink:href="#DejaVuSans-46"/>
       <use x="95.410156" xlink:href="#DejaVuSans-48"/>
       <use x="159.033203" xlink:href="#DejaVuSans-48"/>
       <use x="222.65625" xlink:href="#DejaVuSans-53"/>
      </g>
     </g>
    </g>
   </g>
   <g id="line2d_10">
    <path clip-path="url(#p14147d1c06)" d="M 73.832727 94.29752 
L 74.808643 94.29752 
L 75.133948 94.661189 
L 75.459253 94.511729 
L 75.784558 93.92057 
L 76.435169 91.724783 
L 77.411084 86.848695 
L 79.68822 74.343831 
L 80.664136 70.279091 
L 81.314746 68.301115 
L 81.965356 66.982545 
L 82.290661 66.584086 
L 82.615966 66.364821 
L 82.941272 66.327739 
L 83.266577 66.4766 
L 83.591882 66.812083 
L 84.242492 68.049221 
L 84.893103 70.049566 
L 85.543713 72.823651 
L 86.194323 76.388064 
L 87.170239 83.284787 
L 88.146154 92.188864 
L 89.12207 103.177329 
L 90.748595 123.007832 
L 91.399206 128.323632 
L 91.724511 129.785864 
L 92.049816 130.41354 
L 92.375121 130.303224 
L 92.700426 129.626316 
L 93.676342 126.178241 
L 94.326952 124.170847 
L 94.977562 122.97172 
L 95.302868 122.666431 
L 95.953478 122.491143 
L 97.580004 122.742414 
L 97.905309 122.608185 
L 98.230614 122.33229 
L 98.555919 121.881503 
L 99.206529 120.313263 
L 99.85714 117.574643 
L 100.50775 113.203798 
L 101.15836 106.490592 
L 101.808971 96.379771 
L 102.459581 81.787785 
L 103.435496 55.69209 
L 103.760802 50.412734 
L 104.086107 49.318927 
L 104.411412 52.488754 
L 105.062022 66.027454 
L 105.712633 79.476524 
L 106.363243 88.359726 
L 107.013853 92.981579 
L 107.339158 94.059308 
L 107.664463 94.489606 
L 107.989769 94.380035 
L 108.315074 93.822741 
L 108.965684 91.677056 
L 109.9416 86.843633 
L 112.218736 74.358059 
L 113.194651 70.28901 
L 113.845261 68.308366 
L 114.495872 66.988972 
L 114.821177 66.591273 
L 115.146482 66.373842 
L 115.471787 66.339954 
L 115.797092 66.492259 
L 116.122398 66.832932 
L 116.773008 68.086425 
L 117.423618 70.113261 
L 118.074228 72.928219 
L 118.724839 76.554904 
L 119.700754 83.610174 
L 120.67667 92.801315 
L 121.652585 104.247215 
L 123.279111 124.597988 
L 123.929721 129.508716 
L 124.255026 130.613477 
L 124.580332 130.833446 
L 124.905637 130.318495 
L 125.556247 127.969579 
L 126.532163 124.127031 
L 127.182773 122.568799 
L 127.508078 122.145458 
L 127.833383 121.925448 
L 128.158688 121.869991 
L 128.809299 122.080801 
L 129.785214 122.574685 
L 130.435824 122.589867 
L 130.76113 122.405832 
L 131.086435 122.053606 
L 131.41174 121.502374 
L 132.06235 119.667293 
L 132.71296 116.576634 
L 133.363571 111.759479 
L 134.014181 104.48775 
L 134.664791 93.722713 
L 135.315402 78.617343 
L 136.291317 53.947527 
L 136.616622 49.997186 
L 136.941927 50.195239 
L 137.267233 54.181102 
L 138.893758 84.508514 
L 139.544369 90.276137 
L 139.869674 91.801846 
L 140.194979 92.606224 
L 140.520284 92.808376 
L 140.845589 92.511093 
L 141.170895 91.803568 
L 141.821505 89.462506 
L 142.79742 84.572929 
L 144.749251 74.203709 
L 145.725167 70.198718 
L 146.375777 68.249603 
L 147.026387 66.95809 
L 147.351692 66.574078 
L 147.676998 66.370706 
L 148.002303 66.351643 
L 148.327608 66.520012 
L 148.652913 66.878478 
L 149.303523 68.175156 
L 149.954134 70.26078 
L 150.604744 73.159676 
L 151.255354 76.910186 
L 152.23127 84.277211 
L 153.207185 94.030653 
L 154.183101 106.350567 
L 155.484321 123.951695 
L 156.134932 129.772251 
L 156.460237 131.166253 
L 156.785542 131.502723 
L 157.110847 130.931022 
L 157.761457 128.105384 
L 158.737373 123.38127 
L 159.387983 121.457555 
L 159.713288 120.938401 
L 160.038594 120.676572 
L 160.363899 120.628213 
L 161.014509 120.979185 
L 162.641035 122.406268 
L 162.96634 122.493245 
L 163.291645 122.445112 
L 163.61695 122.236162 
L 163.942255 121.841018 
L 164.267561 121.233496 
L 164.918171 119.264218 
L 165.568781 116.043776 
L 166.219392 111.152305 
L 166.870002 103.941845 
L 167.520612 93.503816 
L 168.171222 79.125512 
L 169.147138 55.431749 
L 169.472443 51.116077 
L 169.797748 50.489178 
L 170.123053 53.443991 
L 170.773664 65.296875 
L 171.424274 77.07891 
L 172.074884 84.885873 
L 172.400189 87.279415 
L 172.725495 88.825233 
L 173.0508 89.652692 
L 173.376105 89.880159 
L 173.70141 89.612319 
L 174.026715 88.941118 
L 174.677326 86.703244 
L 175.653241 82.06389 
L 177.605072 72.509833 
L 178.580987 69.022494 
L 179.231598 67.445418 
L 179.882208 66.542865 
L 180.207513 66.358854 
L 180.532818 66.358943 
L 180.858124 66.546802 
L 181.183429 66.925705 
L 181.834039 68.268819 
L 182.484649 70.413958 
L 183.13526 73.395069 
L 183.78587 77.265039 
L 184.761785 84.930861 
L 185.737701 95.219049 
L 186.713616 108.335188 
L 188.014837 126.364597 
L 188.340142 129.402483 
L 188.665447 131.313684 
L 188.990752 132.017933 
L 189.316058 131.619668 
L 189.641363 130.374276 
L 191.267889 121.670685 
L 191.918499 119.972161 
L 192.243804 119.603873 
L 192.569109 119.498504 
L 192.894414 119.603751 
L 193.545025 120.236553 
L 195.17155 122.203332 
L 195.496856 122.381603 
L 195.822161 122.424748 
L 196.147466 122.310099 
L 196.472771 122.015813 
L 196.798076 121.519932 
L 197.448686 119.828078 
L 198.099297 117.009231 
L 198.749907 112.739979 
L 199.400517 106.52267 
L 200.051128 97.623886 
L 200.701738 85.244315 
L 202.002959 55.380657 
L 202.328264 51.537139 
L 202.653569 51.111187 
L 202.978874 53.927131 
L 203.95479 70.720533 
L 204.6054 79.939406 
L 205.25601 85.270185 
L 205.581315 86.670103 
L 205.906621 87.385908 
L 206.231926 87.531075 
L 206.557231 87.207668 
L 206.882536 86.506215 
L 207.533146 84.279871 
L 208.834367 78.232224 
L 210.135588 72.299913 
L 211.111503 68.913245 
L 211.762113 67.381222 
L 212.412724 66.513375 
L 212.738029 66.344198 
L 213.063334 66.35803 
L 213.388639 66.55892 
L 213.713944 66.950508 
L 214.364555 68.319425 
L 215.015165 70.493789 
L 215.665775 73.511893 
L 216.316385 77.432905 
L 216.966996 82.349931 
L 217.942911 91.894138 
L 218.918827 104.398323 
L 220.545353 127.253204 
L 220.870658 130.118057 
L 221.195963 131.779233 
L 221.521268 132.192 
L 221.846573 131.506603 
L 222.497183 128.076225 
L 223.473099 122.35474 
L 224.123709 120.042914 
L 224.449014 119.42388 
L 224.77432 119.117548 
L 225.099625 119.073255 
L 225.42493 119.236425 
L 226.07554 119.971846 
L 227.376761 121.806426 
L 228.027371 122.339129 
L 228.352676 122.415015 
L 228.677981 122.334699 
L 229.003287 122.077713 
L 229.328592 121.623692 
L 229.979202 120.037635 
L 230.629812 117.373712 
L 231.280423 113.345149 
L 231.931033 107.512661 
L 232.581643 99.2202 
L 233.232254 87.691902 
L 234.858779 53.063115 
L 235.184085 51.151623 
L 235.50939 52.537987 
L 235.834695 56.549598 
L 237.135915 77.447546 
L 237.786526 83.4282 
L 238.111831 85.114501 
L 238.437136 86.079794 
L 238.762441 86.438761 
L 239.087746 86.296974 
L 239.413052 85.749048 
L 240.063662 83.760724 
L 241.039577 79.531141 
L 242.666103 72.199686 
L 243.642019 68.864481 
L 244.292629 67.352741 
L 244.943239 66.49715 
L 245.268544 66.331538 
L 245.59385 66.347335 
L 245.919155 66.548605 
L 246.24446 66.938931 
L 246.89507 68.299878 
L 247.54568 70.457281 
L 248.196291 73.445951 
L 248.846901 77.319154 
L 249.822817 84.981622 
L 250.798732 95.254718 
L 251.774647 108.341486 
L 253.075868 126.330328 
L 253.401173 129.367503 
L 253.726478 131.284209 
L 254.051784 131.999291 
L 254.377089 131.614987 
L 254.702394 130.383952 
L 256.32892 121.709966 
L 256.97953 120.005565 
L 257.304835 119.63287 
L 257.63014 119.522732 
L 257.955445 119.62321 
L 258.606056 120.24758 
L 260.232582 122.209953 
L 260.557887 122.392048 
L 260.883192 122.441305 
L 261.208497 122.335524 
L 261.533802 122.053452 
L 261.859107 121.573878 
L 262.509718 119.931191 
L 263.160328 117.194269 
L 263.810938 113.060385 
L 264.461549 107.065625 
L 265.112159 98.521459 
L 265.762769 86.64011 
L 267.389295 52.344364 
L 267.7146 51.056554 
L 268.039905 53.062655 
L 268.690516 63.213393 
L 269.341126 74.21788 
L 269.991736 81.834519 
L 270.317041 84.221859 
L 270.642347 85.785629 
L 270.967652 86.644451 
L 271.292957 86.912663 
L 271.618262 86.694356 
L 271.943567 86.082332 
L 272.594177 83.996134 
L 273.570093 79.674133 
L 275.196619 72.266776 
L 276.172534 68.904983 
L 276.823144 67.376711 
L 277.473755 66.502655 
L 277.79906 66.326324 
L 278.124365 66.329929 
L 278.44967 66.517101 
L 278.774975 66.890919 
L 279.425586 68.209012 
L 280.076196 70.304362 
L 280.726806 73.200824 
L 281.377417 76.934616 
L 282.353332 84.24004 
L 283.329248 93.866949 
L 284.305163 105.981939 
L 285.931689 126.793726 
L 286.256994 129.340025 
L 286.582299 130.872468 
L 286.907604 131.373142 
L 287.232909 130.966794 
L 287.558215 129.883593 
L 289.18474 122.666642 
L 289.835351 121.279098 
L 290.160656 120.979783 
L 290.485961 120.892766 
L 290.811266 120.971909 
L 291.461876 121.441775 
L 292.437792 122.290245 
L 293.088402 122.537473 
L 293.413707 122.47736 
L 293.739013 122.26018 
L 294.064318 121.860759 
L 294.389623 121.253277 
L 295.040233 119.29923 
L 295.690844 116.120761 
L 296.341454 111.311611 
L 296.992064 104.246293 
L 297.642674 94.042054 
L 298.293285 79.964062 
L 299.2692 56.236928 
L 299.594505 51.562354 
L 299.919811 50.454311 
L 300.245116 52.952767 
L 300.895726 64.351388 
L 301.546336 76.19103 
L 302.196947 84.202263 
L 302.847557 88.330499 
L 303.172862 89.236157 
L 303.498167 89.531523 
L 303.823472 89.322541 
L 304.148778 88.70241 
L 304.799388 86.547482 
L 305.775303 81.995709 
L 307.727134 72.526123 
L 308.70305 69.04572 
L 309.35366 67.459864 
L 310.00427 66.535541 
L 310.329576 66.334707 
L 310.654881 66.313163 
L 310.980186 66.473746 
L 311.305491 66.818615 
L 311.956101 68.067564 
L 312.606712 70.069631 
L 313.257322 72.83302 
L 313.907932 76.370053 
L 314.883848 83.178271 
L 315.859763 91.902865 
L 316.835679 102.585271 
L 318.78751 125.011306 
L 319.43812 129.085229 
L 319.763425 129.959026 
L 320.08873 130.113668 
L 320.414035 129.68837 
L 321.064646 127.822197 
L 322.040561 124.794756 
L 322.691171 123.548159 
L 323.341782 122.986547 
L 323.992392 122.878494 
L 324.968308 122.899828 
L 325.618918 122.599915 
L 325.944223 122.249848 
L 326.269528 121.719465 
L 326.920138 119.963835 
L 327.570749 116.970007 
L 328.221359 112.217971 
L 328.871969 104.904648 
L 329.52258 93.869566 
L 330.17319 78.137251 
L 331.149105 52.687486 
L 331.474411 49.133688 
L 331.799716 50.122061 
L 332.125021 55.030275 
L 333.426242 82.591792 
L 334.076852 90.56531 
L 334.402157 92.954567 
L 334.727462 94.485845 
L 335.052767 95.297982 
L 335.378073 95.50877 
L 335.703378 95.217734 
L 336.028683 94.510308 
L 336.679293 92.137997 
L 337.655209 87.09578 
L 339.932345 74.434858 
L 340.90826 70.340126 
L 341.55887 68.343346 
L 342.209481 67.003467 
L 342.860091 66.358984 
L 343.185396 66.305402 
L 343.510701 66.433568 
L 343.836007 66.744589 
L 344.486617 67.916787 
L 345.137227 69.820341 
L 345.787837 72.447488 
L 346.763753 77.71931 
L 347.739668 84.54634 
L 348.715584 92.853172 
L 350.34211 109.130384 
L 351.318025 118.585426 
L 351.968635 123.46613 
L 352.619246 126.535406 
L 352.944551 127.350634 
L 353.269856 127.739998 
L 353.595161 127.780168 
L 353.920466 127.561201 
L 354.571077 126.692473 
L 356.197602 124.327768 
L 357.173518 122.890232 
L 357.824128 121.400409 
L 358.474739 118.970215 
L 359.125349 114.948531 
L 359.775959 108.329772 
L 360.42657 97.552105 
L 361.07718 80.820462 
L 362.053095 50.840918 
L 362.3784 46.728991 
L 362.703706 48.66982 
L 363.029011 55.660667 
L 364.004926 83.237253 
L 364.655537 95.458813 
L 365.306147 102.419159 
L 365.631452 104.473837 
L 365.956757 105.802011 
L 366.282062 106.52073 
L 366.607367 106.717158 
L 366.932673 106.458143 
L 367.257978 105.798211 
L 367.908588 103.464679 
L 368.559198 100.078009 
L 369.860419 91.536015 
L 371.81225 78.566494 
L 372.788165 73.370203 
L 373.764081 69.487606 
L 374.414691 67.721968 
L 375.065302 66.655752 
L 375.390607 66.39187 
L 375.715912 66.309719 
L 376.041217 66.410156 
L 376.366522 66.693392 
L 377.017132 67.806051 
L 377.667743 69.637494 
L 378.318353 72.168545 
L 379.294269 77.213268 
L 380.270184 83.629535 
L 381.571405 93.916619 
L 383.848541 112.971266 
L 384.499151 117.1838 
L 385.149761 120.246108 
L 385.800372 122.055215 
L 386.125677 122.51639 
L 386.450982 122.714597 
L 386.776287 122.677191 
L 387.101592 122.42723 
L 387.426897 121.978505 
L 388.077508 120.469481 
L 388.728118 117.930232 
L 389.378728 113.747051 
L 390.029339 106.71424 
L 390.679949 94.787217 
L 391.330559 75.717405 
L 391.98117 52.980795 
L 392.306475 45.961225 
L 392.63178 45.792 
L 392.957085 52.506442 
L 394.258306 93.721881 
L 394.908916 105.48099 
L 395.559526 112.345369 
L 396.210137 116.309946 
L 396.860747 118.487956 
L 397.186052 119.079205 
L 397.511357 119.377178 
L 397.836662 119.389231 
L 398.161968 119.112616 
L 398.487273 118.540155 
L 398.487273 118.540155 
" style="fill:none;stroke:#1f77b4;stroke-linecap:square;stroke-width:2;"/>
   </g>
   <g id="patch_3">
    <path d="M 57.6 136.512 
L 57.6 41.472 
" style="fill:none;stroke:#000000;stroke-linecap:square;stroke-linejoin:miter;stroke-width:0.8;"/>
   </g>
   <g id="patch_4">
    <path d="M 414.72 136.512 
L 414.72 41.472 
" style="fill:none;stroke:#000000;stroke-linecap:square;stroke-linejoin:miter;stroke-width:0.8;"/>
   </g>
   <g id="patch_5">
    <path d="M 57.6 136.512 
L 414.72 136.512 
" style="fill:none;stroke:#000000;stroke-linecap:square;stroke-linejoin:miter;stroke-width:0.8;"/>
   </g>
   <g id="patch_6">
    <path d="M 57.6 41.472 
L 414.72 41.472 
" style="fill:none;stroke:#000000;stroke-linecap:square;stroke-linejoin:miter;stroke-width:0.8;"/>
   </g>
   <g id="text_11">
    <!-- R_L -->
    <g transform="translate(219.3405 35.472)scale(0.192 -0.192)">
     <defs>
      <path d="M 44.390625 34.1875 
Q 47.5625 33.109375 50.5625 29.59375 
Q 53.5625 26.078125 56.59375 19.921875 
L 66.609375 0 
L 56 0 
L 46.6875 18.703125 
Q 43.0625 26.03125 39.671875 28.421875 
Q 36.28125 30.8125 30.421875 30.8125 
L 19.671875 30.8125 
L 19.671875 0 
L 9.8125 0 
L 9.8125 72.90625 
L 32.078125 72.90625 
Q 44.578125 72.90625 50.734375 67.671875 
Q 56.890625 62.453125 56.890625 51.90625 
Q 56.890625 45.015625 53.6875 40.46875 
Q 50.484375 35.9375 44.390625 34.1875 
z
M 19.671875 64.796875 
L 19.671875 38.921875 
L 32.078125 38.921875 
Q 39.203125 38.921875 42.84375 42.21875 
Q 46.484375 45.515625 46.484375 51.90625 
Q 46.484375 58.296875 42.84375 61.546875 
Q 39.203125 64.796875 32.078125 64.796875 
z
" id="DejaVuSans-82"/>
      <path d="M 50.984375 -16.609375 
L 50.984375 -23.578125 
L -0.984375 -23.578125 
L -0.984375 -16.609375 
z
" id="DejaVuSans-95"/>
      <path d="M 9.8125 72.90625 
L 19.671875 72.90625 
L 19.671875 8.296875 
L 55.171875 8.296875 
L 55.171875 0 
L 9.8125 0 
z
" id="DejaVuSans-76"/>
     </defs>
     <use xlink:href="#DejaVuSans-82"/>
     <use x="69.482422" xlink:href="#DejaVuSans-95"/>
     <use x="119.482422" xlink:href="#DejaVuSans-76"/>
    </g>
   </g>
  </g>
  <g id="axes_2">
   <g id="patch_7">
    <path d="M 57.6 307.584 
L 414.72 307.584 
L 414.72 212.544 
L 57.6 212.544 
z
" style="fill:none;"/>
   </g>
   <g id="matplotlib.axis_3">
    <g id="xtick_7">
     <g id="line2d_11">
      <g>
       <use style="stroke:#000000;stroke-width:0.8;" x="73.507422" xlink:href="#m100fb5a4bf" y="307.584"/>
      </g>
     </g>
     <g id="text_12">
      <!-- 0.0 -->
      <g transform="translate(60.784922 326.7415)scale(0.16 -0.16)">
       <use xlink:href="#DejaVuSans-48"/>
       <use x="63.623047" xlink:href="#DejaVuSans-46"/>
       <use x="95.410156" xlink:href="#DejaVuSans-48"/>
      </g>
     </g>
    </g>
    <g id="xtick_8">
     <g id="line2d_12">
      <g>
       <use style="stroke:#000000;stroke-width:0.8;" x="138.568453" xlink:href="#m100fb5a4bf" y="307.584"/>
      </g>
     </g>
     <g id="text_13">
      <!-- 0.2 -->
      <g transform="translate(125.845953 326.7415)scale(0.16 -0.16)">
       <use xlink:href="#DejaVuSans-48"/>
       <use x="63.623047" xlink:href="#DejaVuSans-46"/>
       <use x="95.410156" xlink:href="#DejaVuSans-50"/>
      </g>
     </g>
    </g>
    <g id="xtick_9">
     <g id="line2d_13">
      <g>
       <use style="stroke:#000000;stroke-width:0.8;" x="203.629484" xlink:href="#m100fb5a4bf" y="307.584"/>
      </g>
     </g>
     <g id="text_14">
      <!-- 0.4 -->
      <g transform="translate(190.906984 326.7415)scale(0.16 -0.16)">
       <use xlink:href="#DejaVuSans-48"/>
       <use x="63.623047" xlink:href="#DejaVuSans-46"/>
       <use x="95.410156" xlink:href="#DejaVuSans-52"/>
      </g>
     </g>
    </g>
    <g id="xtick_10">
     <g id="line2d_14">
      <g>
       <use style="stroke:#000000;stroke-width:0.8;" x="268.690516" xlink:href="#m100fb5a4bf" y="307.584"/>
      </g>
     </g>
     <g id="text_15">
      <!-- 0.6 -->
      <g transform="translate(255.968016 326.7415)scale(0.16 -0.16)">
       <use xlink:href="#DejaVuSans-48"/>
       <use x="63.623047" xlink:href="#DejaVuSans-46"/>
       <use x="95.410156" xlink:href="#DejaVuSans-54"/>
      </g>
     </g>
    </g>
    <g id="xtick_11">
     <g id="line2d_15">
      <g>
       <use style="stroke:#000000;stroke-width:0.8;" x="333.751547" xlink:href="#m100fb5a4bf" y="307.584"/>
      </g>
     </g>
     <g id="text_16">
      <!-- 0.8 -->
      <g transform="translate(321.029047 326.7415)scale(0.16 -0.16)">
       <use xlink:href="#DejaVuSans-48"/>
       <use x="63.623047" xlink:href="#DejaVuSans-46"/>
       <use x="95.410156" xlink:href="#DejaVuSans-56"/>
      </g>
     </g>
    </g>
    <g id="xtick_12">
     <g id="line2d_16">
      <g>
       <use style="stroke:#000000;stroke-width:0.8;" x="398.812578" xlink:href="#m100fb5a4bf" y="307.584"/>
      </g>
     </g>
     <g id="text_17">
      <!-- 1.0 -->
      <g transform="translate(386.090078 326.7415)scale(0.16 -0.16)">
       <use xlink:href="#DejaVuSans-49"/>
       <use x="63.623047" xlink:href="#DejaVuSans-46"/>
       <use x="95.410156" xlink:href="#DejaVuSans-48"/>
      </g>
     </g>
    </g>
    <g id="text_18">
     <!-- a -->
     <g transform="translate(229.419062 350.785562)scale(0.22 -0.22)">
      <defs>
       <path d="M 34.28125 27.484375 
Q 23.390625 27.484375 19.1875 25 
Q 14.984375 22.515625 14.984375 16.5 
Q 14.984375 11.71875 18.140625 8.90625 
Q 21.296875 6.109375 26.703125 6.109375 
Q 34.1875 6.109375 38.703125 11.40625 
Q 43.21875 16.703125 43.21875 25.484375 
L 43.21875 27.484375 
z
M 52.203125 31.203125 
L 52.203125 0 
L 43.21875 0 
L 43.21875 8.296875 
Q 40.140625 3.328125 35.546875 0.953125 
Q 30.953125 -1.421875 24.3125 -1.421875 
Q 15.921875 -1.421875 10.953125 3.296875 
Q 6 8.015625 6 15.921875 
Q 6 25.140625 12.171875 29.828125 
Q 18.359375 34.515625 30.609375 34.515625 
L 43.21875 34.515625 
L 43.21875 35.40625 
Q 43.21875 41.609375 39.140625 45 
Q 35.0625 48.390625 27.6875 48.390625 
Q 23 48.390625 18.546875 47.265625 
Q 14.109375 46.140625 10.015625 43.890625 
L 10.015625 52.203125 
Q 14.9375 54.109375 19.578125 55.046875 
Q 24.21875 56 28.609375 56 
Q 40.484375 56 46.34375 49.84375 
Q 52.203125 43.703125 52.203125 31.203125 
z
" id="DejaVuSans-97"/>
      </defs>
      <use xlink:href="#DejaVuSans-97"/>
     </g>
    </g>
    <g id="text_19">
     <!-- 1e−9 -->
     <g transform="translate(371.1075 345.2265)scale(0.16 -0.16)">
      <use xlink:href="#DejaVuSans-49"/>
      <use x="63.623047" xlink:href="#DejaVuSans-101"/>
      <use x="125.146484" xlink:href="#DejaVuSans-8722"/>
      <use x="208.935547" xlink:href="#DejaVuSans-57"/>
     </g>
    </g>
   </g>
   <g id="matplotlib.axis_4">
    <g id="ytick_4">
     <g id="line2d_17">
      <g>
       <use style="stroke:#000000;stroke-width:0.8;" x="57.6" xlink:href="#m2a377433d4" y="305.790161"/>
      </g>
     </g>
     <g id="text_20">
      <!-- −0.005 -->
      <g transform="translate(-8.6125 311.868911)scale(0.16 -0.16)">
       <use xlink:href="#DejaVuSans-8722"/>
       <use x="83.789062" xlink:href="#DejaVuSans-48"/>
       <use x="147.412109" xlink:href="#DejaVuSans-46"/>
       <use x="179.199219" xlink:href="#DejaVuSans-48"/>
       <use x="242.822266" xlink:href="#DejaVuSans-48"/>
       <use x="306.445312" xlink:href="#DejaVuSans-53"/>
      </g>
     </g>
    </g>
    <g id="ytick_5">
     <g id="line2d_18">
      <g>
       <use style="stroke:#000000;stroke-width:0.8;" x="57.6" xlink:href="#m2a377433d4" y="265.36952"/>
      </g>
     </g>
     <g id="text_21">
      <!-- 0.000 -->
      <g transform="translate(4.795 271.44827)scale(0.16 -0.16)">
       <use xlink:href="#DejaVuSans-48"/>
       <use x="63.623047" xlink:href="#DejaVuSans-46"/>
       <use x="95.410156" xlink:href="#DejaVuSans-48"/>
       <use x="159.033203" xlink:href="#DejaVuSans-48"/>
       <use x="222.65625" xlink:href="#DejaVuSans-48"/>
      </g>
     </g>
    </g>
    <g id="ytick_6">
     <g id="line2d_19">
      <g>
       <use style="stroke:#000000;stroke-width:0.8;" x="57.6" xlink:href="#m2a377433d4" y="224.94888"/>
      </g>
     </g>
     <g id="text_22">
      <!-- 0.005 -->
      <g transform="translate(4.795 231.02763)scale(0.16 -0.16)">
       <use xlink:href="#DejaVuSans-48"/>
       <use x="63.623047" xlink:href="#DejaVuSans-46"/>
       <use x="95.410156" xlink:href="#DejaVuSans-48"/>
       <use x="159.033203" xlink:href="#DejaVuSans-48"/>
       <use x="222.65625" xlink:href="#DejaVuSans-53"/>
      </g>
     </g>
    </g>
    <g id="text_23">
     <!-- b -->
     <g transform="translate(-17.187812 267.047281)rotate(-90)scale(0.22 -0.22)">
      <defs>
       <path d="M 48.6875 27.296875 
Q 48.6875 37.203125 44.609375 42.84375 
Q 40.53125 48.484375 33.40625 48.484375 
Q 26.265625 48.484375 22.1875 42.84375 
Q 18.109375 37.203125 18.109375 27.296875 
Q 18.109375 17.390625 22.1875 11.75 
Q 26.265625 6.109375 33.40625 6.109375 
Q 40.53125 6.109375 44.609375 11.75 
Q 48.6875 17.390625 48.6875 27.296875 
z
M 18.109375 46.390625 
Q 20.953125 51.265625 25.265625 53.625 
Q 29.59375 56 35.59375 56 
Q 45.5625 56 51.78125 48.09375 
Q 58.015625 40.1875 58.015625 27.296875 
Q 58.015625 14.40625 51.78125 6.484375 
Q 45.5625 -1.421875 35.59375 -1.421875 
Q 29.59375 -1.421875 25.265625 0.953125 
Q 20.953125 3.328125 18.109375 8.203125 
L 18.109375 0 
L 9.078125 0 
L 9.078125 75.984375 
L 18.109375 75.984375 
z
" id="DejaVuSans-98"/>
      </defs>
      <use xlink:href="#DejaVuSans-98"/>
     </g>
    </g>
   </g>
   <g id="line2d_20">
    <path clip-path="url(#paac8e9e19c)" d="M 73.832727 265.36952 
L 74.808643 265.36952 
L 75.133948 265.733189 
L 75.459253 265.583729 
L 75.784558 264.99257 
L 76.435169 262.796783 
L 77.411084 257.920695 
L 79.68822 245.415831 
L 80.664136 241.351091 
L 81.314746 239.373115 
L 81.965356 238.054545 
L 82.290661 237.656086 
L 82.615966 237.436821 
L 82.941272 237.399739 
L 83.266577 237.5486 
L 83.591882 237.884083 
L 84.242492 239.121221 
L 84.893103 241.121566 
L 85.543713 243.895651 
L 86.194323 247.460064 
L 87.170239 254.356787 
L 88.146154 263.260864 
L 89.12207 274.249329 
L 90.748595 294.079832 
L 91.399206 299.395632 
L 91.724511 300.857864 
L 92.049816 301.48554 
L 92.375121 301.375224 
L 92.700426 300.698316 
L 93.676342 297.250241 
L 94.326952 295.242847 
L 94.977562 294.04372 
L 95.302868 293.738431 
L 95.953478 293.563143 
L 97.580004 293.814414 
L 97.905309 293.680185 
L 98.230614 293.40429 
L 98.555919 292.953503 
L 99.206529 291.385263 
L 99.85714 288.646643 
L 100.50775 284.275798 
L 101.15836 277.562592 
L 101.808971 267.451771 
L 102.459581 252.859785 
L 103.435496 226.76409 
L 103.760802 221.484734 
L 104.086107 220.390927 
L 104.411412 223.560754 
L 105.062022 237.099454 
L 105.712633 250.548524 
L 106.363243 259.431726 
L 107.013853 264.053579 
L 107.339158 265.131308 
L 107.664463 265.561606 
L 107.989769 265.452035 
L 108.315074 264.894741 
L 108.965684 262.749056 
L 109.9416 257.915633 
L 112.218736 245.430059 
L 113.194651 241.36101 
L 113.845261 239.380366 
L 114.495872 238.060972 
L 114.821177 237.663273 
L 115.146482 237.445842 
L 115.471787 237.411954 
L 115.797092 237.564259 
L 116.122398 237.904932 
L 116.773008 239.158425 
L 117.423618 241.185261 
L 118.074228 244.000219 
L 118.724839 247.626904 
L 119.700754 254.682174 
L 120.67667 263.873315 
L 121.652585 275.319215 
L 123.279111 295.669988 
L 123.929721 300.580716 
L 124.255026 301.685477 
L 124.580332 301.905446 
L 124.905637 301.390495 
L 125.556247 299.041579 
L 126.532163 295.199031 
L 127.182773 293.640799 
L 127.508078 293.217458 
L 127.833383 292.997448 
L 128.158688 292.941991 
L 128.809299 293.152801 
L 129.785214 293.646685 
L 130.435824 293.661867 
L 130.76113 293.477832 
L 131.086435 293.125606 
L 131.41174 292.574374 
L 132.06235 290.739293 
L 132.71296 287.648634 
L 133.363571 282.831479 
L 134.014181 275.55975 
L 134.664791 264.794713 
L 135.315402 249.689343 
L 136.291317 225.019527 
L 136.616622 221.069186 
L 136.941927 221.267239 
L 137.267233 225.253102 
L 138.893758 255.580514 
L 139.544369 261.348137 
L 139.869674 262.873846 
L 140.194979 263.678224 
L 140.520284 263.880376 
L 140.845589 263.583093 
L 141.170895 262.875568 
L 141.821505 260.534506 
L 142.79742 255.644929 
L 144.749251 245.275709 
L 145.725167 241.270718 
L 146.375777 239.321603 
L 147.026387 238.03009 
L 147.351692 237.646078 
L 147.676998 237.442706 
L 148.002303 237.423643 
L 148.327608 237.592012 
L 148.652913 237.950478 
L 149.303523 239.247156 
L 149.954134 241.33278 
L 150.604744 244.231676 
L 151.255354 247.982186 
L 152.23127 255.349211 
L 153.207185 265.102653 
L 154.183101 277.422567 
L 155.484321 295.023695 
L 156.134932 300.844251 
L 156.460237 302.238253 
L 156.785542 302.574723 
L 157.110847 302.003022 
L 157.761457 299.177384 
L 158.737373 294.45327 
L 159.387983 292.529555 
L 159.713288 292.010401 
L 160.038594 291.748572 
L 160.363899 291.700213 
L 161.014509 292.051185 
L 162.641035 293.478268 
L 162.96634 293.565245 
L 163.291645 293.517112 
L 163.61695 293.308162 
L 163.942255 292.913018 
L 164.267561 292.305496 
L 164.918171 290.336218 
L 165.568781 287.115776 
L 166.219392 282.224305 
L 166.870002 275.013845 
L 167.520612 264.575816 
L 168.171222 250.197512 
L 169.147138 226.503749 
L 169.472443 222.188077 
L 169.797748 221.561178 
L 170.123053 224.515991 
L 170.773664 236.368875 
L 171.424274 248.15091 
L 172.074884 255.957873 
L 172.400189 258.351415 
L 172.725495 259.897233 
L 173.0508 260.724692 
L 173.376105 260.952159 
L 173.70141 260.684319 
L 174.026715 260.013118 
L 174.677326 257.775244 
L 175.653241 253.13589 
L 177.605072 243.581833 
L 178.580987 240.094494 
L 179.231598 238.517418 
L 179.882208 237.614865 
L 180.207513 237.430854 
L 180.532818 237.430943 
L 180.858124 237.618802 
L 181.183429 237.997705 
L 181.834039 239.340819 
L 182.484649 241.485958 
L 183.13526 244.467069 
L 183.78587 248.337039 
L 184.761785 256.002861 
L 185.737701 266.291049 
L 186.713616 279.407188 
L 188.014837 297.436597 
L 188.340142 300.474483 
L 188.665447 302.385684 
L 188.990752 303.089933 
L 189.316058 302.691668 
L 189.641363 301.446276 
L 191.267889 292.742685 
L 191.918499 291.044161 
L 192.243804 290.675873 
L 192.569109 290.570504 
L 192.894414 290.675751 
L 193.545025 291.308553 
L 195.17155 293.275332 
L 195.496856 293.453603 
L 195.822161 293.496748 
L 196.147466 293.382099 
L 196.472771 293.087813 
L 196.798076 292.591932 
L 197.448686 290.900078 
L 198.099297 288.081231 
L 198.749907 283.811979 
L 199.400517 277.59467 
L 200.051128 268.695886 
L 200.701738 256.316315 
L 202.002959 226.452657 
L 202.328264 222.609139 
L 202.653569 222.183187 
L 202.978874 224.999131 
L 203.95479 241.792533 
L 204.6054 251.011406 
L 205.25601 256.342185 
L 205.581315 257.742103 
L 205.906621 258.457908 
L 206.231926 258.603075 
L 206.557231 258.279668 
L 206.882536 257.578215 
L 207.533146 255.351871 
L 208.834367 249.304224 
L 210.135588 243.371913 
L 211.111503 239.985245 
L 211.762113 238.453222 
L 212.412724 237.585375 
L 212.738029 237.416198 
L 213.063334 237.43003 
L 213.388639 237.63092 
L 213.713944 238.022508 
L 214.364555 239.391425 
L 215.015165 241.565789 
L 215.665775 244.583893 
L 216.316385 248.504905 
L 216.966996 253.421931 
L 217.942911 262.966138 
L 218.918827 275.470323 
L 220.545353 298.325204 
L 220.870658 301.190057 
L 221.195963 302.851233 
L 221.521268 303.264 
L 221.846573 302.578603 
L 222.497183 299.148225 
L 223.473099 293.42674 
L 224.123709 291.114914 
L 224.449014 290.49588 
L 224.77432 290.189548 
L 225.099625 290.145255 
L 225.42493 290.308425 
L 226.07554 291.043846 
L 227.376761 292.878426 
L 228.027371 293.411129 
L 228.352676 293.487015 
L 228.677981 293.406699 
L 229.003287 293.149713 
L 229.328592 292.695692 
L 229.979202 291.109635 
L 230.629812 288.445712 
L 231.280423 284.417149 
L 231.931033 278.584661 
L 232.581643 270.2922 
L 233.232254 258.763902 
L 234.858779 224.135115 
L 235.184085 222.223623 
L 235.50939 223.609987 
L 235.834695 227.621598 
L 237.135915 248.519546 
L 237.786526 254.5002 
L 238.111831 256.186501 
L 238.437136 257.151794 
L 238.762441 257.510761 
L 239.087746 257.368974 
L 239.413052 256.821048 
L 240.063662 254.832724 
L 241.039577 250.603141 
L 242.666103 243.271686 
L 243.642019 239.936481 
L 244.292629 238.424741 
L 244.943239 237.56915 
L 245.268544 237.403538 
L 245.59385 237.419335 
L 245.919155 237.620605 
L 246.24446 238.010931 
L 246.89507 239.371878 
L 247.54568 241.529281 
L 248.196291 244.517951 
L 248.846901 248.391154 
L 249.822817 256.053622 
L 250.798732 266.326718 
L 251.774647 279.413486 
L 253.075868 297.402328 
L 253.401173 300.439503 
L 253.726478 302.356209 
L 254.051784 303.071291 
L 254.377089 302.686987 
L 254.702394 301.455952 
L 256.32892 292.781966 
L 256.97953 291.077565 
L 257.304835 290.70487 
L 257.63014 290.594732 
L 257.955445 290.69521 
L 258.606056 291.31958 
L 260.232582 293.281953 
L 260.557887 293.464048 
L 260.883192 293.513305 
L 261.208497 293.407524 
L 261.533802 293.125452 
L 261.859107 292.645878 
L 262.509718 291.003191 
L 263.160328 288.266269 
L 263.810938 284.132385 
L 264.461549 278.137625 
L 265.112159 269.593459 
L 265.762769 257.71211 
L 267.389295 223.416364 
L 267.7146 222.128554 
L 268.039905 224.134655 
L 268.690516 234.285393 
L 269.341126 245.28988 
L 269.991736 252.906519 
L 270.317041 255.293859 
L 270.642347 256.857629 
L 270.967652 257.716451 
L 271.292957 257.984663 
L 271.618262 257.766356 
L 271.943567 257.154332 
L 272.594177 255.068134 
L 273.570093 250.746133 
L 275.196619 243.338776 
L 276.172534 239.976983 
L 276.823144 238.448711 
L 277.473755 237.574655 
L 277.79906 237.398324 
L 278.124365 237.401929 
L 278.44967 237.589101 
L 278.774975 237.962919 
L 279.425586 239.281012 
L 280.076196 241.376362 
L 280.726806 244.272824 
L 281.377417 248.006616 
L 282.353332 255.31204 
L 283.329248 264.938949 
L 284.305163 277.053939 
L 285.931689 297.865726 
L 286.256994 300.412025 
L 286.582299 301.944468 
L 286.907604 302.445142 
L 287.232909 302.038794 
L 287.558215 300.955593 
L 289.18474 293.738642 
L 289.835351 292.351098 
L 290.160656 292.051783 
L 290.485961 291.964766 
L 290.811266 292.043909 
L 291.461876 292.513775 
L 292.437792 293.362245 
L 293.088402 293.609473 
L 293.413707 293.54936 
L 293.739013 293.33218 
L 294.064318 292.932759 
L 294.389623 292.325277 
L 295.040233 290.37123 
L 295.690844 287.192761 
L 296.341454 282.383611 
L 296.992064 275.318293 
L 297.642674 265.114054 
L 298.293285 251.036062 
L 299.2692 227.308928 
L 299.594505 222.634354 
L 299.919811 221.526311 
L 300.245116 224.024767 
L 300.895726 235.423388 
L 301.546336 247.26303 
L 302.196947 255.274263 
L 302.847557 259.402499 
L 303.172862 260.308157 
L 303.498167 260.603523 
L 303.823472 260.394541 
L 304.148778 259.77441 
L 304.799388 257.619482 
L 305.775303 253.067709 
L 307.727134 243.598123 
L 308.70305 240.11772 
L 309.35366 238.531864 
L 310.00427 237.607541 
L 310.329576 237.406707 
L 310.654881 237.385163 
L 310.980186 237.545746 
L 311.305491 237.890615 
L 311.956101 239.139564 
L 312.606712 241.141631 
L 313.257322 243.90502 
L 313.907932 247.442053 
L 314.883848 254.250271 
L 315.859763 262.974865 
L 316.835679 273.657271 
L 318.78751 296.083306 
L 319.43812 300.157229 
L 319.763425 301.031026 
L 320.08873 301.185668 
L 320.414035 300.76037 
L 321.064646 298.894197 
L 322.040561 295.866756 
L 322.691171 294.620159 
L 323.341782 294.058547 
L 323.992392 293.950494 
L 324.968308 293.971828 
L 325.618918 293.671915 
L 325.944223 293.321848 
L 326.269528 292.791465 
L 326.920138 291.035835 
L 327.570749 288.042007 
L 328.221359 283.289971 
L 328.871969 275.976648 
L 329.52258 264.941566 
L 330.17319 249.209251 
L 331.149105 223.759486 
L 331.474411 220.205688 
L 331.799716 221.194061 
L 332.125021 226.102275 
L 333.426242 253.663792 
L 334.076852 261.63731 
L 334.402157 264.026567 
L 334.727462 265.557845 
L 335.052767 266.369982 
L 335.378073 266.58077 
L 335.703378 266.289734 
L 336.028683 265.582308 
L 336.679293 263.209997 
L 337.655209 258.16778 
L 339.932345 245.506858 
L 340.90826 241.412126 
L 341.55887 239.415346 
L 342.209481 238.075467 
L 342.860091 237.430984 
L 343.185396 237.377402 
L 343.510701 237.505568 
L 343.836007 237.816589 
L 344.486617 238.988787 
L 345.137227 240.892341 
L 345.787837 243.519488 
L 346.763753 248.79131 
L 347.739668 255.61834 
L 348.715584 263.925172 
L 350.34211 280.202384 
L 351.318025 289.657426 
L 351.968635 294.53813 
L 352.619246 297.607406 
L 352.944551 298.422634 
L 353.269856 298.811998 
L 353.595161 298.852168 
L 353.920466 298.633201 
L 354.571077 297.764473 
L 356.197602 295.399768 
L 357.173518 293.962232 
L 357.824128 292.472409 
L 358.474739 290.042215 
L 359.125349 286.020531 
L 359.775959 279.401772 
L 360.42657 268.624105 
L 361.07718 251.892462 
L 362.053095 221.912918 
L 362.3784 217.800991 
L 362.703706 219.74182 
L 363.029011 226.732667 
L 364.004926 254.309253 
L 364.655537 266.530813 
L 365.306147 273.491159 
L 365.631452 275.545837 
L 365.956757 276.874011 
L 366.282062 277.59273 
L 366.607367 277.789158 
L 366.932673 277.530143 
L 367.257978 276.870211 
L 367.908588 274.536679 
L 368.559198 271.150009 
L 369.860419 262.608015 
L 371.81225 249.638494 
L 372.788165 244.442203 
L 373.764081 240.559606 
L 374.414691 238.793968 
L 375.065302 237.727752 
L 375.390607 237.46387 
L 375.715912 237.381719 
L 376.041217 237.482156 
L 376.366522 237.765392 
L 377.017132 238.878051 
L 377.667743 240.709494 
L 378.318353 243.240545 
L 379.294269 248.285268 
L 380.270184 254.701535 
L 381.571405 264.988619 
L 383.848541 284.043266 
L 384.499151 288.2558 
L 385.149761 291.318108 
L 385.800372 293.127215 
L 386.125677 293.58839 
L 386.450982 293.786597 
L 386.776287 293.749191 
L 387.101592 293.49923 
L 387.426897 293.050505 
L 388.077508 291.541481 
L 388.728118 289.002232 
L 389.378728 284.819051 
L 390.029339 277.78624 
L 390.679949 265.859217 
L 391.330559 246.789405 
L 391.98117 224.052795 
L 392.306475 217.033225 
L 392.63178 216.864 
L 392.957085 223.578442 
L 394.258306 264.793881 
L 394.908916 276.55299 
L 395.559526 283.417369 
L 396.210137 287.381946 
L 396.860747 289.559956 
L 397.186052 290.151205 
L 397.511357 290.449178 
L 397.836662 290.461231 
L 398.161968 290.184616 
L 398.487273 289.612155 
L 398.487273 289.612155 
" style="fill:none;stroke:#1f77b4;stroke-linecap:square;stroke-width:2;"/>
   </g>
   <g id="patch_8">
    <path d="M 57.6 307.584 
L 57.6 212.544 
" style="fill:none;stroke:#000000;stroke-linecap:square;stroke-linejoin:miter;stroke-width:0.8;"/>
   </g>
   <g id="patch_9">
    <path d="M 414.72 307.584 
L 414.72 212.544 
" style="fill:none;stroke:#000000;stroke-linecap:square;stroke-linejoin:miter;stroke-width:0.8;"/>
   </g>
   <g id="patch_10">
    <path d="M 57.6 307.584 
L 414.72 307.584 
" style="fill:none;stroke:#000000;stroke-linecap:square;stroke-linejoin:miter;stroke-width:0.8;"/>
   </g>
   <g id="patch_11">
    <path d="M 57.6 212.544 
L 414.72 212.544 
" style="fill:none;stroke:#000000;stroke-linecap:square;stroke-linejoin:miter;stroke-width:0.8;"/>
   </g>
   <g id="text_24">
    <!-- R_L -->
    <g transform="translate(219.3405 206.544)scale(0.192 -0.192)">
     <use xlink:href="#DejaVuSans-82"/>
     <use x="69.482422" xlink:href="#DejaVuSans-95"/>
     <use x="119.482422" xlink:href="#DejaVuSans-76"/>
    </g>
   </g>
  </g>
 </g>
 <defs>
  <clipPath id="p14147d1c06">
   <rect height="95.04" width="357.12" x="57.6" y="41.472"/>
  </clipPath>
  <clipPath id="paac8e9e19c">
   <rect height="95.04" width="357.12" x="57.6" y="212.544"/>
  </clipPath>
 </defs>
</svg>
