<?xml version="1.0" encoding="utf-8" standalone="no"?>
<!DOCTYPE svg PUBLIC "-//W3C//DTD SVG 1.1//EN"
  "http://www.w3.org/Graphics/SVG/1.1/DTD/svg11.dtd">
<!-- Created with matplotlib (https://matplotlib.org/) -->
<svg height="345.6pt" version="1.1" viewBox="0 0 460.8 345.6" width="460.8pt" xmlns="http://www.w3.org/2000/svg" xmlns:xlink="http://www.w3.org/1999/xlink">
 <metadata>
  <rdf:RDF xmlns:cc="http://creativecommons.org/ns#" xmlns:dc="http://purl.org/dc/elements/1.1/" xmlns:rdf="http://www.w3.org/1999/02/22-rdf-syntax-ns#">
   <cc:Work>
    <dc:type rdf:resource="http://purl.org/dc/dcmitype/StillImage"/>
    <dc:date>2022-06-15T08:24:25.842835</dc:date>
    <dc:format>image/svg+xml</dc:format>
    <dc:creator>
     <cc:Agent>
      <dc:title>Matplotlib v3.3.4, https://matplotlib.org/</dc:title>
     </cc:Agent>
    </dc:creator>
   </cc:Work>
  </rdf:RDF>
 </metadata>
 <defs>
  <style type="text/css">*{stroke-linecap:butt;stroke-linejoin:round;}</style>
 </defs>
 <g id="figure_1">
  <g id="patch_1">
   <path d="M 0 345.6 
L 460.8 345.6 
L 460.8 0 
L 0 0 
z
" style="fill:none;"/>
  </g>
  <g id="axes_1">
   <g id="patch_2">
    <path d="M 57.6 136.512 
L 414.72 136.512 
L 414.72 41.472 
L 57.6 41.472 
z
" style="fill:none;"/>
   </g>
   <g id="matplotlib.axis_1">
    <g id="xtick_1">
     <g id="line2d_1">
      <defs>
       <path d="M 0 0 
L 0 3.5 
" id="m4507a105f4" style="stroke:#000000;stroke-width:0.8;"/>
      </defs>
      <g>
       <use style="stroke:#000000;stroke-width:0.8;" x="73.832727" xlink:href="#m4507a105f4" y="136.512"/>
      </g>
     </g>
     <g id="text_1">
      <!-- 0 -->
      <g transform="translate(68.742727 155.6695)scale(0.16 -0.16)">
       <defs>
        <path d="M 31.78125 66.40625 
Q 24.171875 66.40625 20.328125 58.90625 
Q 16.5 51.421875 16.5 36.375 
Q 16.5 21.390625 20.328125 13.890625 
Q 24.171875 6.390625 31.78125 6.390625 
Q 39.453125 6.390625 43.28125 13.890625 
Q 47.125 21.390625 47.125 36.375 
Q 47.125 51.421875 43.28125 58.90625 
Q 39.453125 66.40625 31.78125 66.40625 
z
M 31.78125 74.21875 
Q 44.046875 74.21875 50.515625 64.515625 
Q 56.984375 54.828125 56.984375 36.375 
Q 56.984375 17.96875 50.515625 8.265625 
Q 44.046875 -1.421875 31.78125 -1.421875 
Q 19.53125 -1.421875 13.0625 8.265625 
Q 6.59375 17.96875 6.59375 36.375 
Q 6.59375 54.828125 13.0625 64.515625 
Q 19.53125 74.21875 31.78125 74.21875 
z
" id="DejaVuSans-48"/>
       </defs>
       <use xlink:href="#DejaVuSans-48"/>
      </g>
     </g>
    </g>
    <g id="xtick_2">
     <g id="line2d_2">
      <g>
       <use style="stroke:#000000;stroke-width:0.8;" x="138.893758" xlink:href="#m4507a105f4" y="136.512"/>
      </g>
     </g>
     <g id="text_2">
      <!-- 1 -->
      <g transform="translate(133.803758 155.6695)scale(0.16 -0.16)">
       <defs>
        <path d="M 12.40625 8.296875 
L 28.515625 8.296875 
L 28.515625 63.921875 
L 10.984375 60.40625 
L 10.984375 69.390625 
L 28.421875 72.90625 
L 38.28125 72.90625 
L 38.28125 8.296875 
L 54.390625 8.296875 
L 54.390625 0 
L 12.40625 0 
z
" id="DejaVuSans-49"/>
       </defs>
       <use xlink:href="#DejaVuSans-49"/>
      </g>
     </g>
    </g>
    <g id="xtick_3">
     <g id="line2d_3">
      <g>
       <use style="stroke:#000000;stroke-width:0.8;" x="203.95479" xlink:href="#m4507a105f4" y="136.512"/>
      </g>
     </g>
     <g id="text_3">
      <!-- 2 -->
      <g transform="translate(198.86479 155.6695)scale(0.16 -0.16)">
       <defs>
        <path d="M 19.1875 8.296875 
L 53.609375 8.296875 
L 53.609375 0 
L 7.328125 0 
L 7.328125 8.296875 
Q 12.9375 14.109375 22.625 23.890625 
Q 32.328125 33.6875 34.8125 36.53125 
Q 39.546875 41.84375 41.421875 45.53125 
Q 43.3125 49.21875 43.3125 52.78125 
Q 43.3125 58.59375 39.234375 62.25 
Q 35.15625 65.921875 28.609375 65.921875 
Q 23.96875 65.921875 18.8125 64.3125 
Q 13.671875 62.703125 7.8125 59.421875 
L 7.8125 69.390625 
Q 13.765625 71.78125 18.9375 73 
Q 24.125 74.21875 28.421875 74.21875 
Q 39.75 74.21875 46.484375 68.546875 
Q 53.21875 62.890625 53.21875 53.421875 
Q 53.21875 48.921875 51.53125 44.890625 
Q 49.859375 40.875 45.40625 35.40625 
Q 44.1875 33.984375 37.640625 27.21875 
Q 31.109375 20.453125 19.1875 8.296875 
z
" id="DejaVuSans-50"/>
       </defs>
       <use xlink:href="#DejaVuSans-50"/>
      </g>
     </g>
    </g>
    <g id="xtick_4">
     <g id="line2d_4">
      <g>
       <use style="stroke:#000000;stroke-width:0.8;" x="269.015821" xlink:href="#m4507a105f4" y="136.512"/>
      </g>
     </g>
     <g id="text_4">
      <!-- 3 -->
      <g transform="translate(263.925821 155.6695)scale(0.16 -0.16)">
       <defs>
        <path d="M 40.578125 39.3125 
Q 47.65625 37.796875 51.625 33 
Q 55.609375 28.21875 55.609375 21.1875 
Q 55.609375 10.40625 48.1875 4.484375 
Q 40.765625 -1.421875 27.09375 -1.421875 
Q 22.515625 -1.421875 17.65625 -0.515625 
Q 12.796875 0.390625 7.625 2.203125 
L 7.625 11.71875 
Q 11.71875 9.328125 16.59375 8.109375 
Q 21.484375 6.890625 26.8125 6.890625 
Q 36.078125 6.890625 40.9375 10.546875 
Q 45.796875 14.203125 45.796875 21.1875 
Q 45.796875 27.640625 41.28125 31.265625 
Q 36.765625 34.90625 28.71875 34.90625 
L 20.21875 34.90625 
L 20.21875 43.015625 
L 29.109375 43.015625 
Q 36.375 43.015625 40.234375 45.921875 
Q 44.09375 48.828125 44.09375 54.296875 
Q 44.09375 59.90625 40.109375 62.90625 
Q 36.140625 65.921875 28.71875 65.921875 
Q 24.65625 65.921875 20.015625 65.03125 
Q 15.375 64.15625 9.8125 62.3125 
L 9.8125 71.09375 
Q 15.4375 72.65625 20.34375 73.4375 
Q 25.25 74.21875 29.59375 74.21875 
Q 40.828125 74.21875 47.359375 69.109375 
Q 53.90625 64.015625 53.90625 55.328125 
Q 53.90625 49.265625 50.4375 45.09375 
Q 46.96875 40.921875 40.578125 39.3125 
z
" id="DejaVuSans-51"/>
       </defs>
       <use xlink:href="#DejaVuSans-51"/>
      </g>
     </g>
    </g>
    <g id="xtick_5">
     <g id="line2d_5">
      <g>
       <use style="stroke:#000000;stroke-width:0.8;" x="334.076852" xlink:href="#m4507a105f4" y="136.512"/>
      </g>
     </g>
     <g id="text_5">
      <!-- 4 -->
      <g transform="translate(328.986852 155.6695)scale(0.16 -0.16)">
       <defs>
        <path d="M 37.796875 64.3125 
L 12.890625 25.390625 
L 37.796875 25.390625 
z
M 35.203125 72.90625 
L 47.609375 72.90625 
L 47.609375 25.390625 
L 58.015625 25.390625 
L 58.015625 17.1875 
L 47.609375 17.1875 
L 47.609375 0 
L 37.796875 0 
L 37.796875 17.1875 
L 4.890625 17.1875 
L 4.890625 26.703125 
z
" id="DejaVuSans-52"/>
       </defs>
       <use xlink:href="#DejaVuSans-52"/>
      </g>
     </g>
    </g>
    <g id="xtick_6">
     <g id="line2d_6">
      <g>
       <use style="stroke:#000000;stroke-width:0.8;" x="399.137883" xlink:href="#m4507a105f4" y="136.512"/>
      </g>
     </g>
     <g id="text_6">
      <!-- 5 -->
      <g transform="translate(394.047883 155.6695)scale(0.16 -0.16)">
       <defs>
        <path d="M 10.796875 72.90625 
L 49.515625 72.90625 
L 49.515625 64.59375 
L 19.828125 64.59375 
L 19.828125 46.734375 
Q 21.96875 47.46875 24.109375 47.828125 
Q 26.265625 48.1875 28.421875 48.1875 
Q 40.625 48.1875 47.75 41.5 
Q 54.890625 34.8125 54.890625 23.390625 
Q 54.890625 11.625 47.5625 5.09375 
Q 40.234375 -1.421875 26.90625 -1.421875 
Q 22.3125 -1.421875 17.546875 -0.640625 
Q 12.796875 0.140625 7.71875 1.703125 
L 7.71875 11.625 
Q 12.109375 9.234375 16.796875 8.0625 
Q 21.484375 6.890625 26.703125 6.890625 
Q 35.15625 6.890625 40.078125 11.328125 
Q 45.015625 15.765625 45.015625 23.390625 
Q 45.015625 31 40.078125 35.4375 
Q 35.15625 39.890625 26.703125 39.890625 
Q 22.75 39.890625 18.8125 39.015625 
Q 14.890625 38.140625 10.796875 36.28125 
z
" id="DejaVuSans-53"/>
       </defs>
       <use xlink:href="#DejaVuSans-53"/>
      </g>
     </g>
    </g>
    <g id="text_7">
     <!-- 1e11 -->
     <g transform="translate(374.335 174.1545)scale(0.16 -0.16)">
      <defs>
       <path d="M 56.203125 29.59375 
L 56.203125 25.203125 
L 14.890625 25.203125 
Q 15.484375 15.921875 20.484375 11.0625 
Q 25.484375 6.203125 34.421875 6.203125 
Q 39.59375 6.203125 44.453125 7.46875 
Q 49.3125 8.734375 54.109375 11.28125 
L 54.109375 2.78125 
Q 49.265625 0.734375 44.1875 -0.34375 
Q 39.109375 -1.421875 33.890625 -1.421875 
Q 20.796875 -1.421875 13.15625 6.1875 
Q 5.515625 13.8125 5.515625 26.8125 
Q 5.515625 40.234375 12.765625 48.109375 
Q 20.015625 56 32.328125 56 
Q 43.359375 56 49.78125 48.890625 
Q 56.203125 41.796875 56.203125 29.59375 
z
M 47.21875 32.234375 
Q 47.125 39.59375 43.09375 43.984375 
Q 39.0625 48.390625 32.421875 48.390625 
Q 24.90625 48.390625 20.390625 44.140625 
Q 15.875 39.890625 15.1875 32.171875 
z
" id="DejaVuSans-101"/>
      </defs>
      <use xlink:href="#DejaVuSans-49"/>
      <use x="63.623047" xlink:href="#DejaVuSans-101"/>
      <use x="125.146484" xlink:href="#DejaVuSans-49"/>
      <use x="188.769531" xlink:href="#DejaVuSans-49"/>
     </g>
    </g>
   </g>
   <g id="matplotlib.axis_2">
    <g id="ytick_1">
     <g id="line2d_7">
      <defs>
       <path d="M 0 0 
L -3.5 0 
" id="mebf4a7c759" style="stroke:#000000;stroke-width:0.8;"/>
      </defs>
      <g>
       <use style="stroke:#000000;stroke-width:0.8;" x="57.6" xlink:href="#mebf4a7c759" y="132.231146"/>
      </g>
     </g>
     <g id="text_8">
      <!-- 0.000 -->
      <g transform="translate(4.795 138.309896)scale(0.16 -0.16)">
       <defs>
        <path d="M 10.6875 12.40625 
L 21 12.40625 
L 21 0 
L 10.6875 0 
z
" id="DejaVuSans-46"/>
       </defs>
       <use xlink:href="#DejaVuSans-48"/>
       <use x="63.623047" xlink:href="#DejaVuSans-46"/>
       <use x="95.410156" xlink:href="#DejaVuSans-48"/>
       <use x="159.033203" xlink:href="#DejaVuSans-48"/>
       <use x="222.65625" xlink:href="#DejaVuSans-48"/>
      </g>
     </g>
    </g>
    <g id="ytick_2">
     <g id="line2d_8">
      <g>
       <use style="stroke:#000000;stroke-width:0.8;" x="57.6" xlink:href="#mebf4a7c759" y="78.937212"/>
      </g>
     </g>
     <g id="text_9">
      <!-- 0.002 -->
      <g transform="translate(4.795 85.015962)scale(0.16 -0.16)">
       <use xlink:href="#DejaVuSans-48"/>
       <use x="63.623047" xlink:href="#DejaVuSans-46"/>
       <use x="95.410156" xlink:href="#DejaVuSans-48"/>
       <use x="159.033203" xlink:href="#DejaVuSans-48"/>
       <use x="222.65625" xlink:href="#DejaVuSans-50"/>
      </g>
     </g>
    </g>
   </g>
   <g id="line2d_9">
    <path clip-path="url(#pabfcbdc0d9)" d="M 73.832727 130.972197 
L 74.483338 130.457655 
L 75.133948 130.914273 
L 75.784558 130.910628 
L 76.435169 130.702164 
L 77.085779 130.327908 
L 77.736389 129.724863 
L 78.386999 128.775218 
L 79.03761 127.106216 
L 79.68822 122.357899 
L 80.33883 45.792 
L 80.989441 123.809824 
L 81.640051 126.041693 
L 82.290661 127.33921 
L 82.941272 128.279862 
L 83.591882 128.887367 
L 84.242492 129.105499 
L 84.893103 128.895309 
L 85.543713 128.023862 
L 86.194323 123.941891 
L 86.844934 91.609786 
L 87.495544 121.287956 
L 88.796764 125.158874 
L 89.447375 126.81151 
L 90.097985 127.987384 
L 90.748595 128.699308 
L 91.399206 128.924302 
L 92.049816 127.785029 
L 93.351037 111.241539 
L 94.001647 119.383386 
L 94.652257 121.746805 
L 96.604088 127.262132 
L 97.254698 128.204758 
L 97.905309 128.363673 
L 98.555919 126.898917 
L 99.206529 124.384595 
L 99.85714 113.349519 
L 100.50775 126.268242 
L 101.15836 123.606017 
L 101.808971 124.886619 
L 103.110191 128.23261 
L 103.760802 129.248489 
L 104.411412 129.55761 
L 105.062022 129.220977 
L 105.712633 127.9528 
L 106.363243 127.818927 
L 107.013853 128.381138 
L 107.664463 126.332954 
L 108.315074 126.879662 
L 109.616294 129.689573 
L 110.266905 130.684975 
L 110.917515 131.281645 
L 111.568125 131.182834 
L 112.218736 128.114668 
L 112.869346 124.286717 
L 113.519956 130.113641 
L 114.170567 128.47885 
L 114.821177 128.587637 
L 116.122398 130.484892 
L 117.423618 131.868773 
L 118.074228 131.252547 
L 118.724839 129.730282 
L 119.375449 128.567774 
L 120.026059 131.153334 
L 120.67667 130.427312 
L 121.32728 130.195714 
L 123.929721 131.278855 
L 124.580332 131.126333 
L 125.230942 129.030938 
L 127.182773 131.555845 
L 129.134604 130.837356 
L 129.785214 130.829718 
L 130.435824 130.99395 
L 131.086435 130.642191 
L 131.737045 129.873035 
L 133.038266 131.165526 
L 133.688876 131.693753 
L 134.339486 131.828996 
L 134.990097 131.385238 
L 135.640707 131.098811 
L 136.291317 131.051843 
L 136.941927 131.163445 
L 137.592538 130.923084 
L 138.243148 130.549357 
L 138.893758 131.849402 
L 139.544369 131.353374 
L 140.194979 131.79722 
L 140.845589 132.022991 
L 142.14681 131.470777 
L 144.098641 131.318453 
L 144.749251 131.210604 
L 145.399862 131.744187 
L 146.050472 131.91568 
L 149.303523 131.867396 
L 149.954134 131.846683 
L 150.604744 131.655832 
L 151.255354 131.906854 
L 151.905965 131.781212 
L 152.556575 131.966694 
L 153.207185 131.962962 
L 153.857796 131.811676 
L 155.159016 132.046782 
L 155.809627 132.192 
L 156.460237 131.989675 
L 157.110847 131.923054 
L 157.761457 132.028256 
L 158.412068 131.642991 
L 159.062678 131.838606 
L 159.713288 131.912872 
L 160.363899 131.773564 
L 161.665119 131.996521 
L 162.31573 132.093101 
L 162.96634 131.968989 
L 164.267561 131.92662 
L 164.918171 131.693481 
L 166.219392 131.917085 
L 166.870002 131.830228 
L 170.123053 132.017384 
L 171.424274 131.832121 
L 177.279767 132.015465 
L 178.580987 132.013335 
L 179.231598 132.110851 
L 180.532818 132.104605 
L 181.834039 132.116279 
L 183.13526 132.092303 
L 186.388311 132.110678 
L 188.340142 132.079105 
L 189.641363 132.070292 
L 190.291973 132.14882 
L 193.545025 132.080455 
L 202.653569 132.067705 
L 204.6054 132.100489 
L 207.858451 132.084472 
L 230.629812 132.11341 
L 323.016477 132.145639 
L 398.487273 132.153392 
L 398.487273 132.153392 
" style="fill:none;stroke:#1f77b4;stroke-linecap:square;stroke-width:2;"/>
   </g>
   <g id="patch_3">
    <path d="M 57.6 136.512 
L 57.6 41.472 
" style="fill:none;stroke:#000000;stroke-linecap:square;stroke-linejoin:miter;stroke-width:0.8;"/>
   </g>
   <g id="patch_4">
    <path d="M 414.72 136.512 
L 414.72 41.472 
" style="fill:none;stroke:#000000;stroke-linecap:square;stroke-linejoin:miter;stroke-width:0.8;"/>
   </g>
   <g id="patch_5">
    <path d="M 57.6 136.512 
L 414.72 136.512 
" style="fill:none;stroke:#000000;stroke-linecap:square;stroke-linejoin:miter;stroke-width:0.8;"/>
   </g>
   <g id="patch_6">
    <path d="M 57.6 41.472 
L 414.72 41.472 
" style="fill:none;stroke:#000000;stroke-linecap:square;stroke-linejoin:miter;stroke-width:0.8;"/>
   </g>
   <g id="text_10">
    <!-- R_L -->
    <g transform="translate(219.3405 35.472)scale(0.192 -0.192)">
     <defs>
      <path d="M 44.390625 34.1875 
Q 47.5625 33.109375 50.5625 29.59375 
Q 53.5625 26.078125 56.59375 19.921875 
L 66.609375 0 
L 56 0 
L 46.6875 18.703125 
Q 43.0625 26.03125 39.671875 28.421875 
Q 36.28125 30.8125 30.421875 30.8125 
L 19.671875 30.8125 
L 19.671875 0 
L 9.8125 0 
L 9.8125 72.90625 
L 32.078125 72.90625 
Q 44.578125 72.90625 50.734375 67.671875 
Q 56.890625 62.453125 56.890625 51.90625 
Q 56.890625 45.015625 53.6875 40.46875 
Q 50.484375 35.9375 44.390625 34.1875 
z
M 19.671875 64.796875 
L 19.671875 38.921875 
L 32.078125 38.921875 
Q 39.203125 38.921875 42.84375 42.21875 
Q 46.484375 45.515625 46.484375 51.90625 
Q 46.484375 58.296875 42.84375 61.546875 
Q 39.203125 64.796875 32.078125 64.796875 
z
" id="DejaVuSans-82"/>
      <path d="M 50.984375 -16.609375 
L 50.984375 -23.578125 
L -0.984375 -23.578125 
L -0.984375 -16.609375 
z
" id="DejaVuSans-95"/>
      <path d="M 9.8125 72.90625 
L 19.671875 72.90625 
L 19.671875 8.296875 
L 55.171875 8.296875 
L 55.171875 0 
L 9.8125 0 
z
" id="DejaVuSans-76"/>
     </defs>
     <use xlink:href="#DejaVuSans-82"/>
     <use x="69.482422" xlink:href="#DejaVuSans-95"/>
     <use x="119.482422" xlink:href="#DejaVuSans-76"/>
    </g>
   </g>
  </g>
  <g id="axes_2">
   <g id="patch_7">
    <path d="M 57.6 307.584 
L 414.72 307.584 
L 414.72 212.544 
L 57.6 212.544 
z
" style="fill:none;"/>
   </g>
   <g id="matplotlib.axis_3">
    <g id="xtick_7">
     <g id="line2d_10">
      <g>
       <use style="stroke:#000000;stroke-width:0.8;" x="73.832727" xlink:href="#m4507a105f4" y="307.584"/>
      </g>
     </g>
     <g id="text_11">
      <!-- 0 -->
      <g transform="translate(68.742727 326.7415)scale(0.16 -0.16)">
       <use xlink:href="#DejaVuSans-48"/>
      </g>
     </g>
    </g>
    <g id="xtick_8">
     <g id="line2d_11">
      <g>
       <use style="stroke:#000000;stroke-width:0.8;" x="138.893758" xlink:href="#m4507a105f4" y="307.584"/>
      </g>
     </g>
     <g id="text_12">
      <!-- 1 -->
      <g transform="translate(133.803758 326.7415)scale(0.16 -0.16)">
       <use xlink:href="#DejaVuSans-49"/>
      </g>
     </g>
    </g>
    <g id="xtick_9">
     <g id="line2d_12">
      <g>
       <use style="stroke:#000000;stroke-width:0.8;" x="203.95479" xlink:href="#m4507a105f4" y="307.584"/>
      </g>
     </g>
     <g id="text_13">
      <!-- 2 -->
      <g transform="translate(198.86479 326.7415)scale(0.16 -0.16)">
       <use xlink:href="#DejaVuSans-50"/>
      </g>
     </g>
    </g>
    <g id="xtick_10">
     <g id="line2d_13">
      <g>
       <use style="stroke:#000000;stroke-width:0.8;" x="269.015821" xlink:href="#m4507a105f4" y="307.584"/>
      </g>
     </g>
     <g id="text_14">
      <!-- 3 -->
      <g transform="translate(263.925821 326.7415)scale(0.16 -0.16)">
       <use xlink:href="#DejaVuSans-51"/>
      </g>
     </g>
    </g>
    <g id="xtick_11">
     <g id="line2d_14">
      <g>
       <use style="stroke:#000000;stroke-width:0.8;" x="334.076852" xlink:href="#m4507a105f4" y="307.584"/>
      </g>
     </g>
     <g id="text_15">
      <!-- 4 -->
      <g transform="translate(328.986852 326.7415)scale(0.16 -0.16)">
       <use xlink:href="#DejaVuSans-52"/>
      </g>
     </g>
    </g>
    <g id="xtick_12">
     <g id="line2d_15">
      <g>
       <use style="stroke:#000000;stroke-width:0.8;" x="399.137883" xlink:href="#m4507a105f4" y="307.584"/>
      </g>
     </g>
     <g id="text_16">
      <!-- 5 -->
      <g transform="translate(394.047883 326.7415)scale(0.16 -0.16)">
       <use xlink:href="#DejaVuSans-53"/>
      </g>
     </g>
    </g>
    <g id="text_17">
     <!-- a -->
     <g transform="translate(229.419062 350.785562)scale(0.22 -0.22)">
      <defs>
       <path d="M 34.28125 27.484375 
Q 23.390625 27.484375 19.1875 25 
Q 14.984375 22.515625 14.984375 16.5 
Q 14.984375 11.71875 18.140625 8.90625 
Q 21.296875 6.109375 26.703125 6.109375 
Q 34.1875 6.109375 38.703125 11.40625 
Q 43.21875 16.703125 43.21875 25.484375 
L 43.21875 27.484375 
z
M 52.203125 31.203125 
L 52.203125 0 
L 43.21875 0 
L 43.21875 8.296875 
Q 40.140625 3.328125 35.546875 0.953125 
Q 30.953125 -1.421875 24.3125 -1.421875 
Q 15.921875 -1.421875 10.953125 3.296875 
Q 6 8.015625 6 15.921875 
Q 6 25.140625 12.171875 29.828125 
Q 18.359375 34.515625 30.609375 34.515625 
L 43.21875 34.515625 
L 43.21875 35.40625 
Q 43.21875 41.609375 39.140625 45 
Q 35.0625 48.390625 27.6875 48.390625 
Q 23 48.390625 18.546875 47.265625 
Q 14.109375 46.140625 10.015625 43.890625 
L 10.015625 52.203125 
Q 14.9375 54.109375 19.578125 55.046875 
Q 24.21875 56 28.609375 56 
Q 40.484375 56 46.34375 49.84375 
Q 52.203125 43.703125 52.203125 31.203125 
z
" id="DejaVuSans-97"/>
      </defs>
      <use xlink:href="#DejaVuSans-97"/>
     </g>
    </g>
    <g id="text_18">
     <!-- 1e11 -->
     <g transform="translate(374.335 345.2265)scale(0.16 -0.16)">
      <use xlink:href="#DejaVuSans-49"/>
      <use x="63.623047" xlink:href="#DejaVuSans-101"/>
      <use x="125.146484" xlink:href="#DejaVuSans-49"/>
      <use x="188.769531" xlink:href="#DejaVuSans-49"/>
     </g>
    </g>
   </g>
   <g id="matplotlib.axis_4">
    <g id="ytick_3">
     <g id="line2d_16">
      <g>
       <use style="stroke:#000000;stroke-width:0.8;" x="57.6" xlink:href="#mebf4a7c759" y="303.303146"/>
      </g>
     </g>
     <g id="text_19">
      <!-- 0.000 -->
      <g transform="translate(4.795 309.381896)scale(0.16 -0.16)">
       <use xlink:href="#DejaVuSans-48"/>
       <use x="63.623047" xlink:href="#DejaVuSans-46"/>
       <use x="95.410156" xlink:href="#DejaVuSans-48"/>
       <use x="159.033203" xlink:href="#DejaVuSans-48"/>
       <use x="222.65625" xlink:href="#DejaVuSans-48"/>
      </g>
     </g>
    </g>
    <g id="ytick_4">
     <g id="line2d_17">
      <g>
       <use style="stroke:#000000;stroke-width:0.8;" x="57.6" xlink:href="#mebf4a7c759" y="250.009212"/>
      </g>
     </g>
     <g id="text_20">
      <!-- 0.002 -->
      <g transform="translate(4.795 256.087962)scale(0.16 -0.16)">
       <use xlink:href="#DejaVuSans-48"/>
       <use x="63.623047" xlink:href="#DejaVuSans-46"/>
       <use x="95.410156" xlink:href="#DejaVuSans-48"/>
       <use x="159.033203" xlink:href="#DejaVuSans-48"/>
       <use x="222.65625" xlink:href="#DejaVuSans-50"/>
      </g>
     </g>
    </g>
    <g id="text_21">
     <!-- b -->
     <g transform="translate(-3.780312 267.047281)rotate(-90)scale(0.22 -0.22)">
      <defs>
       <path d="M 48.6875 27.296875 
Q 48.6875 37.203125 44.609375 42.84375 
Q 40.53125 48.484375 33.40625 48.484375 
Q 26.265625 48.484375 22.1875 42.84375 
Q 18.109375 37.203125 18.109375 27.296875 
Q 18.109375 17.390625 22.1875 11.75 
Q 26.265625 6.109375 33.40625 6.109375 
Q 40.53125 6.109375 44.609375 11.75 
Q 48.6875 17.390625 48.6875 27.296875 
z
M 18.109375 46.390625 
Q 20.953125 51.265625 25.265625 53.625 
Q 29.59375 56 35.59375 56 
Q 45.5625 56 51.78125 48.09375 
Q 58.015625 40.1875 58.015625 27.296875 
Q 58.015625 14.40625 51.78125 6.484375 
Q 45.5625 -1.421875 35.59375 -1.421875 
Q 29.59375 -1.421875 25.265625 0.953125 
Q 20.953125 3.328125 18.109375 8.203125 
L 18.109375 0 
L 9.078125 0 
L 9.078125 75.984375 
L 18.109375 75.984375 
z
" id="DejaVuSans-98"/>
      </defs>
      <use xlink:href="#DejaVuSans-98"/>
     </g>
    </g>
   </g>
   <g id="line2d_18">
    <path clip-path="url(#pd44993d5b7)" d="M 73.832727 302.044197 
L 74.483338 301.529655 
L 75.133948 301.986273 
L 75.784558 301.982628 
L 76.435169 301.774164 
L 77.085779 301.399908 
L 77.736389 300.796863 
L 78.386999 299.847218 
L 79.03761 298.178216 
L 79.68822 293.429899 
L 80.33883 216.864 
L 80.989441 294.881824 
L 81.640051 297.113693 
L 82.290661 298.41121 
L 82.941272 299.351862 
L 83.591882 299.959367 
L 84.242492 300.177499 
L 84.893103 299.967309 
L 85.543713 299.095862 
L 86.194323 295.013891 
L 86.844934 262.681786 
L 87.495544 292.359956 
L 88.796764 296.230874 
L 89.447375 297.88351 
L 90.097985 299.059384 
L 90.748595 299.771308 
L 91.399206 299.996302 
L 92.049816 298.857029 
L 93.351037 282.313539 
L 94.001647 290.455386 
L 94.652257 292.818805 
L 96.604088 298.334132 
L 97.254698 299.276758 
L 97.905309 299.435673 
L 98.555919 297.970917 
L 99.206529 295.456595 
L 99.85714 284.421519 
L 100.50775 297.340242 
L 101.15836 294.678017 
L 101.808971 295.958619 
L 103.110191 299.30461 
L 103.760802 300.320489 
L 104.411412 300.62961 
L 105.062022 300.292977 
L 105.712633 299.0248 
L 106.363243 298.890927 
L 107.013853 299.453138 
L 107.664463 297.404954 
L 108.315074 297.951662 
L 109.616294 300.761573 
L 110.266905 301.756975 
L 110.917515 302.353645 
L 111.568125 302.254834 
L 112.218736 299.186668 
L 112.869346 295.358717 
L 113.519956 301.185641 
L 114.170567 299.55085 
L 114.821177 299.659637 
L 116.122398 301.556892 
L 117.423618 302.940773 
L 118.074228 302.324547 
L 118.724839 300.802282 
L 119.375449 299.639774 
L 120.026059 302.225334 
L 120.67667 301.499312 
L 121.32728 301.267714 
L 123.929721 302.350855 
L 124.580332 302.198333 
L 125.230942 300.102938 
L 127.182773 302.627845 
L 129.134604 301.909356 
L 129.785214 301.901718 
L 130.435824 302.06595 
L 131.086435 301.714191 
L 131.737045 300.945035 
L 133.038266 302.237526 
L 133.688876 302.765753 
L 134.339486 302.900996 
L 134.990097 302.457238 
L 135.640707 302.170811 
L 136.291317 302.123843 
L 136.941927 302.235445 
L 137.592538 301.995084 
L 138.243148 301.621357 
L 138.893758 302.921402 
L 139.544369 302.425374 
L 140.194979 302.86922 
L 140.845589 303.094991 
L 142.14681 302.542777 
L 144.098641 302.390453 
L 144.749251 302.282604 
L 145.399862 302.816187 
L 146.050472 302.98768 
L 149.303523 302.939396 
L 149.954134 302.918683 
L 150.604744 302.727832 
L 151.255354 302.978854 
L 151.905965 302.853212 
L 152.556575 303.038694 
L 153.207185 303.034962 
L 153.857796 302.883676 
L 155.159016 303.118782 
L 155.809627 303.264 
L 156.460237 303.061675 
L 157.110847 302.995054 
L 157.761457 303.100256 
L 158.412068 302.714991 
L 159.062678 302.910606 
L 159.713288 302.984872 
L 160.363899 302.845564 
L 161.665119 303.068521 
L 162.31573 303.165101 
L 162.96634 303.040989 
L 164.267561 302.99862 
L 164.918171 302.765481 
L 166.219392 302.989085 
L 166.870002 302.902228 
L 170.123053 303.089384 
L 171.424274 302.904121 
L 177.279767 303.087465 
L 178.580987 303.085335 
L 179.231598 303.182851 
L 180.532818 303.176605 
L 181.834039 303.188279 
L 183.13526 303.164303 
L 186.388311 303.182678 
L 188.340142 303.151105 
L 189.641363 303.142292 
L 190.291973 303.22082 
L 193.545025 303.152455 
L 202.653569 303.139705 
L 204.6054 303.172489 
L 207.858451 303.156472 
L 230.629812 303.18541 
L 323.016477 303.217639 
L 398.487273 303.225392 
L 398.487273 303.225392 
" style="fill:none;stroke:#1f77b4;stroke-linecap:square;stroke-width:2;"/>
   </g>
   <g id="patch_8">
    <path d="M 57.6 307.584 
L 57.6 212.544 
" style="fill:none;stroke:#000000;stroke-linecap:square;stroke-linejoin:miter;stroke-width:0.8;"/>
   </g>
   <g id="patch_9">
    <path d="M 414.72 307.584 
L 414.72 212.544 
" style="fill:none;stroke:#000000;stroke-linecap:square;stroke-linejoin:miter;stroke-width:0.8;"/>
   </g>
   <g id="patch_10">
    <path d="M 57.6 307.584 
L 414.72 307.584 
" style="fill:none;stroke:#000000;stroke-linecap:square;stroke-linejoin:miter;stroke-width:0.8;"/>
   </g>
   <g id="patch_11">
    <path d="M 57.6 212.544 
L 414.72 212.544 
" style="fill:none;stroke:#000000;stroke-linecap:square;stroke-linejoin:miter;stroke-width:0.8;"/>
   </g>
   <g id="text_22">
    <!-- R_L -->
    <g transform="translate(219.3405 206.544)scale(0.192 -0.192)">
     <use xlink:href="#DejaVuSans-82"/>
     <use x="69.482422" xlink:href="#DejaVuSans-95"/>
     <use x="119.482422" xlink:href="#DejaVuSans-76"/>
    </g>
   </g>
  </g>
 </g>
 <defs>
  <clipPath id="pabfcbdc0d9">
   <rect height="95.04" width="357.12" x="57.6" y="41.472"/>
  </clipPath>
  <clipPath id="pd44993d5b7">
   <rect height="95.04" width="357.12" x="57.6" y="212.544"/>
  </clipPath>
 </defs>
</svg>
