<?xml version="1.0" encoding="utf-8" standalone="no"?>
<!DOCTYPE svg PUBLIC "-//W3C//DTD SVG 1.1//EN"
  "http://www.w3.org/Graphics/SVG/1.1/DTD/svg11.dtd">
<!-- Created with matplotlib (https://matplotlib.org/) -->
<svg height="345.6pt" version="1.1" viewBox="0 0 460.8 345.6" width="460.8pt" xmlns="http://www.w3.org/2000/svg" xmlns:xlink="http://www.w3.org/1999/xlink">
 <metadata>
  <rdf:RDF xmlns:cc="http://creativecommons.org/ns#" xmlns:dc="http://purl.org/dc/elements/1.1/" xmlns:rdf="http://www.w3.org/1999/02/22-rdf-syntax-ns#">
   <cc:Work>
    <dc:type rdf:resource="http://purl.org/dc/dcmitype/StillImage"/>
    <dc:date>2022-06-20T11:22:15.033025</dc:date>
    <dc:format>image/svg+xml</dc:format>
    <dc:creator>
     <cc:Agent>
      <dc:title>Matplotlib v3.3.4, https://matplotlib.org/</dc:title>
     </cc:Agent>
    </dc:creator>
   </cc:Work>
  </rdf:RDF>
 </metadata>
 <defs>
  <style type="text/css">*{stroke-linecap:butt;stroke-linejoin:round;}</style>
 </defs>
 <g id="figure_1">
  <g id="patch_1">
   <path d="M 0 345.6 
L 460.8 345.6 
L 460.8 0 
L 0 0 
z
" style="fill:none;"/>
  </g>
  <g id="axes_1">
   <g id="patch_2">
    <path d="M 57.6 307.584 
L 414.72 307.584 
L 414.72 41.472 
L 57.6 41.472 
z
" style="fill:none;"/>
   </g>
   <g id="matplotlib.axis_1">
    <g id="xtick_1">
     <g id="line2d_1">
      <defs>
       <path d="M 0 0 
L 0 3.5 
" id="mff964030f1" style="stroke:#000000;stroke-width:0.8;"/>
      </defs>
      <g>
       <use style="stroke:#000000;stroke-width:0.8;" x="73.832727" xlink:href="#mff964030f1" y="307.584"/>
      </g>
     </g>
     <g id="text_1">
      <!-- 0 -->
      <g transform="translate(68.742727 326.7415)scale(0.16 -0.16)">
       <defs>
        <path d="M 31.78125 66.40625 
Q 24.171875 66.40625 20.328125 58.90625 
Q 16.5 51.421875 16.5 36.375 
Q 16.5 21.390625 20.328125 13.890625 
Q 24.171875 6.390625 31.78125 6.390625 
Q 39.453125 6.390625 43.28125 13.890625 
Q 47.125 21.390625 47.125 36.375 
Q 47.125 51.421875 43.28125 58.90625 
Q 39.453125 66.40625 31.78125 66.40625 
z
M 31.78125 74.21875 
Q 44.046875 74.21875 50.515625 64.515625 
Q 56.984375 54.828125 56.984375 36.375 
Q 56.984375 17.96875 50.515625 8.265625 
Q 44.046875 -1.421875 31.78125 -1.421875 
Q 19.53125 -1.421875 13.0625 8.265625 
Q 6.59375 17.96875 6.59375 36.375 
Q 6.59375 54.828125 13.0625 64.515625 
Q 19.53125 74.21875 31.78125 74.21875 
z
" id="DejaVuSans-48"/>
       </defs>
       <use xlink:href="#DejaVuSans-48"/>
      </g>
     </g>
    </g>
    <g id="xtick_2">
     <g id="line2d_2">
      <g>
       <use style="stroke:#000000;stroke-width:0.8;" x="171.040708" xlink:href="#mff964030f1" y="307.584"/>
      </g>
     </g>
     <g id="text_2">
      <!-- 100 -->
      <g transform="translate(155.770708 326.7415)scale(0.16 -0.16)">
       <defs>
        <path d="M 12.40625 8.296875 
L 28.515625 8.296875 
L 28.515625 63.921875 
L 10.984375 60.40625 
L 10.984375 69.390625 
L 28.421875 72.90625 
L 38.28125 72.90625 
L 38.28125 8.296875 
L 54.390625 8.296875 
L 54.390625 0 
L 12.40625 0 
z
" id="DejaVuSans-49"/>
       </defs>
       <use xlink:href="#DejaVuSans-49"/>
       <use x="63.623047" xlink:href="#DejaVuSans-48"/>
       <use x="127.246094" xlink:href="#DejaVuSans-48"/>
      </g>
     </g>
    </g>
    <g id="xtick_3">
     <g id="line2d_3">
      <g>
       <use style="stroke:#000000;stroke-width:0.8;" x="268.248688" xlink:href="#mff964030f1" y="307.584"/>
      </g>
     </g>
     <g id="text_3">
      <!-- 200 -->
      <g transform="translate(252.978688 326.7415)scale(0.16 -0.16)">
       <defs>
        <path d="M 19.1875 8.296875 
L 53.609375 8.296875 
L 53.609375 0 
L 7.328125 0 
L 7.328125 8.296875 
Q 12.9375 14.109375 22.625 23.890625 
Q 32.328125 33.6875 34.8125 36.53125 
Q 39.546875 41.84375 41.421875 45.53125 
Q 43.3125 49.21875 43.3125 52.78125 
Q 43.3125 58.59375 39.234375 62.25 
Q 35.15625 65.921875 28.609375 65.921875 
Q 23.96875 65.921875 18.8125 64.3125 
Q 13.671875 62.703125 7.8125 59.421875 
L 7.8125 69.390625 
Q 13.765625 71.78125 18.9375 73 
Q 24.125 74.21875 28.421875 74.21875 
Q 39.75 74.21875 46.484375 68.546875 
Q 53.21875 62.890625 53.21875 53.421875 
Q 53.21875 48.921875 51.53125 44.890625 
Q 49.859375 40.875 45.40625 35.40625 
Q 44.1875 33.984375 37.640625 27.21875 
Q 31.109375 20.453125 19.1875 8.296875 
z
" id="DejaVuSans-50"/>
       </defs>
       <use xlink:href="#DejaVuSans-50"/>
       <use x="63.623047" xlink:href="#DejaVuSans-48"/>
       <use x="127.246094" xlink:href="#DejaVuSans-48"/>
      </g>
     </g>
    </g>
    <g id="xtick_4">
     <g id="line2d_4">
      <g>
       <use style="stroke:#000000;stroke-width:0.8;" x="365.456669" xlink:href="#mff964030f1" y="307.584"/>
      </g>
     </g>
     <g id="text_4">
      <!-- 300 -->
      <g transform="translate(350.186669 326.7415)scale(0.16 -0.16)">
       <defs>
        <path d="M 40.578125 39.3125 
Q 47.65625 37.796875 51.625 33 
Q 55.609375 28.21875 55.609375 21.1875 
Q 55.609375 10.40625 48.1875 4.484375 
Q 40.765625 -1.421875 27.09375 -1.421875 
Q 22.515625 -1.421875 17.65625 -0.515625 
Q 12.796875 0.390625 7.625 2.203125 
L 7.625 11.71875 
Q 11.71875 9.328125 16.59375 8.109375 
Q 21.484375 6.890625 26.8125 6.890625 
Q 36.078125 6.890625 40.9375 10.546875 
Q 45.796875 14.203125 45.796875 21.1875 
Q 45.796875 27.640625 41.28125 31.265625 
Q 36.765625 34.90625 28.71875 34.90625 
L 20.21875 34.90625 
L 20.21875 43.015625 
L 29.109375 43.015625 
Q 36.375 43.015625 40.234375 45.921875 
Q 44.09375 48.828125 44.09375 54.296875 
Q 44.09375 59.90625 40.109375 62.90625 
Q 36.140625 65.921875 28.71875 65.921875 
Q 24.65625 65.921875 20.015625 65.03125 
Q 15.375 64.15625 9.8125 62.3125 
L 9.8125 71.09375 
Q 15.4375 72.65625 20.34375 73.4375 
Q 25.25 74.21875 29.59375 74.21875 
Q 40.828125 74.21875 47.359375 69.109375 
Q 53.90625 64.015625 53.90625 55.328125 
Q 53.90625 49.265625 50.4375 45.09375 
Q 46.96875 40.921875 40.578125 39.3125 
z
" id="DejaVuSans-51"/>
       </defs>
       <use xlink:href="#DejaVuSans-51"/>
       <use x="63.623047" xlink:href="#DejaVuSans-48"/>
       <use x="127.246094" xlink:href="#DejaVuSans-48"/>
      </g>
     </g>
    </g>
    <g id="text_5">
     <!-- a -->
     <g transform="translate(229.419062 350.785562)scale(0.22 -0.22)">
      <defs>
       <path d="M 34.28125 27.484375 
Q 23.390625 27.484375 19.1875 25 
Q 14.984375 22.515625 14.984375 16.5 
Q 14.984375 11.71875 18.140625 8.90625 
Q 21.296875 6.109375 26.703125 6.109375 
Q 34.1875 6.109375 38.703125 11.40625 
Q 43.21875 16.703125 43.21875 25.484375 
L 43.21875 27.484375 
z
M 52.203125 31.203125 
L 52.203125 0 
L 43.21875 0 
L 43.21875 8.296875 
Q 40.140625 3.328125 35.546875 0.953125 
Q 30.953125 -1.421875 24.3125 -1.421875 
Q 15.921875 -1.421875 10.953125 3.296875 
Q 6 8.015625 6 15.921875 
Q 6 25.140625 12.171875 29.828125 
Q 18.359375 34.515625 30.609375 34.515625 
L 43.21875 34.515625 
L 43.21875 35.40625 
Q 43.21875 41.609375 39.140625 45 
Q 35.0625 48.390625 27.6875 48.390625 
Q 23 48.390625 18.546875 47.265625 
Q 14.109375 46.140625 10.015625 43.890625 
L 10.015625 52.203125 
Q 14.9375 54.109375 19.578125 55.046875 
Q 24.21875 56 28.609375 56 
Q 40.484375 56 46.34375 49.84375 
Q 52.203125 43.703125 52.203125 31.203125 
z
" id="DejaVuSans-97"/>
      </defs>
      <use xlink:href="#DejaVuSans-97"/>
     </g>
    </g>
   </g>
   <g id="matplotlib.axis_2">
    <g id="ytick_1">
     <g id="line2d_5">
      <defs>
       <path d="M 0 0 
L -3.5 0 
" id="m8d87878e2d" style="stroke:#000000;stroke-width:0.8;"/>
      </defs>
      <g>
       <use style="stroke:#000000;stroke-width:0.8;" x="57.6" xlink:href="#m8d87878e2d" y="266.573939"/>
      </g>
     </g>
     <g id="text_6">
      <!-- −40 -->
      <g transform="translate(16.8325 272.652689)scale(0.16 -0.16)">
       <defs>
        <path d="M 10.59375 35.5 
L 73.1875 35.5 
L 73.1875 27.203125 
L 10.59375 27.203125 
z
" id="DejaVuSans-8722"/>
        <path d="M 37.796875 64.3125 
L 12.890625 25.390625 
L 37.796875 25.390625 
z
M 35.203125 72.90625 
L 47.609375 72.90625 
L 47.609375 25.390625 
L 58.015625 25.390625 
L 58.015625 17.1875 
L 47.609375 17.1875 
L 47.609375 0 
L 37.796875 0 
L 37.796875 17.1875 
L 4.890625 17.1875 
L 4.890625 26.703125 
z
" id="DejaVuSans-52"/>
       </defs>
       <use xlink:href="#DejaVuSans-8722"/>
       <use x="83.789062" xlink:href="#DejaVuSans-52"/>
       <use x="147.412109" xlink:href="#DejaVuSans-48"/>
      </g>
     </g>
    </g>
    <g id="ytick_2">
     <g id="line2d_6">
      <g>
       <use style="stroke:#000000;stroke-width:0.8;" x="57.6" xlink:href="#m8d87878e2d" y="219.901622"/>
      </g>
     </g>
     <g id="text_7">
      <!-- −20 -->
      <g transform="translate(16.8325 225.980372)scale(0.16 -0.16)">
       <use xlink:href="#DejaVuSans-8722"/>
       <use x="83.789062" xlink:href="#DejaVuSans-50"/>
       <use x="147.412109" xlink:href="#DejaVuSans-48"/>
      </g>
     </g>
    </g>
    <g id="ytick_3">
     <g id="line2d_7">
      <g>
       <use style="stroke:#000000;stroke-width:0.8;" x="57.6" xlink:href="#m8d87878e2d" y="173.229306"/>
      </g>
     </g>
     <g id="text_8">
      <!-- 0 -->
      <g transform="translate(40.42 179.308056)scale(0.16 -0.16)">
       <use xlink:href="#DejaVuSans-48"/>
      </g>
     </g>
    </g>
    <g id="ytick_4">
     <g id="line2d_8">
      <g>
       <use style="stroke:#000000;stroke-width:0.8;" x="57.6" xlink:href="#m8d87878e2d" y="126.55699"/>
      </g>
     </g>
     <g id="text_9">
      <!-- 20 -->
      <g transform="translate(30.24 132.63574)scale(0.16 -0.16)">
       <use xlink:href="#DejaVuSans-50"/>
       <use x="63.623047" xlink:href="#DejaVuSans-48"/>
      </g>
     </g>
    </g>
    <g id="ytick_5">
     <g id="line2d_9">
      <g>
       <use style="stroke:#000000;stroke-width:0.8;" x="57.6" xlink:href="#m8d87878e2d" y="79.884673"/>
      </g>
     </g>
     <g id="text_10">
      <!-- 40 -->
      <g transform="translate(30.24 85.963423)scale(0.16 -0.16)">
       <use xlink:href="#DejaVuSans-52"/>
       <use x="63.623047" xlink:href="#DejaVuSans-48"/>
      </g>
     </g>
    </g>
    <g id="text_11">
     <!-- b -->
     <g transform="translate(8.257188 181.511281)rotate(-90)scale(0.22 -0.22)">
      <defs>
       <path d="M 48.6875 27.296875 
Q 48.6875 37.203125 44.609375 42.84375 
Q 40.53125 48.484375 33.40625 48.484375 
Q 26.265625 48.484375 22.1875 42.84375 
Q 18.109375 37.203125 18.109375 27.296875 
Q 18.109375 17.390625 22.1875 11.75 
Q 26.265625 6.109375 33.40625 6.109375 
Q 40.53125 6.109375 44.609375 11.75 
Q 48.6875 17.390625 48.6875 27.296875 
z
M 18.109375 46.390625 
Q 20.953125 51.265625 25.265625 53.625 
Q 29.59375 56 35.59375 56 
Q 45.5625 56 51.78125 48.09375 
Q 58.015625 40.1875 58.015625 27.296875 
Q 58.015625 14.40625 51.78125 6.484375 
Q 45.5625 -1.421875 35.59375 -1.421875 
Q 29.59375 -1.421875 25.265625 0.953125 
Q 20.953125 3.328125 18.109375 8.203125 
L 18.109375 0 
L 9.078125 0 
L 9.078125 75.984375 
L 18.109375 75.984375 
z
" id="DejaVuSans-98"/>
      </defs>
      <use xlink:href="#DejaVuSans-98"/>
     </g>
    </g>
   </g>
   <g id="line2d_10">
    <path clip-path="url(#p14642c314b)" d="M 73.832727 173.229305 
L 301.279377 237.251435 
L 335.849475 237.359864 
L 340.967309 237.598137 
L 344.390804 237.970333 
L 347.304554 238.51063 
L 350.520164 239.35097 
L 354.44825 240.35499 
L 356.310538 240.588892 
L 357.876927 240.567534 
L 359.233063 240.332501 
L 360.408905 239.907022 
L 361.434039 239.300389 
L 362.329754 238.510311 
L 363.094938 237.536755 
L 363.567304 236.656965 
L 363.572583 241.486827 
L 363.677471 236.472122 
L 364.183214 235.06532 
L 364.491682 233.984899 
L 364.52946 234.202354 
L 364.557683 236.761191 
L 364.562378 240.288023 
L 364.56707 154.136485 
L 364.669641 231.988123 
L 364.834843 230.520896 
L 365.06348 226.490016 
L 365.24723 218.926187 
L 365.380334 202.872201 
L 365.448221 160.569319 
L 365.456669 53.568 
L 365.540683 210.467078 
L 365.759361 240.087952 
L 365.956617 245.340491 
L 366.016091 245.475058 
L 366.071225 245.364031 
L 366.184299 244.550156 
L 366.23835 242.627453 
L 366.25757 232.711073 
L 366.261408 155.68539 
L 366.265245 256.216352 
L 366.364401 245.097896 
L 366.614676 243.769765 
L 366.99256 242.617911 
L 366.996078 246.918492 
L 367.100966 242.414711 
L 368.723932 238.461951 
L 369.369495 235.954835 
L 370.016059 232.49276 
L 371.006171 227.072468 
L 371.084573 227.083623 
L 371.110546 227.124897 
L 371.232838 227.618381 
L 371.420312 229.493982 
L 371.709055 235.026104 
L 372.14456 248.150334 
L 372.797415 269.096236 
L 372.83626 268.960993 
L 372.94304 267.433875 
L 373.841505 247.147549 
L 373.956446 244.983319 
L 374.148627 240.39924 
L 374.151642 242.247413 
L 374.260977 239.098996 
L 374.399711 236.470034 
L 374.427478 237.867129 
L 374.443512 259.006046 
L 374.444968 226.710054 
L 374.446424 144.617151 
L 374.482739 230.110355 
L 374.554905 227.13899 
L 374.669103 212.139208 
L 374.725628 170.759191 
L 374.732667 67.606925 
L 374.818075 227.156997 
L 374.969938 249.457653 
L 374.994531 246.660821 
L 375.008162 212.203059 
L 375.009524 143.502157 
L 375.050281 254.439262 
L 375.117774 254.15701 
L 375.274951 252.712863 
L 375.27759 249.217125 
L 375.27891 254.705591 
L 375.385084 253.113773 
L 375.536128 252.843493 
L 375.537407 253.580059 
L 375.646716 252.606433 
L 375.837754 251.64017 
L 376.094315 248.973594 
L 376.477133 242.30034 
L 377.107677 230.744327 
L 377.137366 230.811275 
L 377.219525 231.688925 
L 377.394841 236.536592 
L 377.764448 254.123757 
L 378.208536 284.13834 
L 378.310477 278.837759 
L 378.700206 250.258244 
L 378.701086 231.927781 
L 378.701965 256.308299 
L 378.811184 248.119265 
L 378.839784 247.364418 
L 378.862249 250.166891 
L 378.870873 265.857038 
L 378.87432 216.237359 
L 378.875182 151.296611 
L 378.901848 237.963221 
L 378.984749 227.64919 
L 379.039004 187.480325 
L 379.045761 85.304283 
L 379.131447 244.61698 
L 379.187262 251.926883 
L 379.208822 239.703835 
L 379.212962 151.064576 
L 379.315806 256.061661 
L 379.354154 256.125721 
L 379.371231 255.91246 
L 379.376104 253.625829 
L 379.376916 238.748865 
L 379.377728 258.888405 
L 379.486614 257.172548 
L 379.535358 257.683404 
L 379.536951 257.661602 
L 379.648534 259.075488 
L 379.835904 260.438785 
L 379.868903 260.376132 
L 379.952735 259.613229 
L 380.112736 255.63343 
L 380.578836 239.519173 
L 380.661519 240.653993 
L 380.836796 248.186846 
L 381.414183 284.149232 
L 381.511208 278.765496 
L 381.64135 261.102391 
L 381.641971 234.599597 
L 381.642591 271.485469 
L 381.752375 261.955239 
L 381.760338 270.019192 
L 381.76401 235.885544 
L 381.765234 162.226091 
L 381.786621 248.763569 
L 381.875257 215.663288 
L 381.886723 103.402936 
L 381.962972 255.457977 
L 381.98446 257.045865 
L 382.002921 246.53274 
L 382.00649 162.282488 
L 382.053333 259.761667 
L 382.110497 259.670964 
L 382.122821 258.708379 
L 382.124581 241.726548 
L 382.125167 262.999017 
L 382.231206 260.892935 
L 382.581091 266.686635 
L 382.672252 265.489464 
L 382.821494 258.244769 
L 383.026835 249.271544 
L 383.068884 249.761709 
L 383.192755 255.053561 
L 383.722422 282.660864 
L 383.758255 280.325293 
L 383.81796 274.452188 
L 383.914326 174.915341 
L 383.819879 277.463849 
L 383.930911 260.566032 
L 383.932332 260.585114 
L 383.951716 258.430936 
L 383.999749 228.642824 
L 384.008666 121.31418 
L 384.081062 262.706049 
L 384.102892 238.817429 
L 384.194701 267.540926 
L 384.215324 264.393684 
L 384.2432 264.516974 
L 384.283253 264.907556 
L 384.285069 264.828375 
L 384.396461 266.973863 
L 384.621042 271.158536 
L 384.671931 270.578977 
L 384.775796 265.41112 
L 384.921452 258.443652 
L 384.973915 259.396387 
L 385.467559 279.007645 
L 385.469138 278.849434 
L 385.469532 280.984967 
L 385.548076 248.951707 
L 385.580069 278.214142 
L 385.622796 272.574186 
L 385.703005 139.132164 
L 385.735564 265.650514 
L 385.760378 268.049551 
L 385.778275 251.160793 
L 385.779416 188.874708 
L 385.855519 271.761899 
L 385.888247 268.848206 
L 385.927952 269.06561 
L 385.929821 268.960797 
L 386.041168 270.791383 
L 386.247328 274.416561 
L 386.300058 273.664334 
L 386.467175 266.214036 
L 386.566157 268.916986 
L 386.914047 278.390911 
L 386.914712 278.395155 
L 386.916042 278.26062 
L 386.982268 281.245457 
L 386.982598 257.359408 
L 387.027006 279.01026 
L 387.045032 275.745377 
L 387.113505 156.958497 
L 387.058444 278.191744 
L 387.157879 272.591072 
L 387.161754 272.628418 
L 387.174338 270.956247 
L 387.178206 203.360947 
L 387.242734 275.264442 
L 387.282935 272.905654 
L 387.303598 272.970933 
L 387.305821 272.856775 
L 387.417137 274.263955 
L 387.60304 276.96653 
L 387.654977 276.229227 
L 387.772933 272.239335 
L 387.849772 273.677157 
L 388.151181 279.966855 
L 388.171833 279.415331 
L 388.207854 280.963531 
L 388.208139 282.051114 
L 388.265282 218.376973 
L 388.316411 272.496564 
L 388.32176 174.811079 
L 388.383731 276.740278 
L 388.426092 276.35859 
L 388.433039 275.331883 
L 388.433317 274.06245 
L 388.433594 279.864866 
L 388.543693 276.70362 
L 388.667786 278.131134 
L 388.767153 279.120683 
L 388.813746 278.60094 
L 388.903017 276.657287 
L 388.964271 277.354369 
L 389.278385 282.628532 
L 389.37856 192.662044 
L 389.329745 283.952212 
L 389.389479 277.377924 
L 389.417953 279.260066 
L 389.427834 262.787323 
L 389.428081 233.643457 
L 389.477314 283.654391 
L 389.538697 279.255611 
L 389.633197 279.782679 
L 389.788384 281.038513 
L 389.840035 280.539117 
L 389.898146 279.877819 
L 389.962582 280.338162 
L 390.228106 283.448833 
L 390.31768 210.435918 
L 390.27357 286.392835 
L 390.339205 281.402439 
L 390.356474 281.620057 
L 390.36156 279.265796 
L 390.362002 248.893404 
L 390.406093 284.5916 
L 390.472455 281.62872 
L 390.587725 282.158011 
L 390.698681 282.795636 
L 390.749924 282.484356 
L 390.786366 282.316251 
L 390.849191 282.588815 
L 391.081721 284.489827 
L 391.162722 227.953195 
L 391.161717 288.872079 
L 391.192823 283.541097 
L 391.201432 283.623263 
L 391.202433 283.174976 
L 391.202833 263.216559 
L 391.242755 285.213378 
L 391.313351 283.635919 
L 391.456682 284.194643 
L 391.517042 284.433018 
L 391.585008 284.2756 
L 391.630208 284.384421 
L 391.631919 284.37603 
L 391.856904 285.662829 
L 391.930831 244.793451 
L 391.93028 291.476424 
L 391.96801 284.907498 
L 392.003934 286.086537 
L 392.080018 285.378326 
L 392.566013 286.602651 
L 392.601012 294.451872 
L 392.600843 283.844758 
L 392.634685 293.622226 
L 392.634854 260.095398 
L 392.745744 286.849317 
L 393.164512 287.748001 
L 393.221731 288.081648 
L 393.284665 272.540312 
L 393.284508 295.488 
L 393.332686 288.107409 
L 393.829441 289.223393 
L 393.346823 288.074105 
L 393.858416 288.960612 
L 393.88802 281.199933 
L 393.887874 293.180641 
L 393.969007 289.379352 
L 394.396333 290.258069 
L 394.423566 290.067273 
L 394.45112 286.459428 
L 394.450984 292.215524 
L 394.53446 290.448635 
L 394.950427 291.173521 
L 394.953122 291.087293 
L 394.979003 289.470053 
L 394.978875 292.141742 
L 395.063904 291.364998 
L 395.44948 291.961378 
L 395.451536 291.848171 
L 395.475695 292.432878 
L 395.475816 291.229557 
L 395.562696 292.12849 
L 395.944899 292.836289 
L 395.945013 292.297356 
L 396.055984 292.767593 
L 396.058349 292.760383 
L 396.389396 293.218204 
L 396.389504 292.989708 
L 396.496958 293.240294 
L 396.500484 293.235412 
L 397.213804 293.786167 
L 397.213903 293.733862 
L 397.3248 293.822176 
L 398.107339 294.084587 
L 398.107427 294.067894 
L 398.177789 294.102705 
L 398.218332 294.09138 
L 398.487273 294.10761 
L 398.487273 294.10761 
" style="fill:none;stroke:#17e610;stroke-linecap:square;stroke-width:2;"/>
   </g>
   <g id="patch_3">
    <path d="M 57.6 307.584 
L 57.6 41.472 
" style="fill:none;stroke:#000000;stroke-linecap:square;stroke-linejoin:miter;stroke-width:0.8;"/>
   </g>
   <g id="patch_4">
    <path d="M 414.72 307.584 
L 414.72 41.472 
" style="fill:none;stroke:#000000;stroke-linecap:square;stroke-linejoin:miter;stroke-width:0.8;"/>
   </g>
   <g id="patch_5">
    <path d="M 57.6 307.584 
L 414.72 307.584 
" style="fill:none;stroke:#000000;stroke-linecap:square;stroke-linejoin:miter;stroke-width:0.8;"/>
   </g>
   <g id="patch_6">
    <path d="M 57.6 41.472 
L 414.72 41.472 
" style="fill:none;stroke:#000000;stroke-linecap:square;stroke-linejoin:miter;stroke-width:0.8;"/>
   </g>
  </g>
 </g>
 <defs>
  <clipPath id="p14642c314b">
   <rect height="266.112" width="357.12" x="57.6" y="41.472"/>
  </clipPath>
 </defs>
</svg>
